<?xml version="1.0" encoding="utf-8" standalone="no"?>
<!DOCTYPE svg PUBLIC "-//W3C//DTD SVG 1.1//EN"
  "http://www.w3.org/Graphics/SVG/1.1/DTD/svg11.dtd">
<svg xmlns:xlink="http://www.w3.org/1999/xlink" width="413.909062pt" height="313.325858pt" viewBox="0 0 413.909062 313.325858" xmlns="http://www.w3.org/2000/svg" version="1.1">
 <metadata>
  <rdf:RDF xmlns:dc="http://purl.org/dc/elements/1.1/" xmlns:cc="http://creativecommons.org/ns#" xmlns:rdf="http://www.w3.org/1999/02/22-rdf-syntax-ns#">
   <cc:Work>
    <dc:type rdf:resource="http://purl.org/dc/dcmitype/StillImage"/>
    <dc:date>2023-04-15T15:35:03.024025</dc:date>
    <dc:format>image/svg+xml</dc:format>
    <dc:creator>
     <cc:Agent>
      <dc:title>Matplotlib v3.7.1, https://matplotlib.org/</dc:title>
     </cc:Agent>
    </dc:creator>
   </cc:Work>
  </rdf:RDF>
 </metadata>
 <defs>
  <style type="text/css">*{stroke-linejoin: round; stroke-linecap: butt}</style>
 </defs>
 <g id="figure_1">
  <g id="patch_1">
   <path d="M 0 313.325858 
L 413.909062 313.325858 
L 413.909062 0 
L 0 0 
z
" style="fill: #ffffff"/>
  </g>
  <g id="axes_1">
   <g id="patch_2">
    <path d="M 49.589063 276.718046 
L 406.709063 276.718046 
L 406.709063 10.606046 
L 49.589063 10.606046 
z
" style="fill: #ffffff"/>
   </g>
   <g id="patch_3">
    <path d="M 61.493062 276.718046 
L 109.109062 276.718046 
L 109.109062 126.99431 
L 61.493062 126.99431 
z
" clip-path="url(#p6d37f5ed7e)" style="fill: #117a7a"/>
   </g>
   <g id="patch_4">
    <path d="M 180.533062 276.718046 
L 228.149062 276.718046 
L 228.149062 116.090806 
L 180.533062 116.090806 
z
" clip-path="url(#p6d37f5ed7e)" style="fill: #117a7a"/>
   </g>
   <g id="patch_5">
    <path d="M 299.573062 276.718046 
L 347.189062 276.718046 
L 347.189062 114.495171 
L 299.573062 114.495171 
z
" clip-path="url(#p6d37f5ed7e)" style="fill: #117a7a"/>
   </g>
   <g id="patch_6">
    <path d="M 109.109062 276.718046 
L 156.725062 276.718046 
L 156.725062 247.198801 
L 109.109062 247.198801 
z
" clip-path="url(#p6d37f5ed7e)" style="fill: #1ab5b7"/>
   </g>
   <g id="patch_7">
    <path d="M 228.149062 276.718046 
L 275.765062 276.718046 
L 275.765062 137.897815 
L 228.149062 137.897815 
z
" clip-path="url(#p6d37f5ed7e)" style="fill: #1ab5b7"/>
   </g>
   <g id="patch_8">
    <path d="M 347.189062 276.718046 
L 394.805062 276.718046 
L 394.805062 23.278046 
L 347.189062 23.278046 
z
" clip-path="url(#p6d37f5ed7e)" style="fill: #1ab5b7"/>
   </g>
   <g id="matplotlib.axis_1">
    <g id="xtick_1">
     <g id="line2d_1">
      <defs>
       <path id="ma10e621057" d="M 0 0 
L 0 3.5 
" style="stroke: #000000; stroke-width: 0.8"/>
      </defs>
      <g>
       <use xlink:href="#ma10e621057" x="109.109062" y="276.718046" style="stroke: #000000; stroke-width: 0.8"/>
      </g>
     </g>
     <g id="text_1">
      <text style="font: 10px 'Arial', sans-serif; text-anchor: middle" x="109.109062" y="290.875858" transform="rotate(-0 109.109062 290.875858)">Day7</text>
     </g>
    </g>
    <g id="xtick_2">
     <g id="line2d_2">
      <g>
       <use xlink:href="#ma10e621057" x="228.149062" y="276.718046" style="stroke: #000000; stroke-width: 0.8"/>
      </g>
     </g>
     <g id="text_2">
      <text style="font: 10px 'Arial', sans-serif; text-anchor: middle" x="228.149062" y="290.875858" transform="rotate(-0 228.149062 290.875858)">Month3</text>
     </g>
    </g>
    <g id="xtick_3">
     <g id="line2d_3">
      <g>
       <use xlink:href="#ma10e621057" x="347.189062" y="276.718046" style="stroke: #000000; stroke-width: 0.8"/>
      </g>
     </g>
     <g id="text_3">
      <text style="font: 10px 'Arial', sans-serif; text-anchor: middle" x="347.189062" y="290.875858" transform="rotate(-0 347.189062 290.875858)">Month6</text>
     </g>
    </g>
    <g id="text_4">
     <text style="font: 10px 'Arial', sans-serif; text-anchor: middle" x="228.149063" y="304.138358" transform="rotate(-0 228.149063 304.138358)">collection_timepoint</text>
    </g>
   </g>
   <g id="matplotlib.axis_2">
    <g id="ytick_1">
     <g id="line2d_4">
      <defs>
       <path id="mfb0bc21f66" d="M 0 0 
L -3.5 0 
" style="stroke: #000000; stroke-width: 0.8"/>
      </defs>
      <g>
       <use xlink:href="#mfb0bc21f66" x="49.589063" y="276.718046" style="stroke: #000000; stroke-width: 0.8"/>
      </g>
     </g>
     <g id="text_5">
      <text style="font: 10px 'Arial', sans-serif; text-anchor: end" x="42.589063" y="280.296952" transform="rotate(-0 42.589063 280.296952)">0</text>
     </g>
    </g>
    <g id="ytick_2">
     <g id="line2d_5">
      <g>
       <use xlink:href="#mfb0bc21f66" x="49.589063" y="223.530218" style="stroke: #000000; stroke-width: 0.8"/>
      </g>
     </g>
     <g id="text_6">
      <text style="font: 10px 'Arial', sans-serif; text-anchor: end" x="42.589063" y="227.109124" transform="rotate(-0 42.589063 227.109124)">200</text>
     </g>
    </g>
    <g id="ytick_3">
     <g id="line2d_6">
      <g>
       <use xlink:href="#mfb0bc21f66" x="49.589063" y="170.34239" style="stroke: #000000; stroke-width: 0.8"/>
      </g>
     </g>
     <g id="text_7">
      <text style="font: 10px 'Arial', sans-serif; text-anchor: end" x="42.589063" y="173.921296" transform="rotate(-0 42.589063 173.921296)">400</text>
     </g>
    </g>
    <g id="ytick_4">
     <g id="line2d_7">
      <g>
       <use xlink:href="#mfb0bc21f66" x="49.589063" y="117.154562" style="stroke: #000000; stroke-width: 0.8"/>
      </g>
     </g>
     <g id="text_8">
      <text style="font: 10px 'Arial', sans-serif; text-anchor: end" x="42.589063" y="120.733468" transform="rotate(-0 42.589063 120.733468)">600</text>
     </g>
    </g>
    <g id="ytick_5">
     <g id="line2d_8">
      <g>
       <use xlink:href="#mfb0bc21f66" x="49.589063" y="63.966734" style="stroke: #000000; stroke-width: 0.8"/>
      </g>
     </g>
     <g id="text_9">
      <text style="font: 10px 'Arial', sans-serif; text-anchor: end" x="42.589063" y="67.54564" transform="rotate(-0 42.589063 67.54564)">800</text>
     </g>
    </g>
    <g id="ytick_6">
     <g id="line2d_9">
      <g>
       <use xlink:href="#mfb0bc21f66" x="49.589063" y="10.778906" style="stroke: #000000; stroke-width: 0.8"/>
      </g>
     </g>
     <g id="text_10">
      <text style="font: 10px 'Arial', sans-serif; text-anchor: end" x="42.589063" y="14.357812" transform="rotate(-0 42.589063 14.357812)">1000</text>
     </g>
    </g>
    <g id="text_11">
     <text style="font: 10px 'Arial', sans-serif; text-anchor: middle" x="14.357813" y="143.662046" transform="rotate(-90 14.357813 143.662046)">count</text>
    </g>
   </g>
   <g id="patch_9">
    <path d="M 49.589063 276.718046 
L 49.589063 10.606046 
" style="fill: none; stroke: #000000; stroke-width: 0.8; stroke-linejoin: miter; stroke-linecap: square"/>
   </g>
   <g id="patch_10">
    <path d="M 406.709063 276.718046 
L 406.709063 10.606046 
" style="fill: none; stroke: #000000; stroke-width: 0.8; stroke-linejoin: miter; stroke-linecap: square"/>
   </g>
   <g id="patch_11">
    <path d="M 49.589062 276.718046 
L 406.709062 276.718046 
" style="fill: none; stroke: #000000; stroke-width: 0.8; stroke-linejoin: miter; stroke-linecap: square"/>
   </g>
   <g id="patch_12">
    <path d="M 49.589062 10.606046 
L 406.709062 10.606046 
" style="fill: none; stroke: #000000; stroke-width: 0.8; stroke-linejoin: miter; stroke-linecap: square"/>
   </g>
   <g id="legend_1">
    <g id="patch_13">
     <path d="M 56.589063 61.393546 
L 164.735938 61.393546 
Q 166.735938 61.393546 166.735938 59.393546 
L 166.735938 17.606046 
Q 166.735938 15.606046 164.735938 15.606046 
L 56.589063 15.606046 
Q 54.589063 15.606046 54.589063 17.606046 
L 54.589063 59.393546 
Q 54.589063 61.393546 56.589063 61.393546 
z
" style="fill: #ffffff; opacity: 0.8; stroke: #cccccc; stroke-linejoin: miter"/>
    </g>
    <g id="text_12">
     <text style="font: 10px 'Arial', sans-serif; text-anchor: start" x="83.979688" y="26.763858" transform="rotate(-0 83.979688 26.763858)">syn_nonsyn</text>
    </g>
    <g id="patch_14">
     <path d="M 58.589063 41.026358 
L 78.589063 41.026358 
L 78.589063 34.026358 
L 58.589063 34.026358 
z
" style="fill: #117a7a"/>
    </g>
    <g id="text_13">
     <text style="font: 10px 'Arial', sans-serif; text-anchor: start" x="86.589063" y="41.026358" transform="rotate(-0 86.589063 41.026358)">synonymous</text>
    </g>
    <g id="patch_15">
     <path d="M 58.589063 55.288858 
L 78.589063 55.288858 
L 78.589063 48.288858 
L 58.589063 48.288858 
z
" style="fill: #1ab5b7"/>
    </g>
    <g id="text_14">
     <text style="font: 10px 'Arial', sans-serif; text-anchor: start" x="86.589063" y="55.288858" transform="rotate(-0 86.589063 55.288858)">non-synonymous</text>
    </g>
   </g>
  </g>
 </g>
 <defs>
  <clipPath id="p6d37f5ed7e">
   <rect x="49.589063" y="10.606046" width="357.12" height="266.112"/>
  </clipPath>
 </defs>
</svg>
