<?xml version="1.0" encoding="utf-8" standalone="no"?>
<!DOCTYPE svg PUBLIC "-//W3C//DTD SVG 1.1//EN"
  "http://www.w3.org/Graphics/SVG/1.1/DTD/svg11.dtd">
<svg xmlns:xlink="http://www.w3.org/1999/xlink" width="408.348125pt" height="309.9495pt" viewBox="0 0 408.348125 309.9495" xmlns="http://www.w3.org/2000/svg" version="1.1">
 <metadata>
  <rdf:RDF xmlns:dc="http://purl.org/dc/elements/1.1/" xmlns:cc="http://creativecommons.org/ns#" xmlns:rdf="http://www.w3.org/1999/02/22-rdf-syntax-ns#">
   <cc:Work>
    <dc:type rdf:resource="http://purl.org/dc/dcmitype/StillImage"/>
    <dc:date>2023-04-15T15:35:04.398377</dc:date>
    <dc:format>image/svg+xml</dc:format>
    <dc:creator>
     <cc:Agent>
      <dc:title>Matplotlib v3.7.1, https://matplotlib.org/</dc:title>
     </cc:Agent>
    </dc:creator>
   </cc:Work>
  </rdf:RDF>
 </metadata>
 <defs>
  <style type="text/css">*{stroke-linejoin: round; stroke-linecap: butt}</style>
 </defs>
 <g id="figure_1">
  <g id="patch_1">
   <path d="M 0 309.9495 
L 408.348125 309.9495 
L 408.348125 0 
L 0 0 
z
" style="fill: #ffffff"/>
  </g>
  <g id="axes_1">
   <g id="patch_2">
    <path d="M 44.028125 273.312 
L 401.148125 273.312 
L 401.148125 7.2 
L 44.028125 7.2 
z
" style="fill: #ffffff"/>
   </g>
   <g id="patch_3">
    <path d="M 49.980125 273.312 
L 73.788125 273.312 
L 73.788125 193.278316 
L 49.980125 193.278316 
z
" clip-path="url(#p13e72116aa)" style="fill: #117a7a"/>
   </g>
   <g id="patch_4">
    <path d="M 109.500125 273.312 
L 133.308125 273.312 
L 133.308125 194.389895 
L 109.500125 194.389895 
z
" clip-path="url(#p13e72116aa)" style="fill: #117a7a"/>
   </g>
   <g id="patch_5">
    <path d="M 169.020125 273.312 
L 192.828125 273.312 
L 192.828125 199.947789 
L 169.020125 199.947789 
z
" clip-path="url(#p13e72116aa)" style="fill: #117a7a"/>
   </g>
   <g id="patch_6">
    <path d="M 228.540125 273.312 
L 252.348125 273.312 
L 252.348125 114.356211 
L 228.540125 114.356211 
z
" clip-path="url(#p13e72116aa)" style="fill: #117a7a"/>
   </g>
   <g id="patch_7">
    <path d="M 288.060125 273.312 
L 311.868125 273.312 
L 311.868125 121.025684 
L 288.060125 121.025684 
z
" clip-path="url(#p13e72116aa)" style="fill: #117a7a"/>
   </g>
   <g id="patch_8">
    <path d="M 347.580125 273.312 
L 371.388125 273.312 
L 371.388125 121.025684 
L 347.580125 121.025684 
z
" clip-path="url(#p13e72116aa)" style="fill: #117a7a"/>
   </g>
   <g id="patch_9">
    <path d="M 73.788125 273.312 
L 97.596125 273.312 
L 97.596125 266.642526 
L 73.788125 266.642526 
z
" clip-path="url(#p13e72116aa)" style="fill: #1ab5b7"/>
   </g>
   <g id="patch_10">
    <path d="M 133.308125 273.312 
L 157.116125 273.312 
L 157.116125 259.973053 
L 133.308125 259.973053 
z
" clip-path="url(#p13e72116aa)" style="fill: #1ab5b7"/>
   </g>
   <g id="patch_11">
    <path d="M 192.828125 273.312 
L 216.636125 273.312 
L 216.636125 253.303579 
L 192.828125 253.303579 
z
" clip-path="url(#p13e72116aa)" style="fill: #1ab5b7"/>
   </g>
   <g id="patch_12">
    <path d="M 252.348125 273.312 
L 276.156125 273.312 
L 276.156125 147.703579 
L 252.348125 147.703579 
z
" clip-path="url(#p13e72116aa)" style="fill: #1ab5b7"/>
   </g>
   <g id="patch_13">
    <path d="M 311.868125 273.312 
L 335.676125 273.312 
L 335.676125 22.095158 
L 311.868125 22.095158 
z
" clip-path="url(#p13e72116aa)" style="fill: #1ab5b7"/>
   </g>
   <g id="patch_14">
    <path d="M 371.388125 273.312 
L 395.196125 273.312 
L 395.196125 19.872 
L 371.388125 19.872 
z
" clip-path="url(#p13e72116aa)" style="fill: #1ab5b7"/>
   </g>
   <g id="matplotlib.axis_1">
    <g id="xtick_1">
     <g id="line2d_1">
      <defs>
       <path id="m0b56f18fa1" d="M 0 0 
L 0 3.5 
" style="stroke: #000000; stroke-width: 0.8"/>
      </defs>
      <g>
       <use xlink:href="#m0b56f18fa1" x="73.788125" y="273.312" style="stroke: #000000; stroke-width: 0.8"/>
      </g>
     </g>
     <g id="text_1">
      <text style="font: 10px 'Arial', sans-serif; text-anchor: middle" x="73.788125" y="287.4995" transform="rotate(-0 73.788125 287.4995)">Day3</text>
     </g>
    </g>
    <g id="xtick_2">
     <g id="line2d_2">
      <g>
       <use xlink:href="#m0b56f18fa1" x="133.308125" y="273.312" style="stroke: #000000; stroke-width: 0.8"/>
      </g>
     </g>
     <g id="text_2">
      <text style="font: 10px 'Arial', sans-serif; text-anchor: middle" x="133.308125" y="287.469812" transform="rotate(-0 133.308125 287.469812)">Day7</text>
     </g>
    </g>
    <g id="xtick_3">
     <g id="line2d_3">
      <g>
       <use xlink:href="#m0b56f18fa1" x="192.828125" y="273.312" style="stroke: #000000; stroke-width: 0.8"/>
      </g>
     </g>
     <g id="text_3">
      <text style="font: 10px 'Arial', sans-serif; text-anchor: middle" x="192.828125" y="287.469812" transform="rotate(-0 192.828125 287.469812)">Month1</text>
     </g>
    </g>
    <g id="xtick_4">
     <g id="line2d_4">
      <g>
       <use xlink:href="#m0b56f18fa1" x="252.348125" y="273.312" style="stroke: #000000; stroke-width: 0.8"/>
      </g>
     </g>
     <g id="text_4">
      <text style="font: 10px 'Arial', sans-serif; text-anchor: middle" x="252.348125" y="287.469812" transform="rotate(-0 252.348125 287.469812)">Month3</text>
     </g>
    </g>
    <g id="xtick_5">
     <g id="line2d_5">
      <g>
       <use xlink:href="#m0b56f18fa1" x="311.868125" y="273.312" style="stroke: #000000; stroke-width: 0.8"/>
      </g>
     </g>
     <g id="text_5">
      <text style="font: 10px 'Arial', sans-serif; text-anchor: middle" x="311.868125" y="287.469812" transform="rotate(-0 311.868125 287.469812)">Month6</text>
     </g>
    </g>
    <g id="xtick_6">
     <g id="line2d_6">
      <g>
       <use xlink:href="#m0b56f18fa1" x="371.388125" y="273.312" style="stroke: #000000; stroke-width: 0.8"/>
      </g>
     </g>
     <g id="text_6">
      <text style="font: 10px 'Arial', sans-serif; text-anchor: middle" x="371.388125" y="287.469812" transform="rotate(-0 371.388125 287.469812)">Month10</text>
     </g>
    </g>
    <g id="text_7">
     <text style="font: 10px 'Arial', sans-serif; text-anchor: middle" x="222.588125" y="300.762" transform="rotate(-0 222.588125 300.762)">collection_timepoint</text>
    </g>
   </g>
   <g id="matplotlib.axis_2">
    <g id="ytick_1">
     <g id="line2d_7">
      <defs>
       <path id="m2425a3569e" d="M 0 0 
L -3.5 0 
" style="stroke: #000000; stroke-width: 0.8"/>
      </defs>
      <g>
       <use xlink:href="#m2425a3569e" x="44.028125" y="273.312" style="stroke: #000000; stroke-width: 0.8"/>
      </g>
     </g>
     <g id="text_8">
      <text style="font: 10px 'Arial', sans-serif; text-anchor: end" x="37.028125" y="276.890906" transform="rotate(-0 37.028125 276.890906)">0</text>
     </g>
    </g>
    <g id="ytick_2">
     <g id="line2d_8">
      <g>
       <use xlink:href="#m2425a3569e" x="44.028125" y="217.733053" style="stroke: #000000; stroke-width: 0.8"/>
      </g>
     </g>
     <g id="text_9">
      <text style="font: 10px 'Arial', sans-serif; text-anchor: end" x="37.028125" y="221.311959" transform="rotate(-0 37.028125 221.311959)">50</text>
     </g>
    </g>
    <g id="ytick_3">
     <g id="line2d_9">
      <g>
       <use xlink:href="#m2425a3569e" x="44.028125" y="162.154105" style="stroke: #000000; stroke-width: 0.8"/>
      </g>
     </g>
     <g id="text_10">
      <text style="font: 10px 'Arial', sans-serif; text-anchor: end" x="37.028125" y="165.733012" transform="rotate(-0 37.028125 165.733012)">100</text>
     </g>
    </g>
    <g id="ytick_4">
     <g id="line2d_10">
      <g>
       <use xlink:href="#m2425a3569e" x="44.028125" y="106.575158" style="stroke: #000000; stroke-width: 0.8"/>
      </g>
     </g>
     <g id="text_11">
      <text style="font: 10px 'Arial', sans-serif; text-anchor: end" x="37.028125" y="110.154064" transform="rotate(-0 37.028125 110.154064)">150</text>
     </g>
    </g>
    <g id="ytick_5">
     <g id="line2d_11">
      <g>
       <use xlink:href="#m2425a3569e" x="44.028125" y="50.996211" style="stroke: #000000; stroke-width: 0.8"/>
      </g>
     </g>
     <g id="text_12">
      <text style="font: 10px 'Arial', sans-serif; text-anchor: end" x="37.028125" y="54.575117" transform="rotate(-0 37.028125 54.575117)">200</text>
     </g>
    </g>
    <g id="text_13">
     <text style="font: 10px 'Arial', sans-serif; text-anchor: middle" x="14.357813" y="140.256" transform="rotate(-90 14.357813 140.256)">count</text>
    </g>
   </g>
   <g id="patch_15">
    <path d="M 44.028125 273.312 
L 44.028125 7.2 
" style="fill: none; stroke: #000000; stroke-width: 0.8; stroke-linejoin: miter; stroke-linecap: square"/>
   </g>
   <g id="patch_16">
    <path d="M 401.148125 273.312 
L 401.148125 7.2 
" style="fill: none; stroke: #000000; stroke-width: 0.8; stroke-linejoin: miter; stroke-linecap: square"/>
   </g>
   <g id="patch_17">
    <path d="M 44.028125 273.312 
L 401.148125 273.312 
" style="fill: none; stroke: #000000; stroke-width: 0.8; stroke-linejoin: miter; stroke-linecap: square"/>
   </g>
   <g id="patch_18">
    <path d="M 44.028125 7.2 
L 401.148125 7.2 
" style="fill: none; stroke: #000000; stroke-width: 0.8; stroke-linejoin: miter; stroke-linecap: square"/>
   </g>
   <g id="legend_1">
    <g id="patch_19">
     <path d="M 51.028125 57.9875 
L 159.175 57.9875 
Q 161.175 57.9875 161.175 55.9875 
L 161.175 14.2 
Q 161.175 12.2 159.175 12.2 
L 51.028125 12.2 
Q 49.028125 12.2 49.028125 14.2 
L 49.028125 55.9875 
Q 49.028125 57.9875 51.028125 57.9875 
z
" style="fill: #ffffff; opacity: 0.8; stroke: #cccccc; stroke-linejoin: miter"/>
    </g>
    <g id="text_14">
     <text style="font: 10px 'Arial', sans-serif; text-anchor: start" x="78.41875" y="23.357812" transform="rotate(-0 78.41875 23.357812)">syn_nonsyn</text>
    </g>
    <g id="patch_20">
     <path d="M 53.028125 37.620312 
L 73.028125 37.620312 
L 73.028125 30.620312 
L 53.028125 30.620312 
z
" style="fill: #117a7a"/>
    </g>
    <g id="text_15">
     <text style="font: 10px 'Arial', sans-serif; text-anchor: start" x="81.028125" y="37.620312" transform="rotate(-0 81.028125 37.620312)">synonymous</text>
    </g>
    <g id="patch_21">
     <path d="M 53.028125 51.882812 
L 73.028125 51.882812 
L 73.028125 44.882812 
L 53.028125 44.882812 
z
" style="fill: #1ab5b7"/>
    </g>
    <g id="text_16">
     <text style="font: 10px 'Arial', sans-serif; text-anchor: start" x="81.028125" y="51.882812" transform="rotate(-0 81.028125 51.882812)">non-synonymous</text>
    </g>
   </g>
  </g>
 </g>
 <defs>
  <clipPath id="p13e72116aa">
   <rect x="44.028125" y="7.2" width="357.12" height="266.112"/>
  </clipPath>
 </defs>
</svg>
