<?xml version="1.0" encoding="utf-8" standalone="no"?>
<!DOCTYPE svg PUBLIC "-//W3C//DTD SVG 1.1//EN"
  "http://www.w3.org/Graphics/SVG/1.1/DTD/svg11.dtd">
<svg xmlns:xlink="http://www.w3.org/1999/xlink" width="408.348125pt" height="309.9495pt" viewBox="0 0 408.348125 309.9495" xmlns="http://www.w3.org/2000/svg" version="1.1">
 <metadata>
  <rdf:RDF xmlns:dc="http://purl.org/dc/elements/1.1/" xmlns:cc="http://creativecommons.org/ns#" xmlns:rdf="http://www.w3.org/1999/02/22-rdf-syntax-ns#">
   <cc:Work>
    <dc:type rdf:resource="http://purl.org/dc/dcmitype/StillImage"/>
    <dc:date>2023-04-15T15:35:30.202206</dc:date>
    <dc:format>image/svg+xml</dc:format>
    <dc:creator>
     <cc:Agent>
      <dc:title>Matplotlib v3.7.1, https://matplotlib.org/</dc:title>
     </cc:Agent>
    </dc:creator>
   </cc:Work>
  </rdf:RDF>
 </metadata>
 <defs>
  <style type="text/css">*{stroke-linejoin: round; stroke-linecap: butt}</style>
 </defs>
 <g id="figure_1">
  <g id="patch_1">
   <path d="M 0 309.9495 
L 408.348125 309.9495 
L 408.348125 0 
L 0 0 
z
" style="fill: #ffffff"/>
  </g>
  <g id="axes_1">
   <g id="patch_2">
    <path d="M 44.028125 273.312 
L 401.148125 273.312 
L 401.148125 7.2 
L 44.028125 7.2 
z
" style="fill: #ffffff"/>
   </g>
   <g id="patch_3">
    <path d="M 49.980125 273.312 
L 73.788125 273.312 
L 73.788125 271.259854 
L 49.980125 271.259854 
z
" clip-path="url(#p265aee0428)" style="fill: #7c4722"/>
   </g>
   <g id="patch_4">
    <path d="M 109.500125 273.312 
L 133.308125 273.312 
L 133.308125 268.181636 
L 109.500125 268.181636 
z
" clip-path="url(#p265aee0428)" style="fill: #7c4722"/>
   </g>
   <g id="patch_5">
    <path d="M 169.020125 273.312 
L 192.828125 273.312 
L 192.828125 272.285927 
L 169.020125 272.285927 
z
" clip-path="url(#p265aee0428)" style="fill: #7c4722"/>
   </g>
   <g id="patch_6">
    <path d="M 228.540125 273.312 
L 252.348125 273.312 
L 252.348125 271.259854 
L 228.540125 271.259854 
z
" clip-path="url(#p265aee0428)" style="fill: #7c4722"/>
   </g>
   <g id="patch_7">
    <path d="M 288.060125 273.312 
L 311.868125 273.312 
L 311.868125 260.999126 
L 288.060125 260.999126 
z
" clip-path="url(#p265aee0428)" style="fill: #7c4722"/>
   </g>
   <g id="patch_8">
    <path d="M 347.580125 273.312 
L 371.388125 273.312 
L 371.388125 258.94698 
L 347.580125 258.94698 
z
" clip-path="url(#p265aee0428)" style="fill: #7c4722"/>
   </g>
   <g id="patch_9">
    <path d="M 73.788125 273.312 
L 97.596125 273.312 
L 97.596125 268.181636 
L 73.788125 268.181636 
z
" clip-path="url(#p265aee0428)" style="fill: #bb8551"/>
   </g>
   <g id="patch_10">
    <path d="M 0 0 
z
" clip-path="url(#p265aee0428)" style="fill: #bb8551"/>
   </g>
   <g id="patch_11">
    <path d="M 192.828125 273.312 
L 216.636125 273.312 
L 216.636125 227.138721 
L 192.828125 227.138721 
z
" clip-path="url(#p265aee0428)" style="fill: #bb8551"/>
   </g>
   <g id="patch_12">
    <path d="M 252.348125 273.312 
L 276.156125 273.312 
L 276.156125 147.105036 
L 252.348125 147.105036 
z
" clip-path="url(#p265aee0428)" style="fill: #bb8551"/>
   </g>
   <g id="patch_13">
    <path d="M 311.868125 273.312 
L 335.676125 273.312 
L 335.676125 151.209328 
L 311.868125 151.209328 
z
" clip-path="url(#p265aee0428)" style="fill: #bb8551"/>
   </g>
   <g id="patch_14">
    <path d="M 371.388125 273.312 
L 395.196125 273.312 
L 395.196125 19.872 
L 371.388125 19.872 
z
" clip-path="url(#p265aee0428)" style="fill: #bb8551"/>
   </g>
   <g id="matplotlib.axis_1">
    <g id="xtick_1">
     <g id="line2d_1">
      <defs>
       <path id="ma3c991f454" d="M 0 0 
L 0 3.5 
" style="stroke: #000000; stroke-width: 0.8"/>
      </defs>
      <g>
       <use xlink:href="#ma3c991f454" x="73.788125" y="273.312" style="stroke: #000000; stroke-width: 0.8"/>
      </g>
     </g>
     <g id="text_1">
      <text style="font: 10px 'Arial', sans-serif; text-anchor: middle" x="73.788125" y="287.4995" transform="rotate(-0 73.788125 287.4995)">Day3</text>
     </g>
    </g>
    <g id="xtick_2">
     <g id="line2d_2">
      <g>
       <use xlink:href="#ma3c991f454" x="133.308125" y="273.312" style="stroke: #000000; stroke-width: 0.8"/>
      </g>
     </g>
     <g id="text_2">
      <text style="font: 10px 'Arial', sans-serif; text-anchor: middle" x="133.308125" y="287.469812" transform="rotate(-0 133.308125 287.469812)">Day7</text>
     </g>
    </g>
    <g id="xtick_3">
     <g id="line2d_3">
      <g>
       <use xlink:href="#ma3c991f454" x="192.828125" y="273.312" style="stroke: #000000; stroke-width: 0.8"/>
      </g>
     </g>
     <g id="text_3">
      <text style="font: 10px 'Arial', sans-serif; text-anchor: middle" x="192.828125" y="287.469812" transform="rotate(-0 192.828125 287.469812)">Month1</text>
     </g>
    </g>
    <g id="xtick_4">
     <g id="line2d_4">
      <g>
       <use xlink:href="#ma3c991f454" x="252.348125" y="273.312" style="stroke: #000000; stroke-width: 0.8"/>
      </g>
     </g>
     <g id="text_4">
      <text style="font: 10px 'Arial', sans-serif; text-anchor: middle" x="252.348125" y="287.469812" transform="rotate(-0 252.348125 287.469812)">Month3</text>
     </g>
    </g>
    <g id="xtick_5">
     <g id="line2d_5">
      <g>
       <use xlink:href="#ma3c991f454" x="311.868125" y="273.312" style="stroke: #000000; stroke-width: 0.8"/>
      </g>
     </g>
     <g id="text_5">
      <text style="font: 10px 'Arial', sans-serif; text-anchor: middle" x="311.868125" y="287.469812" transform="rotate(-0 311.868125 287.469812)">Month6</text>
     </g>
    </g>
    <g id="xtick_6">
     <g id="line2d_6">
      <g>
       <use xlink:href="#ma3c991f454" x="371.388125" y="273.312" style="stroke: #000000; stroke-width: 0.8"/>
      </g>
     </g>
     <g id="text_6">
      <text style="font: 10px 'Arial', sans-serif; text-anchor: middle" x="371.388125" y="287.469812" transform="rotate(-0 371.388125 287.469812)">Month10</text>
     </g>
    </g>
    <g id="text_7">
     <text style="font: 10px 'Arial', sans-serif; text-anchor: middle" x="222.588125" y="300.762" transform="rotate(-0 222.588125 300.762)">collection_timepoint</text>
    </g>
   </g>
   <g id="matplotlib.axis_2">
    <g id="ytick_1">
     <g id="line2d_7">
      <defs>
       <path id="m57cd1b607b" d="M 0 0 
L -3.5 0 
" style="stroke: #000000; stroke-width: 0.8"/>
      </defs>
      <g>
       <use xlink:href="#m57cd1b607b" x="44.028125" y="273.312" style="stroke: #000000; stroke-width: 0.8"/>
      </g>
     </g>
     <g id="text_8">
      <text style="font: 10px 'Arial', sans-serif; text-anchor: end" x="37.028125" y="276.890906" transform="rotate(-0 37.028125 276.890906)">0</text>
     </g>
    </g>
    <g id="ytick_2">
     <g id="line2d_8">
      <g>
       <use xlink:href="#m57cd1b607b" x="44.028125" y="222.008356" style="stroke: #000000; stroke-width: 0.8"/>
      </g>
     </g>
     <g id="text_9">
      <text style="font: 10px 'Arial', sans-serif; text-anchor: end" x="37.028125" y="225.587263" transform="rotate(-0 37.028125 225.587263)">50</text>
     </g>
    </g>
    <g id="ytick_3">
     <g id="line2d_9">
      <g>
       <use xlink:href="#m57cd1b607b" x="44.028125" y="170.704713" style="stroke: #000000; stroke-width: 0.8"/>
      </g>
     </g>
     <g id="text_10">
      <text style="font: 10px 'Arial', sans-serif; text-anchor: end" x="37.028125" y="174.283619" transform="rotate(-0 37.028125 174.283619)">100</text>
     </g>
    </g>
    <g id="ytick_4">
     <g id="line2d_10">
      <g>
       <use xlink:href="#m57cd1b607b" x="44.028125" y="119.401069" style="stroke: #000000; stroke-width: 0.8"/>
      </g>
     </g>
     <g id="text_11">
      <text style="font: 10px 'Arial', sans-serif; text-anchor: end" x="37.028125" y="122.979975" transform="rotate(-0 37.028125 122.979975)">150</text>
     </g>
    </g>
    <g id="ytick_5">
     <g id="line2d_11">
      <g>
       <use xlink:href="#m57cd1b607b" x="44.028125" y="68.097425" style="stroke: #000000; stroke-width: 0.8"/>
      </g>
     </g>
     <g id="text_12">
      <text style="font: 10px 'Arial', sans-serif; text-anchor: end" x="37.028125" y="71.676331" transform="rotate(-0 37.028125 71.676331)">200</text>
     </g>
    </g>
    <g id="ytick_6">
     <g id="line2d_12">
      <g>
       <use xlink:href="#m57cd1b607b" x="44.028125" y="16.793781" style="stroke: #000000; stroke-width: 0.8"/>
      </g>
     </g>
     <g id="text_13">
      <text style="font: 10px 'Arial', sans-serif; text-anchor: end" x="37.028125" y="20.372688" transform="rotate(-0 37.028125 20.372688)">250</text>
     </g>
    </g>
    <g id="text_14">
     <text style="font: 10px 'Arial', sans-serif; text-anchor: middle" x="14.357813" y="140.256" transform="rotate(-90 14.357813 140.256)">count</text>
    </g>
   </g>
   <g id="patch_15">
    <path d="M 44.028125 273.312 
L 44.028125 7.2 
" style="fill: none; stroke: #000000; stroke-width: 0.8; stroke-linejoin: miter; stroke-linecap: square"/>
   </g>
   <g id="patch_16">
    <path d="M 401.148125 273.312 
L 401.148125 7.2 
" style="fill: none; stroke: #000000; stroke-width: 0.8; stroke-linejoin: miter; stroke-linecap: square"/>
   </g>
   <g id="patch_17">
    <path d="M 44.028125 273.312 
L 401.148125 273.312 
" style="fill: none; stroke: #000000; stroke-width: 0.8; stroke-linejoin: miter; stroke-linecap: square"/>
   </g>
   <g id="patch_18">
    <path d="M 44.028125 7.2 
L 401.148125 7.2 
" style="fill: none; stroke: #000000; stroke-width: 0.8; stroke-linejoin: miter; stroke-linecap: square"/>
   </g>
   <g id="legend_1">
    <g id="patch_19">
     <path d="M 168.514688 57.9875 
L 276.661563 57.9875 
Q 278.661563 57.9875 278.661563 55.9875 
L 278.661563 14.2 
Q 278.661563 12.2 276.661563 12.2 
L 168.514688 12.2 
Q 166.514688 12.2 166.514688 14.2 
L 166.514688 55.9875 
Q 166.514688 57.9875 168.514688 57.9875 
z
" style="fill: #ffffff; opacity: 0.8; stroke: #cccccc; stroke-linejoin: miter"/>
    </g>
    <g id="text_15">
     <text style="font: 10px 'Arial', sans-serif; text-anchor: start" x="195.905313" y="23.357812" transform="rotate(-0 195.905313 23.357812)">syn_nonsyn</text>
    </g>
    <g id="patch_20">
     <path d="M 170.514688 37.620312 
L 190.514688 37.620312 
L 190.514688 30.620312 
L 170.514688 30.620312 
z
" style="fill: #7c4722"/>
    </g>
    <g id="text_16">
     <text style="font: 10px 'Arial', sans-serif; text-anchor: start" x="198.514688" y="37.620312" transform="rotate(-0 198.514688 37.620312)">synonymous</text>
    </g>
    <g id="patch_21">
     <path d="M 170.514688 51.882812 
L 190.514688 51.882812 
L 190.514688 44.882812 
L 170.514688 44.882812 
z
" style="fill: #bb8551"/>
    </g>
    <g id="text_17">
     <text style="font: 10px 'Arial', sans-serif; text-anchor: start" x="198.514688" y="51.882812" transform="rotate(-0 198.514688 51.882812)">non-synonymous</text>
    </g>
   </g>
  </g>
 </g>
 <defs>
  <clipPath id="p265aee0428">
   <rect x="44.028125" y="7.2" width="357.12" height="266.112"/>
  </clipPath>
 </defs>
</svg>
