<?xml version="1.0" encoding="utf-8" standalone="no"?>
<!DOCTYPE svg PUBLIC "-//W3C//DTD SVG 1.1//EN"
  "http://www.w3.org/Graphics/SVG/1.1/DTD/svg11.dtd">
<svg xmlns:xlink="http://www.w3.org/1999/xlink" width="231.84pt" height="246.429375pt" viewBox="0 0 231.84 246.429375" xmlns="http://www.w3.org/2000/svg" version="1.1">
 <metadata>
  <rdf:RDF xmlns:dc="http://purl.org/dc/elements/1.1/" xmlns:cc="http://creativecommons.org/ns#" xmlns:rdf="http://www.w3.org/1999/02/22-rdf-syntax-ns#">
   <cc:Work>
    <dc:type rdf:resource="http://purl.org/dc/dcmitype/StillImage"/>
    <dc:date>2022-06-20T13:48:20.275079</dc:date>
    <dc:format>image/svg+xml</dc:format>
    <dc:creator>
     <cc:Agent>
      <dc:title>Matplotlib v3.5.1, https://matplotlib.org/</dc:title>
     </cc:Agent>
    </dc:creator>
   </cc:Work>
  </rdf:RDF>
 </metadata>
 <defs>
  <style type="text/css">*{stroke-linejoin: round; stroke-linecap: butt}</style>
 </defs>
 <g id="figure_1">
  <g id="patch_1">
   <path d="M 0 246.429375 
L 231.84 246.429375 
L 231.84 0 
L 0 0 
L 0 246.429375 
z
" style="fill: none"/>
  </g>
  <g id="axes_1">
   <g id="patch_2">
    <path d="M 202.896 130.509375 
C 202.896 128.430868 202.821493 126.353029 202.672624 124.27986 
C 202.523754 122.206692 202.300617 120.139525 202.003642 118.082344 
L 115.92 130.509375 
L 202.896 130.509375 
z
" style="fill: #ceecc8"/>
   </g>
   <g id="patch_3">
    <path d="M 202.003642 118.082344 
C 201.348944 113.547164 200.336875 109.070804 198.97689 104.695084 
C 197.616905 100.319363 195.913252 96.05795 193.881847 91.950654 
L 115.92 130.509375 
L 202.003642 118.082344 
z
" style="fill: #bde5b6"/>
   </g>
   <g id="patch_4">
    <path d="M 193.881847 91.950654 
C 191.481742 87.097884 188.633777 82.47979 185.375051 78.156529 
C 182.116325 73.833269 178.46105 69.823697 174.456843 66.180046 
L 115.92 130.509375 
L 193.881847 91.950654 
z
" style="fill: #2a924a"/>
   </g>
   <g id="patch_5">
    <path d="M 174.456843 66.180046 
C 173.857971 65.635099 173.251518 65.098541 172.637662 64.570529 
C 172.023806 64.042518 171.402607 63.523104 170.774247 63.01244 
L 115.92 130.509375 
L 174.456843 66.180046 
z
" style="fill: #e5f5e0"/>
   </g>
   <g id="patch_6">
    <path d="M 170.774247 63.01244 
C 169.80626 62.225765 168.821463 61.460004 167.820539 60.715688 
C 166.819614 59.971373 165.802794 59.248675 164.770783 58.548097 
L 115.92 130.509375 
L 170.774247 63.01244 
z
" style="fill: #eef8ea"/>
   </g>
   <g id="patch_7">
    <path d="M 164.770783 58.548097 
C 162.211586 56.810791 159.561533 55.211242 156.831922 53.756269 
C 154.10231 52.301297 151.297025 50.992972 148.428026 49.836872 
L 115.92 130.509375 
L 164.770783 58.548097 
z
" style="fill: #66bd6f"/>
   </g>
   <g id="patch_8">
    <path d="M 148.428026 49.836872 
C 146.007975 48.861681 143.545268 47.99588 141.047378 47.242098 
C 138.549487 46.488315 136.018943 45.847313 133.463423 45.321037 
L 115.92 130.509375 
L 148.428026 49.836872 
z
" style="fill: #a0d99b"/>
   </g>
   <g id="patch_9">
    <path d="M 133.463423 45.321037 
C 129.157803 44.434351 124.791149 43.875364 120.401015 43.648883 
C 116.01088 43.422402 111.609885 43.529078 107.235879 43.967994 
L 115.92 130.509375 
L 133.463423 45.321037 
z
" style="fill: #00441b"/>
   </g>
   <g id="patch_10">
    <path d="M 107.235879 43.967994 
C 103.471803 44.345706 99.736377 44.96859 96.053405 45.832678 
C 92.370433 46.696766 88.747756 47.800218 85.20846 49.136002 
L 115.92 130.509375 
L 107.235879 43.967994 
z
" style="fill: #f2faf0"/>
   </g>
   <g id="patch_11">
    <path d="M 85.20846 49.136002 
C 82.472071 50.168756 79.789517 51.338881 77.171024 52.641914 
C 74.552531 53.944948 72.00143 55.379233 69.527447 56.939302 
L 115.92 130.509375 
L 85.20846 49.136002 
z
" style="fill: #f7fcf5"/>
   </g>
   <g id="patch_12">
    <path d="M 69.527447 56.939302 
C 68.109075 57.833713 66.716865 58.768955 65.352562 59.743855 
C 63.98826 60.718755 62.652435 61.732905 61.346764 62.785033 
L 115.92 130.509375 
L 69.527447 56.939302 
z
" style="fill: #c7e9c0"/>
   </g>
   <g id="patch_13">
    <path d="M 61.346764 62.785033 
C 60.594585 63.391149 59.852557 64.009755 59.120987 64.640591 
C 58.389417 65.271428 57.668407 65.914409 56.958258 66.569266 
L 115.92 130.509375 
L 61.346764 62.785033 
z
" style="fill: #d6efd0"/>
   </g>
   <g id="patch_14">
    <path d="M 56.958258 66.569266 
C 55.043096 68.335314 53.208247 70.186516 51.459261 72.117272 
C 49.710276 74.048028 48.048919 76.056389 46.480217 78.136279 
L 115.92 130.509375 
L 56.958258 66.569266 
z
" style="fill: #4db163"/>
   </g>
   <g id="patch_15">
    <path d="M 46.480217 78.136279 
C 45.786441 79.056135 45.111011 79.989685 44.454327 80.936377 
C 43.797643 81.883069 43.159835 82.842716 42.54128 83.814749 
L 115.92 130.509375 
L 46.480217 78.136279 
z
" style="fill: #39a257"/>
   </g>
   <g id="patch_16">
    <path d="M 42.54128 83.814749 
C 40.235084 87.438843 38.200539 91.228813 36.454353 95.153534 
C 34.708167 99.078254 33.255134 103.126951 32.107188 107.266373 
L 115.92 130.509375 
L 42.54128 83.814749 
z
" style="fill: #319a50"/>
   </g>
   <g id="patch_17">
    <path d="M 32.107188 107.266373 
C 31.527064 109.358263 31.025461 111.47114 30.603433 113.600563 
C 30.181404 115.729986 29.839247 117.874463 29.577678 120.029487 
L 115.92 130.509375 
L 32.107188 107.266373 
z
" style="fill: #7fc97f"/>
   </g>
   <g id="patch_18">
    <path d="M 29.577678 120.029487 
C 29.172764 123.365515 28.961533 126.722208 28.945047 130.082678 
C 28.92856 133.443149 29.106847 136.801753 29.479009 140.141593 
L 115.92 130.509375 
L 29.577678 120.029487 
z
" style="fill: #b4e1ad"/>
   </g>
   <g id="patch_19">
    <path d="M 29.479009 140.141593 
C 29.674682 141.897592 29.923818 143.647221 30.226069 145.388045 
C 30.528321 147.128868 30.883548 148.860077 31.291256 150.579262 
L 115.92 130.509375 
L 29.479009 140.141593 
z
" style="fill: #aadda4"/>
   </g>
   <g id="patch_20">
    <path d="M 31.291256 150.579262 
C 31.464641 151.310374 31.647493 152.039209 31.839766 152.765583 
C 32.032039 153.491958 32.233716 154.21581 32.444747 154.936957 
L 115.92 130.509375 
L 31.291256 150.579262 
z
" style="fill: #73c476"/>
   </g>
   <g id="patch_21">
    <path d="M 32.444747 154.936957 
C 32.890261 156.45939 33.37734 157.969349 33.905439 159.465141 
C 34.433538 160.960933 35.002459 162.441998 35.611563 163.906673 
L 115.92 130.509375 
L 32.444747 154.936957 
z
" style="fill: #004d1f"/>
   </g>
   <g id="patch_22">
    <path d="M 35.611563 163.906673 
C 36.669639 166.450964 37.848028 168.943536 39.142742 171.375954 
C 40.437456 173.808371 41.847033 176.177888 43.366702 178.476484 
L 115.92 130.509375 
L 35.611563 163.906673 
z
" style="fill: #006c2c"/>
   </g>
   <g id="patch_23">
    <path d="M 43.366702 178.476484 
C 46.13104 182.657721 49.251658 186.592181 52.69369 190.235904 
C 56.135722 193.879628 59.886302 197.218996 63.903526 200.216699 
L 115.92 130.509375 
L 43.366702 178.476484 
z
" style="fill: #19833e"/>
   </g>
   <g id="patch_24">
    <path d="M 63.903526 200.216699 
C 66.678234 202.287221 69.574096 204.190226 72.575648 205.915553 
C 75.577201 207.640881 78.679093 209.185454 81.864763 210.541027 
L 115.92 130.509375 
L 63.903526 200.216699 
z
" style="fill: #8ace88"/>
   </g>
   <g id="patch_25">
    <path d="M 81.864763 210.541027 
C 82.452449 210.791101 83.042872 211.034693 83.635924 211.271761 
C 84.228976 211.508828 84.824621 211.739356 85.422751 211.963303 
L 115.92 130.509375 
L 81.864763 210.541027 
z
" style="fill: #5ab769"/>
   </g>
   <g id="patch_26">
    <path d="M 85.422751 211.963303 
C 85.486926 211.987331 85.55113 212.011283 85.615362 212.035159 
C 85.679594 212.059035 85.743854 212.082836 85.808142 212.10656 
L 115.92 130.509375 
L 85.422751 211.963303 
z
" style="fill: #117b38"/>
   </g>
   <g id="patch_27">
    <path d="M 85.808142 212.10656 
C 89.569362 213.494565 93.422055 214.620851 97.338652 215.477358 
C 101.255248 216.333864 105.226384 216.918544 109.22364 217.227212 
L 115.92 130.509375 
L 85.808142 212.10656 
z
" style="fill: #e9f7e5"/>
   </g>
   <g id="patch_28">
    <path d="M 109.22364 217.227212 
C 112.720839 217.497267 116.231173 217.555518 119.735407 217.401649 
C 123.23964 217.247779 126.731359 216.88207 130.191427 216.306525 
L 115.92 130.509375 
L 109.22364 217.227212 
z
" style="fill: #95d391"/>
   </g>
   <g id="patch_29">
    <path d="M 130.191427 216.306525 
C 134.467746 215.595206 138.684906 214.565169 142.807636 213.22503 
C 146.930367 211.884891 150.947141 210.238397 154.824363 208.299317 
L 115.92 130.509375 
L 130.191427 216.306525 
z
" style="fill: #ddf2d8"/>
   </g>
   <g id="patch_30">
    <path d="M 154.824363 208.299317 
C 158.281046 206.570559 161.618659 204.613318 164.815004 202.440614 
C 168.011349 200.26791 171.059323 197.88457 173.938653 195.306446 
L 115.92 130.509375 
L 154.824363 208.299317 
z
" style="fill: #228a44"/>
   </g>
   <g id="patch_31">
    <path d="M 173.938653 195.306446 
C 176.92536 192.632178 179.723599 189.754607 182.313345 186.694322 
C 184.903092 183.634037 187.278155 180.398356 189.421539 177.010432 
L 115.92 130.509375 
L 173.938653 195.306446 
z
" style="fill: #087432"/>
   </g>
   <g id="patch_32">
    <path d="M 189.421539 177.010432 
C 191.565004 173.62238 193.471648 170.090175 195.127828 166.439092 
C 196.784007 162.78801 198.185762 159.02678 199.32306 155.182318 
L 115.92 130.509375 
L 189.421539 177.010432 
z
" style="fill: #005723"/>
   </g>
   <g id="patch_33">
    <path d="M 199.32306 155.182318 
C 200.213554 152.172142 200.940431 149.115961 201.500499 146.027197 
C 202.060567 142.938432 202.453005 139.82161 202.676091 136.690416 
L 115.92 130.509375 
L 199.32306 155.182318 
z
" style="fill: #006227"/>
   </g>
   <g id="patch_34">
    <path d="M 202.676091 136.690416 
C 202.749365 135.661951 202.804345 134.632265 202.841006 133.601846 
C 202.877666 132.571427 202.896 131.540437 202.896 130.509366 
L 115.92 130.509375 
L 202.676091 136.690416 
z
" style="fill: #40aa5d"/>
   </g>
   <g id="patch_35">
    <path d="M 115.92 191.392575 
C 132.066413 191.392575 147.553685 184.977537 158.970924 173.560299 
C 170.388162 162.14306 176.8032 146.655788 176.8032 130.509375 
C 176.8032 114.362962 170.388162 98.87569 158.970924 87.458451 
C 147.553685 76.041213 132.066413 69.626175 115.92 69.626175 
C 99.773587 69.626175 84.286315 76.041213 72.869076 87.458451 
C 61.451838 98.87569 55.0368 114.362962 55.0368 130.509375 
C 55.0368 146.655788 61.451838 162.14306 72.869076 173.560299 
C 84.286315 184.977537 99.773587 191.392575 115.92 191.392575 
z
" clip-path="url(#p185913ca15)" style="fill: #ffffff; stroke: #ffffff; stroke-linejoin: miter"/>
   </g>
   <g id="matplotlib.axis_1"/>
   <g id="matplotlib.axis_2"/>
   <g id="text_1">
    <text style="font: 12px 'sans-serif'; text-anchor: middle" x="115.92" y="15.789375" transform="rotate(-0, 115.92, 15.789375)">AZ20</text>
   </g>
  </g>
 </g>
 <defs>
  <clipPath id="p185913ca15">
   <rect x="7.2" y="21.789375" width="217.44" height="217.44"/>
  </clipPath>
 </defs>
</svg>
