<?xml version="1.0" encoding="utf-8" standalone="no"?>
<!DOCTYPE svg PUBLIC "-//W3C//DTD SVG 1.1//EN"
  "http://www.w3.org/Graphics/SVG/1.1/DTD/svg11.dtd">
<svg xmlns:xlink="http://www.w3.org/1999/xlink" width="795.8375pt" height="566.30625pt" viewBox="0 0 795.8375 566.30625" xmlns="http://www.w3.org/2000/svg" version="1.1">
 <metadata>
  <rdf:RDF xmlns:dc="http://purl.org/dc/elements/1.1/" xmlns:cc="http://creativecommons.org/ns#" xmlns:rdf="http://www.w3.org/1999/02/22-rdf-syntax-ns#">
   <cc:Work>
    <dc:type rdf:resource="http://purl.org/dc/dcmitype/StillImage"/>
    <dc:date>2022-06-17T15:17:27.677530</dc:date>
    <dc:format>image/svg+xml</dc:format>
    <dc:creator>
     <cc:Agent>
      <dc:title>Matplotlib v3.5.1, https://matplotlib.org/</dc:title>
     </cc:Agent>
    </dc:creator>
   </cc:Work>
  </rdf:RDF>
 </metadata>
 <defs>
  <style type="text/css">*{stroke-linejoin: round; stroke-linecap: butt}</style>
 </defs>
 <g id="figure_1">
  <g id="patch_1">
   <path d="M 0 566.30625 
L 795.8375 566.30625 
L 795.8375 0 
L 0 0 
L 0 566.30625 
z
" style="fill: none"/>
  </g>
  <g id="axes_1">
   <g id="patch_2">
    <path d="M 41.3625 529.69375 
L 665.96175 529.69375 
L 665.96175 7.2 
L 41.3625 7.2 
z
" style="fill: #ffffff"/>
   </g>
   <g id="PolyCollection_1">
    <defs>
     <path id="m080f74ed15" d="M 69.753375 -36.704566 
L 69.753375 -36.6125 
L 72.606729 -36.6125 
L 75.460084 -36.6125 
L 78.313438 -36.6125 
L 81.166792 -36.6125 
L 84.020146 -36.6125 
L 86.873501 -36.6125 
L 89.726855 -36.6125 
L 92.580209 -36.6125 
L 95.433563 -36.6125 
L 98.286918 -36.6125 
L 101.140272 -36.6125 
L 103.993626 -36.6125 
L 106.846981 -36.6125 
L 109.700335 -36.6125 
L 112.553689 -36.6125 
L 115.407043 -36.6125 
L 118.260398 -36.6125 
L 121.113752 -36.6125 
L 123.967106 -36.6125 
L 126.82046 -36.6125 
L 129.673815 -36.6125 
L 132.527169 -36.6125 
L 135.380523 -36.6125 
L 138.233878 -36.6125 
L 141.087232 -36.6125 
L 143.940586 -36.6125 
L 146.79394 -36.6125 
L 149.647295 -36.6125 
L 152.500649 -36.6125 
L 155.354003 -36.6125 
L 158.207357 -36.6125 
L 161.060712 -36.6125 
L 163.914066 -36.6125 
L 166.76742 -36.6125 
L 169.620774 -36.6125 
L 172.474129 -36.6125 
L 175.327483 -36.6125 
L 178.180837 -36.6125 
L 181.034192 -36.6125 
L 183.887546 -36.6125 
L 186.7409 -36.6125 
L 189.594254 -36.6125 
L 192.447609 -36.6125 
L 195.300963 -36.6125 
L 198.154317 -36.6125 
L 201.007671 -36.6125 
L 203.861026 -36.6125 
L 206.71438 -36.6125 
L 209.567734 -36.6125 
L 212.421089 -36.6125 
L 215.274443 -36.6125 
L 218.127797 -36.6125 
L 220.981151 -36.6125 
L 223.834506 -36.6125 
L 226.68786 -36.6125 
L 229.541214 -36.6125 
L 232.394568 -36.6125 
L 235.247923 -36.6125 
L 238.101277 -36.6125 
L 240.954631 -36.6125 
L 243.807986 -36.6125 
L 246.66134 -36.6125 
L 249.514694 -36.6125 
L 252.368048 -36.6125 
L 255.221403 -36.6125 
L 258.074757 -36.6125 
L 260.928111 -36.6125 
L 263.781465 -36.6125 
L 266.63482 -36.6125 
L 269.488174 -36.6125 
L 272.341528 -36.6125 
L 275.194883 -36.6125 
L 278.048237 -36.6125 
L 280.901591 -36.6125 
L 283.754945 -36.6125 
L 286.6083 -36.6125 
L 289.461654 -36.6125 
L 292.315008 -36.6125 
L 295.168362 -36.6125 
L 298.021717 -36.6125 
L 300.875071 -36.6125 
L 303.728425 -36.6125 
L 306.58178 -36.6125 
L 309.435134 -36.6125 
L 312.288488 -36.6125 
L 315.141842 -36.6125 
L 317.995197 -36.6125 
L 320.848551 -36.6125 
L 323.701905 -36.6125 
L 326.555259 -36.6125 
L 329.408614 -36.6125 
L 332.261968 -36.6125 
L 335.115322 -36.6125 
L 337.968677 -36.6125 
L 340.822031 -36.6125 
L 343.675385 -36.6125 
L 346.528739 -36.6125 
L 349.382094 -36.6125 
L 352.235448 -36.6125 
L 355.088802 -36.6125 
L 357.942156 -36.6125 
L 360.795511 -36.6125 
L 363.648865 -36.6125 
L 366.502219 -36.6125 
L 369.355573 -36.6125 
L 372.208928 -36.6125 
L 375.062282 -36.6125 
L 377.915636 -36.6125 
L 380.768991 -36.6125 
L 383.622345 -36.6125 
L 386.475699 -36.6125 
L 389.329053 -36.6125 
L 392.182408 -36.6125 
L 395.035762 -36.6125 
L 397.889116 -36.6125 
L 400.74247 -36.6125 
L 403.595825 -36.6125 
L 406.449179 -36.6125 
L 409.302533 -36.6125 
L 412.155888 -36.6125 
L 415.009242 -36.6125 
L 417.862596 -36.6125 
L 420.71595 -36.6125 
L 423.569305 -36.6125 
L 426.422659 -36.6125 
L 429.276013 -36.6125 
L 432.129367 -36.6125 
L 434.982722 -36.6125 
L 437.836076 -36.6125 
L 440.68943 -36.6125 
L 443.542785 -36.6125 
L 446.396139 -36.6125 
L 449.249493 -36.6125 
L 452.102847 -36.6125 
L 454.956202 -36.6125 
L 457.809556 -36.6125 
L 460.66291 -36.6125 
L 463.516264 -36.6125 
L 466.369619 -36.6125 
L 469.222973 -36.6125 
L 472.076327 -36.6125 
L 474.929682 -36.6125 
L 477.783036 -36.6125 
L 480.63639 -36.6125 
L 483.489744 -36.6125 
L 486.343099 -36.6125 
L 489.196453 -36.6125 
L 492.049807 -36.6125 
L 494.903161 -36.6125 
L 497.756516 -36.6125 
L 500.60987 -36.6125 
L 503.463224 -36.6125 
L 506.316579 -36.6125 
L 509.169933 -36.6125 
L 512.023287 -36.6125 
L 514.876641 -36.6125 
L 517.729996 -36.6125 
L 520.58335 -36.6125 
L 523.436704 -36.6125 
L 526.290058 -36.6125 
L 529.143413 -36.6125 
L 531.996767 -36.6125 
L 534.850121 -36.6125 
L 537.703476 -36.6125 
L 540.55683 -36.6125 
L 543.410184 -36.6125 
L 546.263538 -36.6125 
L 549.116893 -36.6125 
L 551.970247 -36.6125 
L 554.823601 -36.6125 
L 557.676955 -36.6125 
L 560.53031 -36.6125 
L 563.383664 -36.6125 
L 566.237018 -36.6125 
L 569.090372 -36.6125 
L 571.943727 -36.6125 
L 574.797081 -36.6125 
L 577.650435 -36.6125 
L 580.50379 -36.6125 
L 583.357144 -36.6125 
L 586.210498 -36.6125 
L 589.063852 -36.6125 
L 591.917207 -36.6125 
L 594.770561 -36.6125 
L 597.623915 -36.6125 
L 600.477269 -36.6125 
L 603.330624 -36.6125 
L 606.183978 -36.6125 
L 609.037332 -36.6125 
L 611.890687 -36.6125 
L 614.744041 -36.6125 
L 617.597395 -36.6125 
L 620.450749 -36.6125 
L 623.304104 -36.6125 
L 626.157458 -36.6125 
L 629.010812 -36.6125 
L 631.864166 -36.6125 
L 634.717521 -36.6125 
L 637.570875 -36.6125 
L 637.570875 -36.6125 
L 637.570875 -36.6125 
L 634.717521 -36.6125 
L 631.864166 -36.6125 
L 629.010812 -36.6125 
L 626.157458 -36.6125 
L 623.304104 -36.6125 
L 620.450749 -36.6125 
L 617.597395 -36.6125 
L 614.744041 -36.6125 
L 611.890687 -36.6125 
L 609.037332 -36.6125 
L 606.183978 -36.6125 
L 603.330624 -36.6125 
L 600.477269 -36.6125 
L 597.623915 -36.6125 
L 594.770561 -36.6125 
L 591.917207 -36.6125 
L 589.063852 -36.6125 
L 586.210498 -36.6125 
L 583.357144 -36.6125 
L 580.50379 -36.6125 
L 577.650435 -36.6125 
L 574.797081 -36.6125 
L 571.943727 -36.6125 
L 569.090372 -36.6125 
L 566.237018 -36.6125 
L 563.383664 -36.6125 
L 560.53031 -36.6125 
L 557.676955 -36.6125 
L 554.823601 -36.6125 
L 551.970247 -36.6125 
L 549.116893 -36.6125 
L 546.263538 -36.6125 
L 543.410184 -36.6125 
L 540.55683 -36.6125 
L 537.703476 -36.6125 
L 534.850121 -36.6125 
L 531.996767 -36.6125 
L 529.143413 -36.6125 
L 526.290058 -36.6125 
L 523.436704 -36.6125 
L 520.58335 -36.6125 
L 517.729996 -36.6125 
L 514.876641 -36.6125 
L 512.023287 -36.6125 
L 509.169933 -36.6125 
L 506.316579 -36.6125 
L 503.463224 -36.6125 
L 500.60987 -36.6125 
L 497.756516 -36.6125 
L 494.903161 -36.6125 
L 492.049807 -36.6125 
L 489.196453 -36.6125 
L 486.343099 -36.6125 
L 483.489744 -36.6125 
L 480.63639 -36.6125 
L 477.783036 -36.6125 
L 474.929682 -36.6125 
L 472.076327 -36.6125 
L 469.222973 -36.6125 
L 466.369619 -36.6125 
L 463.516264 -36.6125 
L 460.66291 -36.6125 
L 457.809556 -36.6125 
L 454.956202 -36.6125 
L 452.102847 -36.6125 
L 449.249493 -36.6125 
L 446.396139 -36.6125 
L 443.542785 -36.6125 
L 440.68943 -36.6125 
L 437.836076 -36.6125 
L 434.982722 -36.6125 
L 432.129367 -36.6125 
L 429.276013 -36.6125 
L 426.422659 -36.6125 
L 423.569305 -36.6125 
L 420.71595 -36.6125 
L 417.862596 -36.6125 
L 415.009242 -36.6125 
L 412.155888 -36.6125 
L 409.302533 -36.6125 
L 406.449179 -36.6125 
L 403.595825 -36.6125 
L 400.74247 -36.6125 
L 397.889116 -36.6125 
L 395.035762 -36.6125 
L 392.182408 -36.6125 
L 389.329053 -36.6125 
L 386.475699 -36.6125 
L 383.622345 -36.6125 
L 380.768991 -36.6125 
L 377.915636 -36.6125 
L 375.062282 -36.6125 
L 372.208928 -36.6125 
L 369.355573 -36.6125 
L 366.502219 -36.6125 
L 363.648865 -36.6125 
L 360.795511 -36.6125 
L 357.942156 -36.6125 
L 355.088802 -36.6125 
L 352.235448 -36.6125 
L 349.382094 -36.6125 
L 346.528739 -36.6125 
L 343.675385 -36.6125 
L 340.822031 -36.6125 
L 337.968677 -36.6125 
L 335.115322 -36.6125 
L 332.261968 -36.6125 
L 329.408614 -36.6125 
L 326.555259 -36.612501 
L 323.701905 -36.612502 
L 320.848551 -36.612507 
L 317.995197 -36.612519 
L 315.141842 -36.612548 
L 312.288488 -36.612617 
L 309.435134 -36.612773 
L 306.58178 -36.613108 
L 303.728425 -36.613796 
L 300.875071 -36.615138 
L 298.021717 -36.61763 
L 295.168362 -36.62203 
L 292.315008 -36.62941 
L 289.461654 -36.641167 
L 286.6083 -36.658927 
L 283.754945 -36.684334 
L 280.901591 -36.718691 
L 278.048237 -36.7625 
L 275.194883 -36.814993 
L 272.341528 -36.873815 
L 269.488174 -36.935019 
L 266.63482 -36.993489 
L 263.781465 -37.043799 
L 260.928111 -37.081348 
L 258.074757 -37.103495 
L 255.221403 -37.110342 
L 252.368048 -37.104875 
L 249.514694 -37.092369 
L 246.66134 -37.079144 
L 243.807986 -37.071044 
L 240.954631 -37.072072 
L 238.101277 -37.083636 
L 235.247923 -37.104671 
L 232.394568 -37.132659 
L 229.541214 -37.165258 
L 226.68786 -37.202014 
L 223.834506 -37.245569 
L 220.981151 -37.301797 
L 218.127797 -37.378647 
L 215.274443 -37.483798 
L 212.421089 -37.621715 
L 209.567734 -37.790997 
L 206.71438 -37.983014 
L 203.861026 -38.182588 
L 201.007671 -38.37095 
L 198.154317 -38.530448 
L 195.300963 -38.649799 
L 192.447609 -38.728265 
L 189.594254 -38.777234 
L 186.7409 -38.818349 
L 183.887546 -38.878368 
L 181.034192 -38.982093 
L 178.180837 -39.145581 
L 175.327483 -39.372085 
L 172.474129 -39.652632 
L 169.620774 -39.97187 
L 166.76742 -40.318041 
L 163.914066 -40.694238 
L 161.060712 -41.126908 
L 158.207357 -41.667526 
L 155.354003 -42.384679 
L 152.500649 -43.346365 
L 149.647295 -44.595647 
L 146.79394 -46.125902 
L 143.940586 -47.863555 
L 141.087232 -49.665566 
L 138.233878 -51.335567 
L 135.380523 -52.657172 
L 132.527169 -53.437212 
L 129.673815 -53.547629 
L 126.82046 -52.95423 
L 123.967106 -51.724037 
L 121.113752 -50.009365 
L 118.260398 -48.013824 
L 115.407043 -45.950397 
L 112.553689 -44.003066 
L 109.700335 -42.30095 
L 106.846981 -40.908964 
L 103.993626 -39.833743 
L 101.140272 -39.039773 
L 98.286918 -38.469242 
L 95.433563 -38.05997 
L 92.580209 -37.757927 
L 89.726855 -37.523346 
L 86.873501 -37.33136 
L 84.020146 -37.169131 
L 81.166792 -37.031575 
L 78.313438 -36.917317 
L 75.460084 -36.825788 
L 72.606729 -36.755685 
L 69.753375 -36.704566 
z
" style="stroke: #000000; stroke-width: 0.5"/>
    </defs>
    <g clip-path="url(#p7ec7321571)">
     <use xlink:href="#m080f74ed15" x="0" y="566.30625" style="fill: #0b559f; fill-opacity: 0.75; stroke: #000000; stroke-width: 0.5"/>
    </g>
   </g>
   <g id="PolyCollection_2">
    <defs>
     <path id="mb0bacba1c7" d="M 69.753375 -36.704567 
L 69.753375 -36.704566 
L 72.606729 -36.755685 
L 75.460084 -36.825788 
L 78.313438 -36.917317 
L 81.166792 -37.031575 
L 84.020146 -37.169131 
L 86.873501 -37.33136 
L 89.726855 -37.523346 
L 92.580209 -37.757927 
L 95.433563 -38.05997 
L 98.286918 -38.469242 
L 101.140272 -39.039773 
L 103.993626 -39.833743 
L 106.846981 -40.908964 
L 109.700335 -42.30095 
L 112.553689 -44.003066 
L 115.407043 -45.950397 
L 118.260398 -48.013824 
L 121.113752 -50.009365 
L 123.967106 -51.724037 
L 126.82046 -52.95423 
L 129.673815 -53.547629 
L 132.527169 -53.437212 
L 135.380523 -52.657172 
L 138.233878 -51.335567 
L 141.087232 -49.665566 
L 143.940586 -47.863555 
L 146.79394 -46.125902 
L 149.647295 -44.595647 
L 152.500649 -43.346365 
L 155.354003 -42.384679 
L 158.207357 -41.667526 
L 161.060712 -41.126908 
L 163.914066 -40.694238 
L 166.76742 -40.318041 
L 169.620774 -39.97187 
L 172.474129 -39.652632 
L 175.327483 -39.372085 
L 178.180837 -39.145581 
L 181.034192 -38.982093 
L 183.887546 -38.878368 
L 186.7409 -38.818349 
L 189.594254 -38.777234 
L 192.447609 -38.728265 
L 195.300963 -38.649799 
L 198.154317 -38.530448 
L 201.007671 -38.37095 
L 203.861026 -38.182588 
L 206.71438 -37.983014 
L 209.567734 -37.790997 
L 212.421089 -37.621715 
L 215.274443 -37.483798 
L 218.127797 -37.378647 
L 220.981151 -37.301797 
L 223.834506 -37.245569 
L 226.68786 -37.202014 
L 229.541214 -37.165258 
L 232.394568 -37.132659 
L 235.247923 -37.104671 
L 238.101277 -37.083636 
L 240.954631 -37.072072 
L 243.807986 -37.071044 
L 246.66134 -37.079144 
L 249.514694 -37.092369 
L 252.368048 -37.104875 
L 255.221403 -37.110342 
L 258.074757 -37.103495 
L 260.928111 -37.081348 
L 263.781465 -37.043799 
L 266.63482 -36.993489 
L 269.488174 -36.935019 
L 272.341528 -36.873815 
L 275.194883 -36.814993 
L 278.048237 -36.7625 
L 280.901591 -36.718691 
L 283.754945 -36.684334 
L 286.6083 -36.658927 
L 289.461654 -36.641167 
L 292.315008 -36.62941 
L 295.168362 -36.62203 
L 298.021717 -36.61763 
L 300.875071 -36.615138 
L 303.728425 -36.613796 
L 306.58178 -36.613108 
L 309.435134 -36.612773 
L 312.288488 -36.612617 
L 315.141842 -36.612548 
L 317.995197 -36.612519 
L 320.848551 -36.612507 
L 323.701905 -36.612502 
L 326.555259 -36.612501 
L 329.408614 -36.6125 
L 332.261968 -36.6125 
L 335.115322 -36.6125 
L 337.968677 -36.6125 
L 340.822031 -36.6125 
L 343.675385 -36.6125 
L 346.528739 -36.6125 
L 349.382094 -36.6125 
L 352.235448 -36.6125 
L 355.088802 -36.6125 
L 357.942156 -36.6125 
L 360.795511 -36.6125 
L 363.648865 -36.6125 
L 366.502219 -36.6125 
L 369.355573 -36.6125 
L 372.208928 -36.6125 
L 375.062282 -36.6125 
L 377.915636 -36.6125 
L 380.768991 -36.6125 
L 383.622345 -36.6125 
L 386.475699 -36.6125 
L 389.329053 -36.6125 
L 392.182408 -36.6125 
L 395.035762 -36.6125 
L 397.889116 -36.6125 
L 400.74247 -36.6125 
L 403.595825 -36.6125 
L 406.449179 -36.6125 
L 409.302533 -36.6125 
L 412.155888 -36.6125 
L 415.009242 -36.6125 
L 417.862596 -36.6125 
L 420.71595 -36.6125 
L 423.569305 -36.6125 
L 426.422659 -36.6125 
L 429.276013 -36.6125 
L 432.129367 -36.6125 
L 434.982722 -36.6125 
L 437.836076 -36.6125 
L 440.68943 -36.6125 
L 443.542785 -36.6125 
L 446.396139 -36.6125 
L 449.249493 -36.6125 
L 452.102847 -36.6125 
L 454.956202 -36.6125 
L 457.809556 -36.6125 
L 460.66291 -36.6125 
L 463.516264 -36.6125 
L 466.369619 -36.6125 
L 469.222973 -36.6125 
L 472.076327 -36.6125 
L 474.929682 -36.6125 
L 477.783036 -36.6125 
L 480.63639 -36.6125 
L 483.489744 -36.6125 
L 486.343099 -36.6125 
L 489.196453 -36.6125 
L 492.049807 -36.6125 
L 494.903161 -36.6125 
L 497.756516 -36.6125 
L 500.60987 -36.6125 
L 503.463224 -36.6125 
L 506.316579 -36.6125 
L 509.169933 -36.6125 
L 512.023287 -36.6125 
L 514.876641 -36.6125 
L 517.729996 -36.6125 
L 520.58335 -36.6125 
L 523.436704 -36.6125 
L 526.290058 -36.6125 
L 529.143413 -36.6125 
L 531.996767 -36.6125 
L 534.850121 -36.6125 
L 537.703476 -36.6125 
L 540.55683 -36.6125 
L 543.410184 -36.6125 
L 546.263538 -36.6125 
L 549.116893 -36.6125 
L 551.970247 -36.6125 
L 554.823601 -36.6125 
L 557.676955 -36.6125 
L 560.53031 -36.6125 
L 563.383664 -36.6125 
L 566.237018 -36.6125 
L 569.090372 -36.6125 
L 571.943727 -36.6125 
L 574.797081 -36.6125 
L 577.650435 -36.6125 
L 580.50379 -36.6125 
L 583.357144 -36.6125 
L 586.210498 -36.6125 
L 589.063852 -36.6125 
L 591.917207 -36.6125 
L 594.770561 -36.6125 
L 597.623915 -36.6125 
L 600.477269 -36.6125 
L 603.330624 -36.6125 
L 606.183978 -36.6125 
L 609.037332 -36.6125 
L 611.890687 -36.6125 
L 614.744041 -36.6125 
L 617.597395 -36.6125 
L 620.450749 -36.6125 
L 623.304104 -36.6125 
L 626.157458 -36.6125 
L 629.010812 -36.6125 
L 631.864166 -36.6125 
L 634.717521 -36.6125 
L 637.570875 -36.6125 
L 637.570875 -36.6125 
L 637.570875 -36.6125 
L 634.717521 -36.6125 
L 631.864166 -36.6125 
L 629.010812 -36.6125 
L 626.157458 -36.6125 
L 623.304104 -36.6125 
L 620.450749 -36.6125 
L 617.597395 -36.6125 
L 614.744041 -36.6125 
L 611.890687 -36.6125 
L 609.037332 -36.6125 
L 606.183978 -36.6125 
L 603.330624 -36.6125 
L 600.477269 -36.6125 
L 597.623915 -36.6125 
L 594.770561 -36.6125 
L 591.917207 -36.6125 
L 589.063852 -36.6125 
L 586.210498 -36.6125 
L 583.357144 -36.6125 
L 580.50379 -36.6125 
L 577.650435 -36.6125 
L 574.797081 -36.6125 
L 571.943727 -36.6125 
L 569.090372 -36.6125 
L 566.237018 -36.6125 
L 563.383664 -36.6125 
L 560.53031 -36.6125 
L 557.676955 -36.6125 
L 554.823601 -36.6125 
L 551.970247 -36.6125 
L 549.116893 -36.6125 
L 546.263538 -36.6125 
L 543.410184 -36.6125 
L 540.55683 -36.6125 
L 537.703476 -36.6125 
L 534.850121 -36.6125 
L 531.996767 -36.6125 
L 529.143413 -36.6125 
L 526.290058 -36.6125 
L 523.436704 -36.6125 
L 520.58335 -36.6125 
L 517.729996 -36.6125 
L 514.876641 -36.6125 
L 512.023287 -36.6125 
L 509.169933 -36.6125 
L 506.316579 -36.6125 
L 503.463224 -36.6125 
L 500.60987 -36.6125 
L 497.756516 -36.6125 
L 494.903161 -36.6125 
L 492.049807 -36.6125 
L 489.196453 -36.6125 
L 486.343099 -36.6125 
L 483.489744 -36.6125 
L 480.63639 -36.6125 
L 477.783036 -36.6125 
L 474.929682 -36.6125 
L 472.076327 -36.6125 
L 469.222973 -36.6125 
L 466.369619 -36.6125 
L 463.516264 -36.6125 
L 460.66291 -36.6125 
L 457.809556 -36.6125 
L 454.956202 -36.6125 
L 452.102847 -36.6125 
L 449.249493 -36.6125 
L 446.396139 -36.6125 
L 443.542785 -36.6125 
L 440.68943 -36.6125 
L 437.836076 -36.6125 
L 434.982722 -36.6125 
L 432.129367 -36.6125 
L 429.276013 -36.6125 
L 426.422659 -36.6125 
L 423.569305 -36.6125 
L 420.71595 -36.6125 
L 417.862596 -36.6125 
L 415.009242 -36.6125 
L 412.155888 -36.6125 
L 409.302533 -36.6125 
L 406.449179 -36.6125 
L 403.595825 -36.6125 
L 400.74247 -36.6125 
L 397.889116 -36.6125 
L 395.035762 -36.6125 
L 392.182408 -36.6125 
L 389.329053 -36.6125 
L 386.475699 -36.6125 
L 383.622345 -36.6125 
L 380.768991 -36.6125 
L 377.915636 -36.6125 
L 375.062282 -36.6125 
L 372.208928 -36.6125 
L 369.355573 -36.6125 
L 366.502219 -36.6125 
L 363.648865 -36.6125 
L 360.795511 -36.6125 
L 357.942156 -36.6125 
L 355.088802 -36.6125 
L 352.235448 -36.6125 
L 349.382094 -36.6125 
L 346.528739 -36.6125 
L 343.675385 -36.6125 
L 340.822031 -36.6125 
L 337.968677 -36.6125 
L 335.115322 -36.6125 
L 332.261968 -36.6125 
L 329.408614 -36.6125 
L 326.555259 -36.612501 
L 323.701905 -36.612502 
L 320.848551 -36.612507 
L 317.995197 -36.612519 
L 315.141842 -36.612548 
L 312.288488 -36.612617 
L 309.435134 -36.612773 
L 306.58178 -36.613108 
L 303.728425 -36.613796 
L 300.875071 -36.615138 
L 298.021717 -36.61763 
L 295.168362 -36.62203 
L 292.315008 -36.62941 
L 289.461654 -36.641167 
L 286.6083 -36.658927 
L 283.754945 -36.684334 
L 280.901591 -36.718691 
L 278.048237 -36.7625 
L 275.194883 -36.814993 
L 272.341528 -36.873815 
L 269.488174 -36.935019 
L 266.63482 -36.993489 
L 263.781465 -37.043799 
L 260.928111 -37.081348 
L 258.074757 -37.103495 
L 255.221403 -37.110343 
L 252.368048 -37.104894 
L 249.514694 -37.092608 
L 246.66134 -37.081441 
L 243.807986 -37.087464 
L 240.954631 -37.159642 
L 238.101277 -37.432099 
L 235.247923 -38.139283 
L 232.394568 -39.424665 
L 229.541214 -40.953785 
L 226.68786 -41.874437 
L 223.834506 -41.545195 
L 220.981151 -40.253955 
L 218.127797 -38.891366 
L 215.274443 -38.065414 
L 212.421089 -37.813134 
L 209.567734 -37.975272 
L 206.71438 -38.614204 
L 203.861026 -40.140736 
L 201.007671 -42.940891 
L 198.154317 -46.490722 
L 195.300963 -48.995678 
L 192.447609 -48.761122 
L 189.594254 -46.036979 
L 186.7409 -42.743296 
L 183.887546 -40.519199 
L 181.034192 -39.949936 
L 178.180837 -42.174053 
L 175.327483 -52.302992 
L 172.474129 -82.233088 
L 169.620774 -144.723869 
L 166.76742 -232.606021 
L 163.914066 -304.060148 
L 161.060712 -310.270365 
L 158.207357 -246.890039 
L 155.354003 -159.142369 
L 152.500649 -92.917495 
L 149.647295 -60.361915 
L 146.79394 -50.260803 
L 143.940586 -50.497142 
L 141.087232 -56.629674 
L 138.233878 -69.176286 
L 135.380523 -87.153509 
L 132.527169 -103.227066 
L 129.673815 -107.168361 
L 126.82046 -96.040781 
L 123.967106 -77.556631 
L 121.113752 -61.565786 
L 118.260398 -51.874103 
L 115.407043 -46.93141 
L 112.553689 -44.281715 
L 109.700335 -42.692423 
L 106.846981 -41.913482 
L 103.993626 -41.876506 
L 101.140272 -42.146627 
L 98.286918 -41.995218 
L 95.433563 -41.045738 
L 92.580209 -39.644396 
L 89.726855 -38.412671 
L 86.873501 -37.644176 
L 84.020146 -37.251229 
L 81.166792 -37.047651 
L 78.313438 -36.919666 
L 75.460084 -36.826044 
L 72.606729 -36.755705 
L 69.753375 -36.704567 
z
" style="stroke: #000000; stroke-width: 0.5"/>
    </defs>
    <g clip-path="url(#p7ec7321571)">
     <use xlink:href="#mb0bacba1c7" x="0" y="566.30625" style="fill: #2b7bba; fill-opacity: 0.75; stroke: #000000; stroke-width: 0.5"/>
    </g>
   </g>
   <g id="PolyCollection_3">
    <defs>
     <path id="m8e72aaa270" d="M 69.753375 -39.249224 
L 69.753375 -36.704567 
L 72.606729 -36.755705 
L 75.460084 -36.826044 
L 78.313438 -36.919666 
L 81.166792 -37.047651 
L 84.020146 -37.251229 
L 86.873501 -37.644176 
L 89.726855 -38.412671 
L 92.580209 -39.644396 
L 95.433563 -41.045738 
L 98.286918 -41.995218 
L 101.140272 -42.146627 
L 103.993626 -41.876506 
L 106.846981 -41.913482 
L 109.700335 -42.692423 
L 112.553689 -44.281715 
L 115.407043 -46.93141 
L 118.260398 -51.874103 
L 121.113752 -61.565786 
L 123.967106 -77.556631 
L 126.82046 -96.040781 
L 129.673815 -107.168361 
L 132.527169 -103.227066 
L 135.380523 -87.153509 
L 138.233878 -69.176286 
L 141.087232 -56.629674 
L 143.940586 -50.497142 
L 146.79394 -50.260803 
L 149.647295 -60.361915 
L 152.500649 -92.917495 
L 155.354003 -159.142369 
L 158.207357 -246.890039 
L 161.060712 -310.270365 
L 163.914066 -304.060148 
L 166.76742 -232.606021 
L 169.620774 -144.723869 
L 172.474129 -82.233088 
L 175.327483 -52.302992 
L 178.180837 -42.174053 
L 181.034192 -39.949936 
L 183.887546 -40.519199 
L 186.7409 -42.743296 
L 189.594254 -46.036979 
L 192.447609 -48.761122 
L 195.300963 -48.995678 
L 198.154317 -46.490722 
L 201.007671 -42.940891 
L 203.861026 -40.140736 
L 206.71438 -38.614204 
L 209.567734 -37.975272 
L 212.421089 -37.813134 
L 215.274443 -38.065414 
L 218.127797 -38.891366 
L 220.981151 -40.253955 
L 223.834506 -41.545195 
L 226.68786 -41.874437 
L 229.541214 -40.953785 
L 232.394568 -39.424665 
L 235.247923 -38.139283 
L 238.101277 -37.432099 
L 240.954631 -37.159642 
L 243.807986 -37.087464 
L 246.66134 -37.081441 
L 249.514694 -37.092608 
L 252.368048 -37.104894 
L 255.221403 -37.110343 
L 258.074757 -37.103495 
L 260.928111 -37.081348 
L 263.781465 -37.043799 
L 266.63482 -36.993489 
L 269.488174 -36.935019 
L 272.341528 -36.873815 
L 275.194883 -36.814993 
L 278.048237 -36.7625 
L 280.901591 -36.718691 
L 283.754945 -36.684334 
L 286.6083 -36.658927 
L 289.461654 -36.641167 
L 292.315008 -36.62941 
L 295.168362 -36.62203 
L 298.021717 -36.61763 
L 300.875071 -36.615138 
L 303.728425 -36.613796 
L 306.58178 -36.613108 
L 309.435134 -36.612773 
L 312.288488 -36.612617 
L 315.141842 -36.612548 
L 317.995197 -36.612519 
L 320.848551 -36.612507 
L 323.701905 -36.612502 
L 326.555259 -36.612501 
L 329.408614 -36.6125 
L 332.261968 -36.6125 
L 335.115322 -36.6125 
L 337.968677 -36.6125 
L 340.822031 -36.6125 
L 343.675385 -36.6125 
L 346.528739 -36.6125 
L 349.382094 -36.6125 
L 352.235448 -36.6125 
L 355.088802 -36.6125 
L 357.942156 -36.6125 
L 360.795511 -36.6125 
L 363.648865 -36.6125 
L 366.502219 -36.6125 
L 369.355573 -36.6125 
L 372.208928 -36.6125 
L 375.062282 -36.6125 
L 377.915636 -36.6125 
L 380.768991 -36.6125 
L 383.622345 -36.6125 
L 386.475699 -36.6125 
L 389.329053 -36.6125 
L 392.182408 -36.6125 
L 395.035762 -36.6125 
L 397.889116 -36.6125 
L 400.74247 -36.6125 
L 403.595825 -36.6125 
L 406.449179 -36.6125 
L 409.302533 -36.6125 
L 412.155888 -36.6125 
L 415.009242 -36.6125 
L 417.862596 -36.6125 
L 420.71595 -36.6125 
L 423.569305 -36.6125 
L 426.422659 -36.6125 
L 429.276013 -36.6125 
L 432.129367 -36.6125 
L 434.982722 -36.6125 
L 437.836076 -36.6125 
L 440.68943 -36.6125 
L 443.542785 -36.6125 
L 446.396139 -36.6125 
L 449.249493 -36.6125 
L 452.102847 -36.6125 
L 454.956202 -36.6125 
L 457.809556 -36.6125 
L 460.66291 -36.6125 
L 463.516264 -36.6125 
L 466.369619 -36.6125 
L 469.222973 -36.6125 
L 472.076327 -36.6125 
L 474.929682 -36.6125 
L 477.783036 -36.6125 
L 480.63639 -36.6125 
L 483.489744 -36.6125 
L 486.343099 -36.6125 
L 489.196453 -36.6125 
L 492.049807 -36.6125 
L 494.903161 -36.6125 
L 497.756516 -36.6125 
L 500.60987 -36.6125 
L 503.463224 -36.6125 
L 506.316579 -36.6125 
L 509.169933 -36.6125 
L 512.023287 -36.6125 
L 514.876641 -36.6125 
L 517.729996 -36.6125 
L 520.58335 -36.6125 
L 523.436704 -36.6125 
L 526.290058 -36.6125 
L 529.143413 -36.6125 
L 531.996767 -36.6125 
L 534.850121 -36.6125 
L 537.703476 -36.6125 
L 540.55683 -36.6125 
L 543.410184 -36.6125 
L 546.263538 -36.6125 
L 549.116893 -36.6125 
L 551.970247 -36.6125 
L 554.823601 -36.6125 
L 557.676955 -36.6125 
L 560.53031 -36.6125 
L 563.383664 -36.6125 
L 566.237018 -36.6125 
L 569.090372 -36.6125 
L 571.943727 -36.6125 
L 574.797081 -36.6125 
L 577.650435 -36.6125 
L 580.50379 -36.6125 
L 583.357144 -36.6125 
L 586.210498 -36.6125 
L 589.063852 -36.6125 
L 591.917207 -36.6125 
L 594.770561 -36.6125 
L 597.623915 -36.6125 
L 600.477269 -36.6125 
L 603.330624 -36.6125 
L 606.183978 -36.6125 
L 609.037332 -36.6125 
L 611.890687 -36.6125 
L 614.744041 -36.6125 
L 617.597395 -36.6125 
L 620.450749 -36.6125 
L 623.304104 -36.6125 
L 626.157458 -36.6125 
L 629.010812 -36.6125 
L 631.864166 -36.6125 
L 634.717521 -36.6125 
L 637.570875 -36.6125 
L 637.570875 -36.713894 
L 637.570875 -36.713894 
L 634.717521 -36.739404 
L 631.864166 -36.76765 
L 629.010812 -36.797789 
L 626.157458 -36.828657 
L 623.304104 -36.85883 
L 620.450749 -36.886724 
L 617.597395 -36.910727 
L 614.744041 -36.929364 
L 611.890687 -36.941451 
L 609.037332 -36.946234 
L 606.183978 -36.943493 
L 603.330624 -36.933579 
L 600.477269 -36.917402 
L 597.623915 -36.896355 
L 594.770561 -36.872189 
L 591.917207 -36.846864 
L 589.063852 -36.822384 
L 586.210498 -36.800644 
L 583.357144 -36.783288 
L 580.50379 -36.771608 
L 577.650435 -36.766459 
L 574.797081 -36.768216 
L 571.943727 -36.776752 
L 569.090372 -36.791446 
L 566.237018 -36.811218 
L 563.383664 -36.834589 
L 560.53031 -36.859781 
L 557.676955 -36.884841 
L 554.823601 -36.90779 
L 551.970247 -36.926793 
L 549.116893 -36.940326 
L 546.263538 -36.947325 
L 543.410184 -36.947304 
L 540.55683 -36.940414 
L 537.703476 -36.92745 
L 534.850121 -36.909801 
L 531.996767 -36.889338 
L 529.143413 -36.868276 
L 526.290058 -36.849002 
L 523.436704 -36.833909 
L 520.58335 -36.825219 
L 517.729996 -36.824836 
L 514.876641 -36.834211 
L 512.023287 -36.854228 
L 509.169933 -36.885124 
L 506.316579 -36.926446 
L 503.463224 -36.977048 
L 500.60987 -37.035148 
L 497.756516 -37.098452 
L 494.903161 -37.164335 
L 492.049807 -37.230076 
L 489.196453 -37.293133 
L 486.343099 -37.351405 
L 483.489744 -37.403461 
L 480.63639 -37.448697 
L 477.783036 -37.487399 
L 474.929682 -37.520707 
L 472.076327 -37.550482 
L 469.222973 -37.579131 
L 466.369619 -37.609386 
L 463.516264 -37.644114 
L 460.66291 -37.68614 
L 457.809556 -37.738113 
L 454.956202 -37.802376 
L 452.102847 -37.880829 
L 449.249493 -37.974742 
L 446.396139 -38.084515 
L 443.542785 -38.209389 
L 440.68943 -38.347158 
L 437.836076 -38.493952 
L 434.982722 -38.644168 
L 432.129367 -38.790637 
L 429.276013 -38.925037 
L 426.422659 -39.038579 
L 423.569305 -39.122857 
L 420.71595 -39.170786 
L 417.862596 -39.177443 
L 415.009242 -39.140693 
L 412.155888 -39.061485 
L 409.302533 -38.943744 
L 406.449179 -38.793907 
L 403.595825 -38.62015 
L 400.74247 -38.431468 
L 397.889116 -38.236732 
L 395.035762 -38.04388 
L 392.182408 -37.85934 
L 389.329053 -37.687728 
L 386.475699 -37.531826 
L 383.622345 -37.392788 
L 380.768991 -37.270494 
L 377.915636 -37.163955 
L 375.062282 -37.071715 
L 372.208928 -36.992163 
L 369.355573 -36.92376 
L 366.502219 -36.865151 
L 363.648865 -36.8152 
L 360.795511 -36.772961 
L 357.942156 -36.737629 
L 355.088802 -36.708478 
L 352.235448 -36.684817 
L 349.382094 -36.665967 
L 346.528739 -36.651252 
L 343.675385 -36.640014 
L 340.822031 -36.631625 
L 337.968677 -36.625508 
L 335.115322 -36.621154 
L 332.261968 -36.61813 
L 329.408614 -36.616081 
L 326.555259 -36.614727 
L 323.701905 -36.613855 
L 320.848551 -36.61331 
L 317.995197 -36.612984 
L 315.141842 -36.612812 
L 312.288488 -36.612763 
L 309.435134 -36.612852 
L 306.58178 -36.61315 
L 303.728425 -36.613818 
L 300.875071 -36.615149 
L 298.021717 -36.617636 
L 295.168362 -36.622033 
L 292.315008 -36.629413 
L 289.461654 -36.64117 
L 286.6083 -36.658933 
L 283.754945 -36.684347 
L 280.901591 -36.718718 
L 278.048237 -36.762553 
L 275.194883 -36.815098 
L 272.341528 -36.874018 
L 269.488174 -36.935401 
L 266.63482 -36.994192 
L 263.781465 -37.045065 
L 260.928111 -37.083579 
L 258.074757 -37.107342 
L 255.221403 -37.116837 
L 252.368048 -37.115634 
L 249.514694 -37.110024 
L 246.66134 -37.109153 
L 243.807986 -37.130785 
L 240.954631 -37.226263 
L 238.101277 -37.533038 
L 235.247923 -38.290206 
L 232.394568 -39.647736 
L 229.541214 -41.280268 
L 226.68786 -42.348303 
L 223.834506 -42.22807 
L 220.981151 -41.2317 
L 218.127797 -40.282527 
L 215.274443 -40.031564 
L 212.421089 -40.570784 
L 209.567734 -41.808527 
L 206.71438 -43.886706 
L 203.861026 -47.304768 
L 201.007671 -52.540967 
L 198.154317 -59.158691 
L 195.300963 -65.4346 
L 192.447609 -69.716005 
L 189.594254 -72.252031 
L 186.7409 -74.907462 
L 183.887546 -79.204214 
L 181.034192 -85.547406 
L 178.180837 -94.839724 
L 175.327483 -111.916746 
L 172.474129 -148.382129 
L 169.620774 -216.713799 
L 166.76742 -309.500569 
L 163.914066 -384.745734 
L 161.060712 -393.537426 
L 158.207357 -331.520062 
L 155.354003 -243.98852 
L 152.500649 -176.968022 
L 149.647295 -142.778808 
L 146.79394 -130.390973 
L 143.940586 -127.858449 
L 141.087232 -130.878499 
L 138.233878 -140.066032 
L 135.380523 -154.493941 
L 132.527169 -166.852788 
L 129.673815 -166.921541 
L 126.82046 -151.769284 
L 123.967106 -129.125036 
L 121.113752 -108.874128 
L 118.260398 -94.878057 
L 115.407043 -85.658137 
L 112.553689 -78.837326 
L 109.700335 -73.259434 
L 106.846981 -68.739064 
L 103.993626 -65.254215 
L 101.140272 -62.395268 
L 98.286918 -59.438546 
L 95.433563 -55.995876 
L 92.580209 -52.390652 
L 89.726855 -49.21606 
L 86.873501 -46.736857 
L 84.020146 -44.83934 
L 81.166792 -43.315822 
L 78.313438 -42.035677 
L 75.460084 -40.944543 
L 72.606729 -40.020458 
L 69.753375 -39.249224 
z
" style="stroke: #000000; stroke-width: 0.5"/>
    </defs>
    <g clip-path="url(#p7ec7321571)">
     <use xlink:href="#m8e72aaa270" x="0" y="566.30625" style="fill: #539ecd; fill-opacity: 0.75; stroke: #000000; stroke-width: 0.5"/>
    </g>
   </g>
   <g id="PolyCollection_4">
    <defs>
     <path id="m486069e4ca" d="M 69.753375 -39.322186 
L 69.753375 -39.249224 
L 72.606729 -40.020458 
L 75.460084 -40.944543 
L 78.313438 -42.035677 
L 81.166792 -43.315822 
L 84.020146 -44.83934 
L 86.873501 -46.736857 
L 89.726855 -49.21606 
L 92.580209 -52.390652 
L 95.433563 -55.995876 
L 98.286918 -59.438546 
L 101.140272 -62.395268 
L 103.993626 -65.254215 
L 106.846981 -68.739064 
L 109.700335 -73.259434 
L 112.553689 -78.837326 
L 115.407043 -85.658137 
L 118.260398 -94.878057 
L 121.113752 -108.874128 
L 123.967106 -129.125036 
L 126.82046 -151.769284 
L 129.673815 -166.921541 
L 132.527169 -166.852788 
L 135.380523 -154.493941 
L 138.233878 -140.066032 
L 141.087232 -130.878499 
L 143.940586 -127.858449 
L 146.79394 -130.390973 
L 149.647295 -142.778808 
L 152.500649 -176.968022 
L 155.354003 -243.98852 
L 158.207357 -331.520062 
L 161.060712 -393.537426 
L 163.914066 -384.745734 
L 166.76742 -309.500569 
L 169.620774 -216.713799 
L 172.474129 -148.382129 
L 175.327483 -111.916746 
L 178.180837 -94.839724 
L 181.034192 -85.547406 
L 183.887546 -79.204214 
L 186.7409 -74.907462 
L 189.594254 -72.252031 
L 192.447609 -69.716005 
L 195.300963 -65.4346 
L 198.154317 -59.158691 
L 201.007671 -52.540967 
L 203.861026 -47.304768 
L 206.71438 -43.886706 
L 209.567734 -41.808527 
L 212.421089 -40.570784 
L 215.274443 -40.031564 
L 218.127797 -40.282527 
L 220.981151 -41.2317 
L 223.834506 -42.22807 
L 226.68786 -42.348303 
L 229.541214 -41.280268 
L 232.394568 -39.647736 
L 235.247923 -38.290206 
L 238.101277 -37.533038 
L 240.954631 -37.226263 
L 243.807986 -37.130785 
L 246.66134 -37.109153 
L 249.514694 -37.110024 
L 252.368048 -37.115634 
L 255.221403 -37.116837 
L 258.074757 -37.107342 
L 260.928111 -37.083579 
L 263.781465 -37.045065 
L 266.63482 -36.994192 
L 269.488174 -36.935401 
L 272.341528 -36.874018 
L 275.194883 -36.815098 
L 278.048237 -36.762553 
L 280.901591 -36.718718 
L 283.754945 -36.684347 
L 286.6083 -36.658933 
L 289.461654 -36.64117 
L 292.315008 -36.629413 
L 295.168362 -36.622033 
L 298.021717 -36.617636 
L 300.875071 -36.615149 
L 303.728425 -36.613818 
L 306.58178 -36.61315 
L 309.435134 -36.612852 
L 312.288488 -36.612763 
L 315.141842 -36.612812 
L 317.995197 -36.612984 
L 320.848551 -36.61331 
L 323.701905 -36.613855 
L 326.555259 -36.614727 
L 329.408614 -36.616081 
L 332.261968 -36.61813 
L 335.115322 -36.621154 
L 337.968677 -36.625508 
L 340.822031 -36.631625 
L 343.675385 -36.640014 
L 346.528739 -36.651252 
L 349.382094 -36.665967 
L 352.235448 -36.684817 
L 355.088802 -36.708478 
L 357.942156 -36.737629 
L 360.795511 -36.772961 
L 363.648865 -36.8152 
L 366.502219 -36.865151 
L 369.355573 -36.92376 
L 372.208928 -36.992163 
L 375.062282 -37.071715 
L 377.915636 -37.163955 
L 380.768991 -37.270494 
L 383.622345 -37.392788 
L 386.475699 -37.531826 
L 389.329053 -37.687728 
L 392.182408 -37.85934 
L 395.035762 -38.04388 
L 397.889116 -38.236732 
L 400.74247 -38.431468 
L 403.595825 -38.62015 
L 406.449179 -38.793907 
L 409.302533 -38.943744 
L 412.155888 -39.061485 
L 415.009242 -39.140693 
L 417.862596 -39.177443 
L 420.71595 -39.170786 
L 423.569305 -39.122857 
L 426.422659 -39.038579 
L 429.276013 -38.925037 
L 432.129367 -38.790637 
L 434.982722 -38.644168 
L 437.836076 -38.493952 
L 440.68943 -38.347158 
L 443.542785 -38.209389 
L 446.396139 -38.084515 
L 449.249493 -37.974742 
L 452.102847 -37.880829 
L 454.956202 -37.802376 
L 457.809556 -37.738113 
L 460.66291 -37.68614 
L 463.516264 -37.644114 
L 466.369619 -37.609386 
L 469.222973 -37.579131 
L 472.076327 -37.550482 
L 474.929682 -37.520707 
L 477.783036 -37.487399 
L 480.63639 -37.448697 
L 483.489744 -37.403461 
L 486.343099 -37.351405 
L 489.196453 -37.293133 
L 492.049807 -37.230076 
L 494.903161 -37.164335 
L 497.756516 -37.098452 
L 500.60987 -37.035148 
L 503.463224 -36.977048 
L 506.316579 -36.926446 
L 509.169933 -36.885124 
L 512.023287 -36.854228 
L 514.876641 -36.834211 
L 517.729996 -36.824836 
L 520.58335 -36.825219 
L 523.436704 -36.833909 
L 526.290058 -36.849002 
L 529.143413 -36.868276 
L 531.996767 -36.889338 
L 534.850121 -36.909801 
L 537.703476 -36.92745 
L 540.55683 -36.940414 
L 543.410184 -36.947304 
L 546.263538 -36.947325 
L 549.116893 -36.940326 
L 551.970247 -36.926793 
L 554.823601 -36.90779 
L 557.676955 -36.884841 
L 560.53031 -36.859781 
L 563.383664 -36.834589 
L 566.237018 -36.811218 
L 569.090372 -36.791446 
L 571.943727 -36.776752 
L 574.797081 -36.768216 
L 577.650435 -36.766459 
L 580.50379 -36.771608 
L 583.357144 -36.783288 
L 586.210498 -36.800644 
L 589.063852 -36.822384 
L 591.917207 -36.846864 
L 594.770561 -36.872189 
L 597.623915 -36.896355 
L 600.477269 -36.917402 
L 603.330624 -36.933579 
L 606.183978 -36.943493 
L 609.037332 -36.946234 
L 611.890687 -36.941451 
L 614.744041 -36.929364 
L 617.597395 -36.910727 
L 620.450749 -36.886724 
L 623.304104 -36.85883 
L 626.157458 -36.828657 
L 629.010812 -36.797789 
L 631.864166 -36.76765 
L 634.717521 -36.739404 
L 637.570875 -36.713894 
L 637.570875 -36.713894 
L 637.570875 -36.713894 
L 634.717521 -36.739404 
L 631.864166 -36.76765 
L 629.010812 -36.797789 
L 626.157458 -36.828657 
L 623.304104 -36.85883 
L 620.450749 -36.886724 
L 617.597395 -36.910727 
L 614.744041 -36.929364 
L 611.890687 -36.941451 
L 609.037332 -36.946234 
L 606.183978 -36.943493 
L 603.330624 -36.933579 
L 600.477269 -36.917402 
L 597.623915 -36.896355 
L 594.770561 -36.872189 
L 591.917207 -36.846864 
L 589.063852 -36.822384 
L 586.210498 -36.800644 
L 583.357144 -36.783288 
L 580.50379 -36.771608 
L 577.650435 -36.766459 
L 574.797081 -36.768216 
L 571.943727 -36.776752 
L 569.090372 -36.791446 
L 566.237018 -36.811218 
L 563.383664 -36.834589 
L 560.53031 -36.859781 
L 557.676955 -36.884841 
L 554.823601 -36.90779 
L 551.970247 -36.926793 
L 549.116893 -36.940326 
L 546.263538 -36.947325 
L 543.410184 -36.947304 
L 540.55683 -36.940414 
L 537.703476 -36.92745 
L 534.850121 -36.909801 
L 531.996767 -36.889338 
L 529.143413 -36.868276 
L 526.290058 -36.849002 
L 523.436704 -36.833909 
L 520.58335 -36.825219 
L 517.729996 -36.824836 
L 514.876641 -36.834211 
L 512.023287 -36.854228 
L 509.169933 -36.885124 
L 506.316579 -36.926446 
L 503.463224 -36.977048 
L 500.60987 -37.035148 
L 497.756516 -37.098452 
L 494.903161 -37.164335 
L 492.049807 -37.230076 
L 489.196453 -37.293133 
L 486.343099 -37.351405 
L 483.489744 -37.403461 
L 480.63639 -37.448697 
L 477.783036 -37.487399 
L 474.929682 -37.520707 
L 472.076327 -37.550482 
L 469.222973 -37.579131 
L 466.369619 -37.609386 
L 463.516264 -37.644114 
L 460.66291 -37.68614 
L 457.809556 -37.738113 
L 454.956202 -37.802376 
L 452.102847 -37.880829 
L 449.249493 -37.974742 
L 446.396139 -38.084515 
L 443.542785 -38.209389 
L 440.68943 -38.347158 
L 437.836076 -38.493952 
L 434.982722 -38.644168 
L 432.129367 -38.790637 
L 429.276013 -38.925037 
L 426.422659 -39.038579 
L 423.569305 -39.122857 
L 420.71595 -39.170786 
L 417.862596 -39.177443 
L 415.009242 -39.140693 
L 412.155888 -39.061485 
L 409.302533 -38.943744 
L 406.449179 -38.793907 
L 403.595825 -38.62015 
L 400.74247 -38.431468 
L 397.889116 -38.236732 
L 395.035762 -38.04388 
L 392.182408 -37.85934 
L 389.329053 -37.687728 
L 386.475699 -37.531826 
L 383.622345 -37.392788 
L 380.768991 -37.270494 
L 377.915636 -37.163955 
L 375.062282 -37.071715 
L 372.208928 -36.992163 
L 369.355573 -36.92376 
L 366.502219 -36.865151 
L 363.648865 -36.8152 
L 360.795511 -36.772961 
L 357.942156 -36.737629 
L 355.088802 -36.708478 
L 352.235448 -36.684817 
L 349.382094 -36.665967 
L 346.528739 -36.651252 
L 343.675385 -36.640014 
L 340.822031 -36.631625 
L 337.968677 -36.625508 
L 335.115322 -36.621154 
L 332.261968 -36.61813 
L 329.408614 -36.616081 
L 326.555259 -36.614727 
L 323.701905 -36.613855 
L 320.848551 -36.61331 
L 317.995197 -36.612984 
L 315.141842 -36.612812 
L 312.288488 -36.612763 
L 309.435134 -36.612852 
L 306.58178 -36.61315 
L 303.728425 -36.613818 
L 300.875071 -36.615149 
L 298.021717 -36.617636 
L 295.168362 -36.622033 
L 292.315008 -36.629413 
L 289.461654 -36.641171 
L 286.6083 -36.658933 
L 283.754945 -36.684347 
L 280.901591 -36.718719 
L 278.048237 -36.76256 
L 275.194883 -36.815125 
L 272.341528 -36.874114 
L 269.488174 -36.935724 
L 266.63482 -36.995197 
L 263.781465 -37.047954 
L 260.928111 -37.091274 
L 258.074757 -37.126318 
L 255.221403 -37.160159 
L 252.368048 -37.207207 
L 249.514694 -37.289234 
L 246.66134 -37.433871 
L 243.807986 -37.675541 
L 240.954631 -38.072429 
L 238.101277 -38.750023 
L 235.247923 -39.911021 
L 232.394568 -41.647143 
L 229.541214 -43.565999 
L 226.68786 -44.773032 
L 223.834506 -44.622038 
L 220.981151 -43.446726 
L 218.127797 -42.232469 
L 215.274443 -41.71518 
L 212.421089 -42.069493 
L 209.567734 -43.260192 
L 206.71438 -45.443579 
L 203.861026 -49.087644 
L 201.007671 -54.602529 
L 198.154317 -61.467261 
L 195.300963 -67.884585 
L 192.447609 -72.163455 
L 189.594254 -74.565102 
L 186.7409 -77.015763 
L 183.887546 -81.130876 
L 181.034192 -87.413093 
L 178.180837 -96.836117 
L 175.327483 -114.255665 
L 172.474129 -151.233985 
L 169.620774 -220.155058 
L 166.76742 -313.492694 
L 163.914066 -389.164925 
L 161.060712 -398.263366 
L 158.207357 -336.57403 
L 155.354003 -249.690458 
L 152.500649 -184.063027 
L 149.647295 -152.470995 
L 146.79394 -144.22488 
L 143.940586 -147.417098 
L 141.087232 -157.330381 
L 138.233878 -173.677926 
L 135.380523 -194.291585 
L 132.527169 -210.604717 
L 129.673815 -211.518092 
L 126.82046 -193.904101 
L 123.967106 -166.045965 
L 121.113752 -138.93706 
L 118.260398 -117.731472 
L 115.407043 -102.05092 
L 112.553689 -90.185076 
L 109.700335 -81.159572 
L 106.846981 -74.589261 
L 103.993626 -70.046102 
L 101.140272 -66.677626 
L 98.286918 -63.398967 
L 95.433563 -59.597889 
L 92.580209 -55.51211 
L 89.726855 -51.752757 
L 86.873501 -48.656084 
L 84.020146 -46.18692 
L 81.166792 -44.192747 
L 78.313438 -42.564244 
L 75.460084 -41.239569 
L 72.606729 -40.172933 
L 69.753375 -39.322186 
z
" style="stroke: #000000; stroke-width: 0.5"/>
    </defs>
    <g clip-path="url(#p7ec7321571)">
     <use xlink:href="#m486069e4ca" x="0" y="566.30625" style="fill: #89bedc; fill-opacity: 0.75; stroke: #000000; stroke-width: 0.5"/>
    </g>
   </g>
   <g id="PolyCollection_5">
    <defs>
     <path id="m7ca040f7b8" d="M 69.753375 -39.517116 
L 69.753375 -39.322186 
L 72.606729 -40.172933 
L 75.460084 -41.239569 
L 78.313438 -42.564244 
L 81.166792 -44.192747 
L 84.020146 -46.18692 
L 86.873501 -48.656084 
L 89.726855 -51.752757 
L 92.580209 -55.51211 
L 95.433563 -59.597889 
L 98.286918 -63.398967 
L 101.140272 -66.677626 
L 103.993626 -70.046102 
L 106.846981 -74.589261 
L 109.700335 -81.159572 
L 112.553689 -90.185076 
L 115.407043 -102.05092 
L 118.260398 -117.731472 
L 121.113752 -138.93706 
L 123.967106 -166.045965 
L 126.82046 -193.904101 
L 129.673815 -211.518092 
L 132.527169 -210.604717 
L 135.380523 -194.291585 
L 138.233878 -173.677926 
L 141.087232 -157.330381 
L 143.940586 -147.417098 
L 146.79394 -144.22488 
L 149.647295 -152.470995 
L 152.500649 -184.063027 
L 155.354003 -249.690458 
L 158.207357 -336.57403 
L 161.060712 -398.263366 
L 163.914066 -389.164925 
L 166.76742 -313.492694 
L 169.620774 -220.155058 
L 172.474129 -151.233985 
L 175.327483 -114.255665 
L 178.180837 -96.836117 
L 181.034192 -87.413093 
L 183.887546 -81.130876 
L 186.7409 -77.015763 
L 189.594254 -74.565102 
L 192.447609 -72.163455 
L 195.300963 -67.884585 
L 198.154317 -61.467261 
L 201.007671 -54.602529 
L 203.861026 -49.087644 
L 206.71438 -45.443579 
L 209.567734 -43.260192 
L 212.421089 -42.069493 
L 215.274443 -41.71518 
L 218.127797 -42.232469 
L 220.981151 -43.446726 
L 223.834506 -44.622038 
L 226.68786 -44.773032 
L 229.541214 -43.565999 
L 232.394568 -41.647143 
L 235.247923 -39.911021 
L 238.101277 -38.750023 
L 240.954631 -38.072429 
L 243.807986 -37.675541 
L 246.66134 -37.433871 
L 249.514694 -37.289234 
L 252.368048 -37.207207 
L 255.221403 -37.160159 
L 258.074757 -37.126318 
L 260.928111 -37.091274 
L 263.781465 -37.047954 
L 266.63482 -36.995197 
L 269.488174 -36.935724 
L 272.341528 -36.874114 
L 275.194883 -36.815125 
L 278.048237 -36.76256 
L 280.901591 -36.718719 
L 283.754945 -36.684347 
L 286.6083 -36.658933 
L 289.461654 -36.641171 
L 292.315008 -36.629413 
L 295.168362 -36.622033 
L 298.021717 -36.617636 
L 300.875071 -36.615149 
L 303.728425 -36.613818 
L 306.58178 -36.61315 
L 309.435134 -36.612852 
L 312.288488 -36.612763 
L 315.141842 -36.612812 
L 317.995197 -36.612984 
L 320.848551 -36.61331 
L 323.701905 -36.613855 
L 326.555259 -36.614727 
L 329.408614 -36.616081 
L 332.261968 -36.61813 
L 335.115322 -36.621154 
L 337.968677 -36.625508 
L 340.822031 -36.631625 
L 343.675385 -36.640014 
L 346.528739 -36.651252 
L 349.382094 -36.665967 
L 352.235448 -36.684817 
L 355.088802 -36.708478 
L 357.942156 -36.737629 
L 360.795511 -36.772961 
L 363.648865 -36.8152 
L 366.502219 -36.865151 
L 369.355573 -36.92376 
L 372.208928 -36.992163 
L 375.062282 -37.071715 
L 377.915636 -37.163955 
L 380.768991 -37.270494 
L 383.622345 -37.392788 
L 386.475699 -37.531826 
L 389.329053 -37.687728 
L 392.182408 -37.85934 
L 395.035762 -38.04388 
L 397.889116 -38.236732 
L 400.74247 -38.431468 
L 403.595825 -38.62015 
L 406.449179 -38.793907 
L 409.302533 -38.943744 
L 412.155888 -39.061485 
L 415.009242 -39.140693 
L 417.862596 -39.177443 
L 420.71595 -39.170786 
L 423.569305 -39.122857 
L 426.422659 -39.038579 
L 429.276013 -38.925037 
L 432.129367 -38.790637 
L 434.982722 -38.644168 
L 437.836076 -38.493952 
L 440.68943 -38.347158 
L 443.542785 -38.209389 
L 446.396139 -38.084515 
L 449.249493 -37.974742 
L 452.102847 -37.880829 
L 454.956202 -37.802376 
L 457.809556 -37.738113 
L 460.66291 -37.68614 
L 463.516264 -37.644114 
L 466.369619 -37.609386 
L 469.222973 -37.579131 
L 472.076327 -37.550482 
L 474.929682 -37.520707 
L 477.783036 -37.487399 
L 480.63639 -37.448697 
L 483.489744 -37.403461 
L 486.343099 -37.351405 
L 489.196453 -37.293133 
L 492.049807 -37.230076 
L 494.903161 -37.164335 
L 497.756516 -37.098452 
L 500.60987 -37.035148 
L 503.463224 -36.977048 
L 506.316579 -36.926446 
L 509.169933 -36.885124 
L 512.023287 -36.854228 
L 514.876641 -36.834211 
L 517.729996 -36.824836 
L 520.58335 -36.825219 
L 523.436704 -36.833909 
L 526.290058 -36.849002 
L 529.143413 -36.868276 
L 531.996767 -36.889338 
L 534.850121 -36.909801 
L 537.703476 -36.92745 
L 540.55683 -36.940414 
L 543.410184 -36.947304 
L 546.263538 -36.947325 
L 549.116893 -36.940326 
L 551.970247 -36.926793 
L 554.823601 -36.90779 
L 557.676955 -36.884841 
L 560.53031 -36.859781 
L 563.383664 -36.834589 
L 566.237018 -36.811218 
L 569.090372 -36.791446 
L 571.943727 -36.776752 
L 574.797081 -36.768216 
L 577.650435 -36.766459 
L 580.50379 -36.771608 
L 583.357144 -36.783288 
L 586.210498 -36.800644 
L 589.063852 -36.822384 
L 591.917207 -36.846864 
L 594.770561 -36.872189 
L 597.623915 -36.896355 
L 600.477269 -36.917402 
L 603.330624 -36.933579 
L 606.183978 -36.943493 
L 609.037332 -36.946234 
L 611.890687 -36.941451 
L 614.744041 -36.929364 
L 617.597395 -36.910727 
L 620.450749 -36.886724 
L 623.304104 -36.85883 
L 626.157458 -36.828657 
L 629.010812 -36.797789 
L 631.864166 -36.76765 
L 634.717521 -36.739404 
L 637.570875 -36.713894 
L 637.570875 -36.726889 
L 637.570875 -36.726889 
L 634.717521 -36.766172 
L 631.864166 -36.818777 
L 629.010812 -36.888339 
L 626.157458 -36.977361 
L 623.304104 -37.085273 
L 620.450749 -37.206459 
L 617.597395 -37.329349 
L 614.744041 -37.437585 
L 611.890687 -37.513562 
L 609.037332 -37.543417 
L 606.183978 -37.521499 
L 603.330624 -37.452327 
L 600.477269 -37.349099 
L 597.623915 -37.229474 
L 594.770561 -37.110541 
L 591.917207 -37.005002 
L 589.063852 -36.919671 
L 586.210498 -36.856141 
L 583.357144 -36.812643 
L 580.50379 -36.786005 
L 577.650435 -36.773007 
L 574.797081 -36.770977 
L 571.943727 -36.777832 
L 569.090372 -36.791838 
L 566.237018 -36.811351 
L 563.383664 -36.834635 
L 560.53031 -36.859811 
L 557.676955 -36.884905 
L 554.823601 -36.90798 
L 551.970247 -36.927343 
L 549.116893 -36.941806 
L 546.263538 -36.951019 
L 543.410184 -36.955849 
L 540.55683 -36.958743 
L 537.703476 -36.963909 
L 534.850121 -36.977045 
L 531.996767 -37.004339 
L 529.143413 -37.050645 
L 526.290058 -37.117167 
L 523.436704 -37.199544 
L 520.58335 -37.287487 
L 517.729996 -37.36676 
L 514.876641 -37.423301 
L 512.023287 -37.448004 
L 509.169933 -37.440085 
L 506.316579 -37.407397 
L 503.463224 -37.363537 
L 500.60987 -37.323136 
L 497.756516 -37.297432 
L 494.903161 -37.291814 
L 492.049807 -37.305806 
L 489.196453 -37.334849 
L 486.343099 -37.372712 
L 483.489744 -37.413552 
L 480.63639 -37.453128 
L 477.783036 -37.489204 
L 474.929682 -37.521388 
L 472.076327 -37.550721 
L 469.222973 -37.579208 
L 466.369619 -37.609409 
L 463.516264 -37.64412 
L 460.66291 -37.686142 
L 457.809556 -37.738114 
L 454.956202 -37.802376 
L 452.102847 -37.880829 
L 449.249493 -37.974742 
L 446.396139 -38.084515 
L 443.542785 -38.209389 
L 440.68943 -38.347158 
L 437.836076 -38.493952 
L 434.982722 -38.644168 
L 432.129367 -38.790637 
L 429.276013 -38.925037 
L 426.422659 -39.038579 
L 423.569305 -39.122857 
L 420.71595 -39.170786 
L 417.862596 -39.177443 
L 415.009242 -39.140693 
L 412.155888 -39.061485 
L 409.302533 -38.943744 
L 406.449179 -38.793907 
L 403.595825 -38.62015 
L 400.74247 -38.431468 
L 397.889116 -38.236732 
L 395.035762 -38.04388 
L 392.182408 -37.85934 
L 389.329053 -37.687728 
L 386.475699 -37.531826 
L 383.622345 -37.392788 
L 380.768991 -37.270494 
L 377.915636 -37.163956 
L 375.062282 -37.071717 
L 372.208928 -36.992172 
L 369.355573 -36.923793 
L 366.502219 -36.865262 
L 363.648865 -36.815549 
L 360.795511 -36.77398 
L 357.942156 -36.740387 
L 355.088802 -36.715399 
L 352.235448 -36.700918 
L 349.382094 -36.700699 
L 346.528739 -36.720726 
L 343.675385 -36.768871 
L 340.822031 -36.853234 
L 337.968677 -36.97891 
L 335.115322 -37.143729 
L 332.261968 -37.334646 
L 329.408614 -37.527048 
L 326.555259 -37.68866 
L 323.701905 -37.787809 
L 320.848551 -37.803244 
L 317.995197 -37.731375 
L 315.141842 -37.587493 
L 312.288488 -37.400409 
L 309.435134 -37.203056 
L 306.58178 -37.023254 
L 303.728425 -36.878121 
L 300.875071 -36.773329 
L 298.021717 -36.706114 
L 295.168362 -36.669861 
L 292.315008 -36.658334 
L 289.461654 -36.668622 
L 286.6083 -36.702709 
L 283.754945 -36.767831 
L 280.901591 -36.875526 
L 278.048237 -37.038901 
L 275.194883 -37.267717 
L 272.341528 -37.561841 
L 269.488174 -37.905168 
L 266.63482 -38.263492 
L 263.781465 -38.589705 
L 260.928111 -38.837394 
L 258.074757 -38.98005 
L 255.221403 -39.029562 
L 252.368048 -39.046384 
L 249.514694 -39.135559 
L 246.66134 -39.427231 
L 243.807986 -40.04841 
L 240.954631 -41.106025 
L 238.101277 -42.701444 
L 235.247923 -44.928144 
L 232.394568 -47.69846 
L 229.541214 -50.415215 
L 226.68786 -52.017906 
L 223.834506 -51.794575 
L 220.981151 -50.146597 
L 218.127797 -48.249888 
L 215.274443 -47.101358 
L 212.421089 -47.130397 
L 209.567734 -48.473961 
L 206.71438 -51.324792 
L 203.861026 -56.038692 
L 201.007671 -62.802573 
L 198.154317 -70.850546 
L 195.300963 -78.247791 
L 192.447609 -83.413301 
L 189.594254 -87.074402 
L 186.7409 -92.005293 
L 183.887546 -100.945329 
L 181.034192 -115.528254 
L 178.180837 -137.448957 
L 175.327483 -171.403174 
L 172.474129 -227.570978 
L 169.620774 -315.74528 
L 166.76742 -425.113034 
L 163.914066 -510.561312 
L 161.060712 -521.490363 
L 158.207357 -454.109753 
L 155.354003 -356.660021 
L 152.500649 -279.81086 
L 149.647295 -240.929089 
L 146.79394 -232.912187 
L 143.940586 -245.311049 
L 141.087232 -272.168346 
L 138.233878 -309.434668 
L 135.380523 -349.601285 
L 132.527169 -378.690225 
L 129.673815 -381.736106 
L 126.82046 -354.434502 
L 123.967106 -306.806252 
L 121.113752 -253.736685 
L 118.260398 -205.047466 
L 115.407043 -164.405607 
L 112.553689 -132.620124 
L 109.700335 -109.500844 
L 106.846981 -94.068551 
L 103.993626 -84.544074 
L 101.140272 -78.564687 
L 98.286918 -73.785379 
L 95.433563 -68.767881 
L 92.580209 -63.360062 
L 89.726855 -58.111628 
L 86.873501 -53.47823 
L 84.020146 -49.591507 
L 81.166792 -46.425557 
L 78.313438 -43.92308 
L 75.460084 -42.006617 
L 72.606729 -40.574482 
L 69.753375 -39.517116 
z
" style="stroke: #000000; stroke-width: 0.5"/>
    </defs>
    <g clip-path="url(#p7ec7321571)">
     <use xlink:href="#m7ca040f7b8" x="0" y="566.30625" style="fill: #bad6eb; fill-opacity: 0.75; stroke: #000000; stroke-width: 0.5"/>
    </g>
   </g>
   <g id="PolyCollection_6">
    <defs>
     <path id="mfce111aaa5" d="M 69.753375 -39.555607 
L 69.753375 -39.517116 
L 72.606729 -40.574482 
L 75.460084 -42.006617 
L 78.313438 -43.92308 
L 81.166792 -46.425557 
L 84.020146 -49.591507 
L 86.873501 -53.47823 
L 89.726855 -58.111628 
L 92.580209 -63.360062 
L 95.433563 -68.767881 
L 98.286918 -73.785379 
L 101.140272 -78.564687 
L 103.993626 -84.544074 
L 106.846981 -94.068551 
L 109.700335 -109.500844 
L 112.553689 -132.620124 
L 115.407043 -164.405607 
L 118.260398 -205.047466 
L 121.113752 -253.736685 
L 123.967106 -306.806252 
L 126.82046 -354.434502 
L 129.673815 -381.736106 
L 132.527169 -378.690225 
L 135.380523 -349.601285 
L 138.233878 -309.434668 
L 141.087232 -272.168346 
L 143.940586 -245.311049 
L 146.79394 -232.912187 
L 149.647295 -240.929089 
L 152.500649 -279.81086 
L 155.354003 -356.660021 
L 158.207357 -454.109753 
L 161.060712 -521.490363 
L 163.914066 -510.561312 
L 166.76742 -425.113034 
L 169.620774 -315.74528 
L 172.474129 -227.570978 
L 175.327483 -171.403174 
L 178.180837 -137.448957 
L 181.034192 -115.528254 
L 183.887546 -100.945329 
L 186.7409 -92.005293 
L 189.594254 -87.074402 
L 192.447609 -83.413301 
L 195.300963 -78.247791 
L 198.154317 -70.850546 
L 201.007671 -62.802573 
L 203.861026 -56.038692 
L 206.71438 -51.324792 
L 209.567734 -48.473961 
L 212.421089 -47.130397 
L 215.274443 -47.101358 
L 218.127797 -48.249888 
L 220.981151 -50.146597 
L 223.834506 -51.794575 
L 226.68786 -52.017906 
L 229.541214 -50.415215 
L 232.394568 -47.69846 
L 235.247923 -44.928144 
L 238.101277 -42.701444 
L 240.954631 -41.106025 
L 243.807986 -40.04841 
L 246.66134 -39.427231 
L 249.514694 -39.135559 
L 252.368048 -39.046384 
L 255.221403 -39.029562 
L 258.074757 -38.98005 
L 260.928111 -38.837394 
L 263.781465 -38.589705 
L 266.63482 -38.263492 
L 269.488174 -37.905168 
L 272.341528 -37.561841 
L 275.194883 -37.267717 
L 278.048237 -37.038901 
L 280.901591 -36.875526 
L 283.754945 -36.767831 
L 286.6083 -36.702709 
L 289.461654 -36.668622 
L 292.315008 -36.658334 
L 295.168362 -36.669861 
L 298.021717 -36.706114 
L 300.875071 -36.773329 
L 303.728425 -36.878121 
L 306.58178 -37.023254 
L 309.435134 -37.203056 
L 312.288488 -37.400409 
L 315.141842 -37.587493 
L 317.995197 -37.731375 
L 320.848551 -37.803244 
L 323.701905 -37.787809 
L 326.555259 -37.68866 
L 329.408614 -37.527048 
L 332.261968 -37.334646 
L 335.115322 -37.143729 
L 337.968677 -36.97891 
L 340.822031 -36.853234 
L 343.675385 -36.768871 
L 346.528739 -36.720726 
L 349.382094 -36.700699 
L 352.235448 -36.700918 
L 355.088802 -36.715399 
L 357.942156 -36.740387 
L 360.795511 -36.77398 
L 363.648865 -36.815549 
L 366.502219 -36.865262 
L 369.355573 -36.923793 
L 372.208928 -36.992172 
L 375.062282 -37.071717 
L 377.915636 -37.163956 
L 380.768991 -37.270494 
L 383.622345 -37.392788 
L 386.475699 -37.531826 
L 389.329053 -37.687728 
L 392.182408 -37.85934 
L 395.035762 -38.04388 
L 397.889116 -38.236732 
L 400.74247 -38.431468 
L 403.595825 -38.62015 
L 406.449179 -38.793907 
L 409.302533 -38.943744 
L 412.155888 -39.061485 
L 415.009242 -39.140693 
L 417.862596 -39.177443 
L 420.71595 -39.170786 
L 423.569305 -39.122857 
L 426.422659 -39.038579 
L 429.276013 -38.925037 
L 432.129367 -38.790637 
L 434.982722 -38.644168 
L 437.836076 -38.493952 
L 440.68943 -38.347158 
L 443.542785 -38.209389 
L 446.396139 -38.084515 
L 449.249493 -37.974742 
L 452.102847 -37.880829 
L 454.956202 -37.802376 
L 457.809556 -37.738114 
L 460.66291 -37.686142 
L 463.516264 -37.64412 
L 466.369619 -37.609409 
L 469.222973 -37.579208 
L 472.076327 -37.550721 
L 474.929682 -37.521388 
L 477.783036 -37.489204 
L 480.63639 -37.453128 
L 483.489744 -37.413552 
L 486.343099 -37.372712 
L 489.196453 -37.334849 
L 492.049807 -37.305806 
L 494.903161 -37.291814 
L 497.756516 -37.297432 
L 500.60987 -37.323136 
L 503.463224 -37.363537 
L 506.316579 -37.407397 
L 509.169933 -37.440085 
L 512.023287 -37.448004 
L 514.876641 -37.423301 
L 517.729996 -37.36676 
L 520.58335 -37.287487 
L 523.436704 -37.199544 
L 526.290058 -37.117167 
L 529.143413 -37.050645 
L 531.996767 -37.004339 
L 534.850121 -36.977045 
L 537.703476 -36.963909 
L 540.55683 -36.958743 
L 543.410184 -36.955849 
L 546.263538 -36.951019 
L 549.116893 -36.941806 
L 551.970247 -36.927343 
L 554.823601 -36.90798 
L 557.676955 -36.884905 
L 560.53031 -36.859811 
L 563.383664 -36.834635 
L 566.237018 -36.811351 
L 569.090372 -36.791838 
L 571.943727 -36.777832 
L 574.797081 -36.770977 
L 577.650435 -36.773007 
L 580.50379 -36.786005 
L 583.357144 -36.812643 
L 586.210498 -36.856141 
L 589.063852 -36.919671 
L 591.917207 -37.005002 
L 594.770561 -37.110541 
L 597.623915 -37.229474 
L 600.477269 -37.349099 
L 603.330624 -37.452327 
L 606.183978 -37.521499 
L 609.037332 -37.543417 
L 611.890687 -37.513562 
L 614.744041 -37.437585 
L 617.597395 -37.329349 
L 620.450749 -37.206459 
L 623.304104 -37.085273 
L 626.157458 -36.977361 
L 629.010812 -36.888339 
L 631.864166 -36.818777 
L 634.717521 -36.766172 
L 637.570875 -36.726889 
L 637.570875 -36.726889 
L 637.570875 -36.726889 
L 634.717521 -36.766172 
L 631.864166 -36.818777 
L 629.010812 -36.888339 
L 626.157458 -36.977361 
L 623.304104 -37.085273 
L 620.450749 -37.206459 
L 617.597395 -37.329349 
L 614.744041 -37.437585 
L 611.890687 -37.513562 
L 609.037332 -37.543417 
L 606.183978 -37.521499 
L 603.330624 -37.452327 
L 600.477269 -37.349099 
L 597.623915 -37.229474 
L 594.770561 -37.110541 
L 591.917207 -37.005002 
L 589.063852 -36.919671 
L 586.210498 -36.856141 
L 583.357144 -36.812643 
L 580.50379 -36.786005 
L 577.650435 -36.773007 
L 574.797081 -36.770977 
L 571.943727 -36.777832 
L 569.090372 -36.791838 
L 566.237018 -36.811351 
L 563.383664 -36.834635 
L 560.53031 -36.859811 
L 557.676955 -36.884905 
L 554.823601 -36.90798 
L 551.970247 -36.927343 
L 549.116893 -36.941806 
L 546.263538 -36.951019 
L 543.410184 -36.955849 
L 540.55683 -36.958743 
L 537.703476 -36.963909 
L 534.850121 -36.977045 
L 531.996767 -37.004339 
L 529.143413 -37.050645 
L 526.290058 -37.117167 
L 523.436704 -37.199544 
L 520.58335 -37.287487 
L 517.729996 -37.36676 
L 514.876641 -37.423301 
L 512.023287 -37.448004 
L 509.169933 -37.440085 
L 506.316579 -37.407397 
L 503.463224 -37.363537 
L 500.60987 -37.323136 
L 497.756516 -37.297432 
L 494.903161 -37.291814 
L 492.049807 -37.305806 
L 489.196453 -37.334849 
L 486.343099 -37.372712 
L 483.489744 -37.413552 
L 480.63639 -37.453128 
L 477.783036 -37.489204 
L 474.929682 -37.521388 
L 472.076327 -37.550721 
L 469.222973 -37.579208 
L 466.369619 -37.609409 
L 463.516264 -37.64412 
L 460.66291 -37.686142 
L 457.809556 -37.738114 
L 454.956202 -37.802376 
L 452.102847 -37.880829 
L 449.249493 -37.974742 
L 446.396139 -38.084515 
L 443.542785 -38.209389 
L 440.68943 -38.347158 
L 437.836076 -38.493952 
L 434.982722 -38.644168 
L 432.129367 -38.790637 
L 429.276013 -38.925037 
L 426.422659 -39.038579 
L 423.569305 -39.122857 
L 420.71595 -39.170786 
L 417.862596 -39.177443 
L 415.009242 -39.140693 
L 412.155888 -39.061485 
L 409.302533 -38.943744 
L 406.449179 -38.793907 
L 403.595825 -38.62015 
L 400.74247 -38.431468 
L 397.889116 -38.236732 
L 395.035762 -38.04388 
L 392.182408 -37.85934 
L 389.329053 -37.687728 
L 386.475699 -37.531826 
L 383.622345 -37.392788 
L 380.768991 -37.270494 
L 377.915636 -37.163956 
L 375.062282 -37.071717 
L 372.208928 -36.992172 
L 369.355573 -36.923793 
L 366.502219 -36.865262 
L 363.648865 -36.815549 
L 360.795511 -36.77398 
L 357.942156 -36.740387 
L 355.088802 -36.715399 
L 352.235448 -36.700918 
L 349.382094 -36.700699 
L 346.528739 -36.720726 
L 343.675385 -36.768871 
L 340.822031 -36.853234 
L 337.968677 -36.97891 
L 335.115322 -37.143729 
L 332.261968 -37.334646 
L 329.408614 -37.527048 
L 326.555259 -37.68866 
L 323.701905 -37.787809 
L 320.848551 -37.803244 
L 317.995197 -37.731375 
L 315.141842 -37.587493 
L 312.288488 -37.400409 
L 309.435134 -37.203056 
L 306.58178 -37.023254 
L 303.728425 -36.878121 
L 300.875071 -36.773329 
L 298.021717 -36.706114 
L 295.168362 -36.669861 
L 292.315008 -36.658334 
L 289.461654 -36.668622 
L 286.6083 -36.702709 
L 283.754945 -36.767831 
L 280.901591 -36.875526 
L 278.048237 -37.038903 
L 275.194883 -37.267729 
L 272.341528 -37.561891 
L 269.488174 -37.905349 
L 266.63482 -38.264102 
L 263.781465 -38.59159 
L 260.928111 -38.842762 
L 258.074757 -38.99413 
L 255.221403 -39.063575 
L 252.368048 -39.122054 
L 249.514694 -39.29061 
L 246.66134 -39.719833 
L 243.807986 -40.556966 
L 240.954631 -41.92009 
L 238.101277 -43.901621 
L 235.247923 -46.557859 
L 232.394568 -49.736881 
L 229.541214 -52.764209 
L 226.68786 -54.513082 
L 223.834506 -54.240907 
L 220.981151 -52.367452 
L 218.127797 -50.13143 
L 215.274443 -48.616315 
L 212.421089 -48.334627 
L 209.567734 -49.480053 
L 206.71438 -52.263855 
L 203.861026 -57.022774 
L 201.007671 -63.897937 
L 198.154317 -72.068736 
L 195.300963 -79.55795 
L 192.447609 -84.775083 
L 189.594254 -88.485839 
L 186.7409 -93.554833 
L 183.887546 -102.852689 
L 181.034192 -118.155519 
L 178.180837 -141.263647 
L 175.327483 -176.88341 
L 172.474129 -235.063387 
L 169.620774 -325.315614 
L 166.76742 -436.453224 
L 163.914066 -523.015363 
L 161.060712 -534.225595 
L 158.207357 -466.401671 
L 155.354003 -368.206829 
L 152.500649 -290.972298 
L 149.647295 -252.798156 
L 146.79394 -247.16529 
L 143.940586 -263.832026 
L 141.087232 -296.506143 
L 138.233878 -340.231355 
L 135.380523 -386.188045 
L 132.527169 -419.041328 
L 129.673815 -422.860211 
L 126.82046 -393.099934 
L 123.967106 -340.338694 
L 121.113752 -280.593079 
L 118.260398 -224.983708 
L 115.407043 -178.246607 
L 112.553689 -141.7962 
L 109.700335 -115.561003 
L 106.846981 -98.324861 
L 103.993626 -87.902586 
L 101.140272 -81.517919 
L 98.286918 -76.504705 
L 95.433563 -71.233421 
L 92.580209 -65.481721 
L 89.726855 -59.814458 
L 86.873501 -54.743405 
L 84.020146 -50.459032 
L 81.166792 -46.973868 
L 78.313438 -44.242359 
L 75.460084 -42.177866 
L 72.606729 -40.65908 
L 69.753375 -39.555607 
z
" style="stroke: #000000; stroke-width: 0.5"/>
    </defs>
    <g clip-path="url(#p7ec7321571)">
     <use xlink:href="#mfce111aaa5" x="0" y="566.30625" style="fill: #dbe9f6; fill-opacity: 0.75; stroke: #000000; stroke-width: 0.5"/>
    </g>
   </g>
   <g id="matplotlib.axis_1">
    <g id="xtick_1">
     <g id="line2d_1">
      <defs>
       <path id="m770b0cb6a4" d="M 0 0 
L 0 3.5 
" style="stroke: #000000; stroke-width: 0.8"/>
      </defs>
      <g>
       <use xlink:href="#m770b0cb6a4" x="66.582871" y="529.69375" style="stroke: #000000; stroke-width: 0.8"/>
      </g>
     </g>
     <g id="text_1">
      <text style="font: 10px 'sans-serif'; text-anchor: middle" x="66.582871" y="543.851562" transform="rotate(-0, 66.582871, 543.851562)">0</text>
     </g>
    </g>
    <g id="xtick_2">
     <g id="line2d_2">
      <g>
       <use xlink:href="#m770b0cb6a4" x="98.480566" y="529.69375" style="stroke: #000000; stroke-width: 0.8"/>
      </g>
     </g>
     <g id="text_2">
      <text style="font: 10px 'sans-serif'; text-anchor: middle" x="98.480566" y="543.851562" transform="rotate(-0, 98.480566, 543.851562)">1</text>
     </g>
    </g>
    <g id="xtick_3">
     <g id="line2d_3">
      <g>
       <use xlink:href="#m770b0cb6a4" x="130.378261" y="529.69375" style="stroke: #000000; stroke-width: 0.8"/>
      </g>
     </g>
     <g id="text_3">
      <text style="font: 10px 'sans-serif'; text-anchor: middle" x="130.378261" y="543.851562" transform="rotate(-0, 130.378261, 543.851562)">2</text>
     </g>
    </g>
    <g id="xtick_4">
     <g id="line2d_4">
      <g>
       <use xlink:href="#m770b0cb6a4" x="162.275955" y="529.69375" style="stroke: #000000; stroke-width: 0.8"/>
      </g>
     </g>
     <g id="text_4">
      <text style="font: 10px 'sans-serif'; text-anchor: middle" x="162.275955" y="543.851562" transform="rotate(-0, 162.275955, 543.851562)">3</text>
     </g>
    </g>
    <g id="xtick_5">
     <g id="line2d_5">
      <g>
       <use xlink:href="#m770b0cb6a4" x="194.17365" y="529.69375" style="stroke: #000000; stroke-width: 0.8"/>
      </g>
     </g>
     <g id="text_5">
      <text style="font: 10px 'sans-serif'; text-anchor: middle" x="194.17365" y="543.851562" transform="rotate(-0, 194.17365, 543.851562)">4</text>
     </g>
    </g>
    <g id="xtick_6">
     <g id="line2d_6">
      <g>
       <use xlink:href="#m770b0cb6a4" x="226.071345" y="529.69375" style="stroke: #000000; stroke-width: 0.8"/>
      </g>
     </g>
     <g id="text_6">
      <text style="font: 10px 'sans-serif'; text-anchor: middle" x="226.071345" y="543.851562" transform="rotate(-0, 226.071345, 543.851562)">5</text>
     </g>
    </g>
    <g id="xtick_7">
     <g id="line2d_7">
      <g>
       <use xlink:href="#m770b0cb6a4" x="257.96904" y="529.69375" style="stroke: #000000; stroke-width: 0.8"/>
      </g>
     </g>
     <g id="text_7">
      <text style="font: 10px 'sans-serif'; text-anchor: middle" x="257.96904" y="543.851562" transform="rotate(-0, 257.96904, 543.851562)">6</text>
     </g>
    </g>
    <g id="xtick_8">
     <g id="line2d_8">
      <g>
       <use xlink:href="#m770b0cb6a4" x="289.866735" y="529.69375" style="stroke: #000000; stroke-width: 0.8"/>
      </g>
     </g>
     <g id="text_8">
      <text style="font: 10px 'sans-serif'; text-anchor: middle" x="289.866735" y="543.851562" transform="rotate(-0, 289.866735, 543.851562)">7</text>
     </g>
    </g>
    <g id="xtick_9">
     <g id="line2d_9">
      <g>
       <use xlink:href="#m770b0cb6a4" x="321.76443" y="529.69375" style="stroke: #000000; stroke-width: 0.8"/>
      </g>
     </g>
     <g id="text_9">
      <text style="font: 10px 'sans-serif'; text-anchor: middle" x="321.76443" y="543.851562" transform="rotate(-0, 321.76443, 543.851562)">8</text>
     </g>
    </g>
    <g id="xtick_10">
     <g id="line2d_10">
      <g>
       <use xlink:href="#m770b0cb6a4" x="353.662125" y="529.69375" style="stroke: #000000; stroke-width: 0.8"/>
      </g>
     </g>
     <g id="text_10">
      <text style="font: 10px 'sans-serif'; text-anchor: middle" x="353.662125" y="543.851562" transform="rotate(-0, 353.662125, 543.851562)">9</text>
     </g>
    </g>
    <g id="xtick_11">
     <g id="line2d_11">
      <g>
       <use xlink:href="#m770b0cb6a4" x="385.55982" y="529.69375" style="stroke: #000000; stroke-width: 0.8"/>
      </g>
     </g>
     <g id="text_11">
      <text style="font: 10px 'sans-serif'; text-anchor: middle" x="385.55982" y="543.851562" transform="rotate(-0, 385.55982, 543.851562)">10</text>
     </g>
    </g>
    <g id="xtick_12">
     <g id="line2d_12">
      <g>
       <use xlink:href="#m770b0cb6a4" x="417.457515" y="529.69375" style="stroke: #000000; stroke-width: 0.8"/>
      </g>
     </g>
     <g id="text_12">
      <text style="font: 10px 'sans-serif'; text-anchor: middle" x="417.457515" y="543.851562" transform="rotate(-0, 417.457515, 543.851562)">11</text>
     </g>
    </g>
    <g id="xtick_13">
     <g id="line2d_13">
      <g>
       <use xlink:href="#m770b0cb6a4" x="449.35521" y="529.69375" style="stroke: #000000; stroke-width: 0.8"/>
      </g>
     </g>
     <g id="text_13">
      <text style="font: 10px 'sans-serif'; text-anchor: middle" x="449.35521" y="543.851562" transform="rotate(-0, 449.35521, 543.851562)">12</text>
     </g>
    </g>
    <g id="xtick_14">
     <g id="line2d_14">
      <g>
       <use xlink:href="#m770b0cb6a4" x="481.252905" y="529.69375" style="stroke: #000000; stroke-width: 0.8"/>
      </g>
     </g>
     <g id="text_14">
      <text style="font: 10px 'sans-serif'; text-anchor: middle" x="481.252905" y="543.851562" transform="rotate(-0, 481.252905, 543.851562)">13</text>
     </g>
    </g>
    <g id="xtick_15">
     <g id="line2d_15">
      <g>
       <use xlink:href="#m770b0cb6a4" x="513.1506" y="529.69375" style="stroke: #000000; stroke-width: 0.8"/>
      </g>
     </g>
     <g id="text_15">
      <text style="font: 10px 'sans-serif'; text-anchor: middle" x="513.1506" y="543.851562" transform="rotate(-0, 513.1506, 543.851562)">14</text>
     </g>
    </g>
    <g id="xtick_16">
     <g id="line2d_16">
      <g>
       <use xlink:href="#m770b0cb6a4" x="545.048295" y="529.69375" style="stroke: #000000; stroke-width: 0.8"/>
      </g>
     </g>
     <g id="text_16">
      <text style="font: 10px 'sans-serif'; text-anchor: middle" x="545.048295" y="543.851562" transform="rotate(-0, 545.048295, 543.851562)">15</text>
     </g>
    </g>
    <g id="xtick_17">
     <g id="line2d_17">
      <g>
       <use xlink:href="#m770b0cb6a4" x="576.945989" y="529.69375" style="stroke: #000000; stroke-width: 0.8"/>
      </g>
     </g>
     <g id="text_17">
      <text style="font: 10px 'sans-serif'; text-anchor: middle" x="576.945989" y="543.851562" transform="rotate(-0, 576.945989, 543.851562)">16</text>
     </g>
    </g>
    <g id="xtick_18">
     <g id="line2d_18">
      <g>
       <use xlink:href="#m770b0cb6a4" x="608.843684" y="529.69375" style="stroke: #000000; stroke-width: 0.8"/>
      </g>
     </g>
     <g id="text_18">
      <text style="font: 10px 'sans-serif'; text-anchor: middle" x="608.843684" y="543.851562" transform="rotate(-0, 608.843684, 543.851562)">17</text>
     </g>
    </g>
    <g id="xtick_19">
     <g id="line2d_19">
      <g>
       <use xlink:href="#m770b0cb6a4" x="640.741379" y="529.69375" style="stroke: #000000; stroke-width: 0.8"/>
      </g>
     </g>
     <g id="text_19">
      <text style="font: 10px 'sans-serif'; text-anchor: middle" x="640.741379" y="543.851562" transform="rotate(-0, 640.741379, 543.851562)">18</text>
     </g>
    </g>
    <g id="text_20">
     <text style="font: 10px 'sans-serif'; text-anchor: middle" x="353.662125" y="557.11875" transform="rotate(-0, 353.662125, 557.11875)">number_of_plasmids</text>
    </g>
   </g>
   <g id="matplotlib.axis_2">
    <g id="ytick_1">
     <g id="line2d_20">
      <defs>
       <path id="mbc1b84094c" d="M 0 0 
L -3.5 0 
" style="stroke: #000000; stroke-width: 0.8"/>
      </defs>
      <g>
       <use xlink:href="#mbc1b84094c" x="41.3625" y="529.69375" style="stroke: #000000; stroke-width: 0.8"/>
      </g>
     </g>
     <g id="text_21">
      <text style="font: 10px 'sans-serif'; text-anchor: end" x="34.3625" y="533.272656" transform="rotate(-0, 34.3625, 533.272656)">0.0</text>
     </g>
    </g>
    <g id="ytick_2">
     <g id="line2d_21">
      <g>
       <use xlink:href="#mbc1b84094c" x="41.3625" y="458.398786" style="stroke: #000000; stroke-width: 0.8"/>
      </g>
     </g>
     <g id="text_22">
      <text style="font: 10px 'sans-serif'; text-anchor: end" x="34.3625" y="461.977692" transform="rotate(-0, 34.3625, 461.977692)">0.1</text>
     </g>
    </g>
    <g id="ytick_3">
     <g id="line2d_22">
      <g>
       <use xlink:href="#mbc1b84094c" x="41.3625" y="387.103822" style="stroke: #000000; stroke-width: 0.8"/>
      </g>
     </g>
     <g id="text_23">
      <text style="font: 10px 'sans-serif'; text-anchor: end" x="34.3625" y="390.682728" transform="rotate(-0, 34.3625, 390.682728)">0.2</text>
     </g>
    </g>
    <g id="ytick_4">
     <g id="line2d_23">
      <g>
       <use xlink:href="#mbc1b84094c" x="41.3625" y="315.808858" style="stroke: #000000; stroke-width: 0.8"/>
      </g>
     </g>
     <g id="text_24">
      <text style="font: 10px 'sans-serif'; text-anchor: end" x="34.3625" y="319.387764" transform="rotate(-0, 34.3625, 319.387764)">0.3</text>
     </g>
    </g>
    <g id="ytick_5">
     <g id="line2d_24">
      <g>
       <use xlink:href="#mbc1b84094c" x="41.3625" y="244.513894" style="stroke: #000000; stroke-width: 0.8"/>
      </g>
     </g>
     <g id="text_25">
      <text style="font: 10px 'sans-serif'; text-anchor: end" x="34.3625" y="248.0928" transform="rotate(-0, 34.3625, 248.0928)">0.4</text>
     </g>
    </g>
    <g id="ytick_6">
     <g id="line2d_25">
      <g>
       <use xlink:href="#mbc1b84094c" x="41.3625" y="173.21893" style="stroke: #000000; stroke-width: 0.8"/>
      </g>
     </g>
     <g id="text_26">
      <text style="font: 10px 'sans-serif'; text-anchor: end" x="34.3625" y="176.797836" transform="rotate(-0, 34.3625, 176.797836)">0.5</text>
     </g>
    </g>
    <g id="ytick_7">
     <g id="line2d_26">
      <g>
       <use xlink:href="#mbc1b84094c" x="41.3625" y="101.923966" style="stroke: #000000; stroke-width: 0.8"/>
      </g>
     </g>
     <g id="text_27">
      <text style="font: 10px 'sans-serif'; text-anchor: end" x="34.3625" y="105.502872" transform="rotate(-0, 34.3625, 105.502872)">0.6</text>
     </g>
    </g>
    <g id="ytick_8">
     <g id="line2d_27">
      <g>
       <use xlink:href="#mbc1b84094c" x="41.3625" y="30.629002" style="stroke: #000000; stroke-width: 0.8"/>
      </g>
     </g>
     <g id="text_28">
      <text style="font: 10px 'sans-serif'; text-anchor: end" x="34.3625" y="34.207908" transform="rotate(-0, 34.3625, 34.207908)">0.7</text>
     </g>
    </g>
    <g id="text_29">
     <text style="font: 10px 'sans-serif'; text-anchor: middle" x="14.357813" y="268.446875" transform="rotate(-90, 14.357813, 268.446875)">Density</text>
    </g>
   </g>
   <g id="patch_3">
    <path d="M 41.3625 529.69375 
L 41.3625 7.2 
" style="fill: none; stroke: #000000; stroke-width: 0.8; stroke-linejoin: miter; stroke-linecap: square"/>
   </g>
   <g id="patch_4">
    <path d="M 41.3625 529.69375 
L 665.96175 529.69375 
" style="fill: none; stroke: #000000; stroke-width: 0.8; stroke-linejoin: miter; stroke-linecap: square"/>
   </g>
  </g>
  <g id="legend_1">
   <g id="text_30">
    <text style="font: 10px 'sans-serif'; text-anchor: start" x="699.015625" y="243.170312" transform="rotate(-0, 699.015625, 243.170312)">collection_timepoint</text>
   </g>
   <g id="patch_5">
    <path d="M 709.470312 257.345312 
L 729.470312 257.345312 
L 729.470312 250.345312 
L 709.470312 250.345312 
z
" style="fill: #dbe9f6; fill-opacity: 0.75; stroke: #000000; stroke-width: 0.5; stroke-linejoin: miter"/>
   </g>
   <g id="text_31">
    <text style="font: 10px 'sans-serif'; text-anchor: start" x="737.470312" y="257.345312" transform="rotate(-0, 737.470312, 257.345312)">Day3</text>
   </g>
   <g id="patch_6">
    <path d="M 709.470312 271.607812 
L 729.470312 271.607812 
L 729.470312 264.607812 
L 709.470312 264.607812 
z
" style="fill: #bad6eb; fill-opacity: 0.75; stroke: #000000; stroke-width: 0.5; stroke-linejoin: miter"/>
   </g>
   <g id="text_32">
    <text style="font: 10px 'sans-serif'; text-anchor: start" x="737.470312" y="271.607812" transform="rotate(-0, 737.470312, 271.607812)">Day7</text>
   </g>
   <g id="patch_7">
    <path d="M 709.470312 285.870312 
L 729.470312 285.870312 
L 729.470312 278.870312 
L 709.470312 278.870312 
z
" style="fill: #89bedc; fill-opacity: 0.75; stroke: #000000; stroke-width: 0.5; stroke-linejoin: miter"/>
   </g>
   <g id="text_33">
    <text style="font: 10px 'sans-serif'; text-anchor: start" x="737.470312" y="285.870312" transform="rotate(-0, 737.470312, 285.870312)">Month1</text>
   </g>
   <g id="patch_8">
    <path d="M 709.470312 300.015625 
L 729.470312 300.015625 
L 729.470312 293.015625 
L 709.470312 293.015625 
z
" style="fill: #539ecd; fill-opacity: 0.75; stroke: #000000; stroke-width: 0.5; stroke-linejoin: miter"/>
   </g>
   <g id="text_34">
    <text style="font: 10px 'sans-serif'; text-anchor: start" x="737.470312" y="300.015625" transform="rotate(-0, 737.470312, 300.015625)">Month3</text>
   </g>
   <g id="patch_9">
    <path d="M 709.470312 314.160937 
L 729.470312 314.160937 
L 729.470312 307.160937 
L 709.470312 307.160937 
z
" style="fill: #2b7bba; fill-opacity: 0.75; stroke: #000000; stroke-width: 0.5; stroke-linejoin: miter"/>
   </g>
   <g id="text_35">
    <text style="font: 10px 'sans-serif'; text-anchor: start" x="737.470312" y="314.160937" transform="rotate(-0, 737.470312, 314.160937)">Month6</text>
   </g>
   <g id="patch_10">
    <path d="M 709.470312 328.30625 
L 729.470312 328.30625 
L 729.470312 321.30625 
L 709.470312 321.30625 
z
" style="fill: #0b559f; fill-opacity: 0.75; stroke: #000000; stroke-width: 0.5; stroke-linejoin: miter"/>
   </g>
   <g id="text_36">
    <text style="font: 10px 'sans-serif'; text-anchor: start" x="737.470312" y="328.30625" transform="rotate(-0, 737.470312, 328.30625)">Month10</text>
   </g>
  </g>
 </g>
 <defs>
  <clipPath id="p7ec7321571">
   <rect x="41.3625" y="7.2" width="624.59925" height="522.49375"/>
  </clipPath>
 </defs>
</svg>
