<?xml version="1.0" encoding="utf-8" standalone="no"?>
<!DOCTYPE svg PUBLIC "-//W3C//DTD SVG 1.1//EN"
  "http://www.w3.org/Graphics/SVG/1.1/DTD/svg11.dtd">
<svg xmlns:xlink="http://www.w3.org/1999/xlink" width="786.4625pt" height="569.2125pt" viewBox="0 0 786.4625 569.2125" xmlns="http://www.w3.org/2000/svg" version="1.1">
 <metadata>
  <rdf:RDF xmlns:dc="http://purl.org/dc/elements/1.1/" xmlns:cc="http://creativecommons.org/ns#" xmlns:rdf="http://www.w3.org/1999/02/22-rdf-syntax-ns#">
   <cc:Work>
    <dc:type rdf:resource="http://purl.org/dc/dcmitype/StillImage"/>
    <dc:date>2022-06-17T15:18:16.947439</dc:date>
    <dc:format>image/svg+xml</dc:format>
    <dc:creator>
     <cc:Agent>
      <dc:title>Matplotlib v3.5.1, https://matplotlib.org/</dc:title>
     </cc:Agent>
    </dc:creator>
   </cc:Work>
  </rdf:RDF>
 </metadata>
 <defs>
  <style type="text/css">*{stroke-linejoin: round; stroke-linecap: butt}</style>
 </defs>
 <g id="figure_1">
  <g id="patch_1">
   <path d="M -0 569.2125 
L 786.4625 569.2125 
L 786.4625 0 
L -0 0 
L -0 569.2125 
z
" style="fill: none"/>
  </g>
  <g id="axes_1">
   <g id="patch_2">
    <path d="M 41.3625 532.6 
L 669.0855 532.6 
L 669.0855 7.2 
L 41.3625 7.2 
z
" style="fill: #ffffff"/>
   </g>
   <g id="PolyCollection_1">
    <defs>
     <path id="m71f77cc4b7" d="M 69.895364 -37.06945 
L 69.895364 -36.6125 
L 72.762988 -36.6125 
L 75.630613 -36.6125 
L 78.498237 -36.6125 
L 81.365862 -36.6125 
L 84.233486 -36.6125 
L 87.101111 -36.6125 
L 89.968735 -36.6125 
L 92.83636 -36.6125 
L 95.703984 -36.6125 
L 98.571608 -36.6125 
L 101.439233 -36.6125 
L 104.306857 -36.6125 
L 107.174482 -36.6125 
L 110.042106 -36.6125 
L 112.909731 -36.6125 
L 115.777355 -36.6125 
L 118.64498 -36.6125 
L 121.512604 -36.6125 
L 124.380229 -36.6125 
L 127.247853 -36.6125 
L 130.115478 -36.6125 
L 132.983102 -36.6125 
L 135.850727 -36.6125 
L 138.718351 -36.6125 
L 141.585976 -36.6125 
L 144.4536 -36.6125 
L 147.321225 -36.6125 
L 150.188849 -36.6125 
L 153.056474 -36.6125 
L 155.924098 -36.6125 
L 158.791723 -36.6125 
L 161.659347 -36.6125 
L 164.526972 -36.6125 
L 167.394596 -36.6125 
L 170.262221 -36.6125 
L 173.129845 -36.6125 
L 175.99747 -36.6125 
L 178.865094 -36.6125 
L 181.732719 -36.6125 
L 184.600343 -36.6125 
L 187.467968 -36.6125 
L 190.335592 -36.6125 
L 193.203217 -36.6125 
L 196.070841 -36.6125 
L 198.938466 -36.6125 
L 201.80609 -36.6125 
L 204.673714 -36.6125 
L 207.541339 -36.6125 
L 210.408963 -36.6125 
L 213.276588 -36.6125 
L 216.144212 -36.6125 
L 219.011837 -36.6125 
L 221.879461 -36.6125 
L 224.747086 -36.6125 
L 227.61471 -36.6125 
L 230.482335 -36.6125 
L 233.349959 -36.6125 
L 236.217584 -36.6125 
L 239.085208 -36.6125 
L 241.952833 -36.6125 
L 244.820457 -36.6125 
L 247.688082 -36.6125 
L 250.555706 -36.6125 
L 253.423331 -36.6125 
L 256.290955 -36.6125 
L 259.15858 -36.6125 
L 262.026204 -36.6125 
L 264.893829 -36.6125 
L 267.761453 -36.6125 
L 270.629078 -36.6125 
L 273.496702 -36.6125 
L 276.364327 -36.6125 
L 279.231951 -36.6125 
L 282.099576 -36.6125 
L 284.9672 -36.6125 
L 287.834825 -36.6125 
L 290.702449 -36.6125 
L 293.570074 -36.6125 
L 296.437698 -36.6125 
L 299.305323 -36.6125 
L 302.172947 -36.6125 
L 305.040571 -36.6125 
L 307.908196 -36.6125 
L 310.77582 -36.6125 
L 313.643445 -36.6125 
L 316.511069 -36.6125 
L 319.378694 -36.6125 
L 322.246318 -36.6125 
L 325.113943 -36.6125 
L 327.981567 -36.6125 
L 330.849192 -36.6125 
L 333.716816 -36.6125 
L 336.584441 -36.6125 
L 339.452065 -36.6125 
L 342.31969 -36.6125 
L 345.187314 -36.6125 
L 348.054939 -36.6125 
L 350.922563 -36.6125 
L 353.790188 -36.6125 
L 356.657812 -36.6125 
L 359.525437 -36.6125 
L 362.393061 -36.6125 
L 365.260686 -36.6125 
L 368.12831 -36.6125 
L 370.995935 -36.6125 
L 373.863559 -36.6125 
L 376.731184 -36.6125 
L 379.598808 -36.6125 
L 382.466433 -36.6125 
L 385.334057 -36.6125 
L 388.201682 -36.6125 
L 391.069306 -36.6125 
L 393.936931 -36.6125 
L 396.804555 -36.6125 
L 399.67218 -36.6125 
L 402.539804 -36.6125 
L 405.407429 -36.6125 
L 408.275053 -36.6125 
L 411.142677 -36.6125 
L 414.010302 -36.6125 
L 416.877926 -36.6125 
L 419.745551 -36.6125 
L 422.613175 -36.6125 
L 425.4808 -36.6125 
L 428.348424 -36.6125 
L 431.216049 -36.6125 
L 434.083673 -36.6125 
L 436.951298 -36.6125 
L 439.818922 -36.6125 
L 442.686547 -36.6125 
L 445.554171 -36.6125 
L 448.421796 -36.6125 
L 451.28942 -36.6125 
L 454.157045 -36.6125 
L 457.024669 -36.6125 
L 459.892294 -36.6125 
L 462.759918 -36.6125 
L 465.627543 -36.6125 
L 468.495167 -36.6125 
L 471.362792 -36.6125 
L 474.230416 -36.6125 
L 477.098041 -36.6125 
L 479.965665 -36.6125 
L 482.83329 -36.6125 
L 485.700914 -36.6125 
L 488.568539 -36.6125 
L 491.436163 -36.6125 
L 494.303788 -36.6125 
L 497.171412 -36.6125 
L 500.039037 -36.6125 
L 502.906661 -36.6125 
L 505.774286 -36.6125 
L 508.64191 -36.6125 
L 511.509534 -36.6125 
L 514.377159 -36.6125 
L 517.244783 -36.6125 
L 520.112408 -36.6125 
L 522.980032 -36.6125 
L 525.847657 -36.6125 
L 528.715281 -36.6125 
L 531.582906 -36.6125 
L 534.45053 -36.6125 
L 537.318155 -36.6125 
L 540.185779 -36.6125 
L 543.053404 -36.6125 
L 545.921028 -36.6125 
L 548.788653 -36.6125 
L 551.656277 -36.6125 
L 554.523902 -36.6125 
L 557.391526 -36.6125 
L 560.259151 -36.6125 
L 563.126775 -36.6125 
L 565.9944 -36.6125 
L 568.862024 -36.6125 
L 571.729649 -36.6125 
L 574.597273 -36.6125 
L 577.464898 -36.6125 
L 580.332522 -36.6125 
L 583.200147 -36.6125 
L 586.067771 -36.6125 
L 588.935396 -36.6125 
L 591.80302 -36.6125 
L 594.670645 -36.6125 
L 597.538269 -36.6125 
L 600.405894 -36.6125 
L 603.273518 -36.6125 
L 606.141143 -36.6125 
L 609.008767 -36.6125 
L 611.876392 -36.6125 
L 614.744016 -36.6125 
L 617.61164 -36.6125 
L 620.479265 -36.6125 
L 623.346889 -36.6125 
L 626.214514 -36.6125 
L 629.082138 -36.6125 
L 631.949763 -36.6125 
L 634.817387 -36.6125 
L 637.685012 -36.6125 
L 640.552636 -36.6125 
L 640.552636 -36.704974 
L 640.552636 -36.704974 
L 637.685012 -36.712133 
L 634.817387 -36.719458 
L 631.949763 -36.72692 
L 629.082138 -36.73449 
L 626.214514 -36.742142 
L 623.346889 -36.74985 
L 620.479265 -36.757593 
L 617.61164 -36.765353 
L 614.744016 -36.773116 
L 611.876392 -36.780874 
L 609.008767 -36.788625 
L 606.141143 -36.796371 
L 603.273518 -36.804122 
L 600.405894 -36.811893 
L 597.538269 -36.819704 
L 594.670645 -36.827581 
L 591.80302 -36.835556 
L 588.935396 -36.843661 
L 586.067771 -36.851935 
L 583.200147 -36.860417 
L 580.332522 -36.869145 
L 577.464898 -36.878162 
L 574.597273 -36.887504 
L 571.729649 -36.897208 
L 568.862024 -36.907307 
L 565.9944 -36.917829 
L 563.126775 -36.928797 
L 560.259151 -36.940228 
L 557.391526 -36.952133 
L 554.523902 -36.964516 
L 551.656277 -36.977373 
L 548.788653 -36.990692 
L 545.921028 -37.004456 
L 543.053404 -37.018638 
L 540.185779 -37.033204 
L 537.318155 -37.048114 
L 534.45053 -37.063322 
L 531.582906 -37.078776 
L 528.715281 -37.094418 
L 525.847657 -37.110186 
L 522.980032 -37.126014 
L 520.112408 -37.141837 
L 517.244783 -37.157584 
L 514.377159 -37.173186 
L 511.509534 -37.188577 
L 508.64191 -37.203689 
L 505.774286 -37.218463 
L 502.906661 -37.232841 
L 500.039037 -37.246774 
L 497.171412 -37.26022 
L 494.303788 -37.273148 
L 491.436163 -37.285537 
L 488.568539 -37.297377 
L 485.700914 -37.308672 
L 482.83329 -37.31944 
L 479.965665 -37.329713 
L 477.098041 -37.339538 
L 474.230416 -37.348976 
L 471.362792 -37.358103 
L 468.495167 -37.367008 
L 465.627543 -37.375793 
L 462.759918 -37.38457 
L 459.892294 -37.39346 
L 457.024669 -37.402591 
L 454.157045 -37.412093 
L 451.28942 -37.4221 
L 448.421796 -37.432742 
L 445.554171 -37.444143 
L 442.686547 -37.45642 
L 439.818922 -37.469676 
L 436.951298 -37.484 
L 434.083673 -37.49946 
L 431.216049 -37.516106 
L 428.348424 -37.533962 
L 425.4808 -37.553027 
L 422.613175 -37.573272 
L 419.745551 -37.594642 
L 416.877926 -37.617052 
L 414.010302 -37.640392 
L 411.142677 -37.664524 
L 408.275053 -37.689287 
L 405.407429 -37.7145 
L 402.539804 -37.739963 
L 399.67218 -37.765464 
L 396.804555 -37.790781 
L 393.936931 -37.815687 
L 391.069306 -37.83996 
L 388.201682 -37.863383 
L 385.334057 -37.88575 
L 382.466433 -37.906877 
L 379.598808 -37.926599 
L 376.731184 -37.944782 
L 373.863559 -37.961326 
L 370.995935 -37.976164 
L 368.12831 -37.989272 
L 365.260686 -38.000667 
L 362.393061 -38.01041 
L 359.525437 -38.018608 
L 356.657812 -38.025411 
L 353.790188 -38.031013 
L 350.922563 -38.03565 
L 348.054939 -38.039597 
L 345.187314 -38.043164 
L 342.31969 -38.046694 
L 339.452065 -38.050556 
L 336.584441 -38.055142 
L 333.716816 -38.06086 
L 330.849192 -38.068129 
L 327.981567 -38.077378 
L 325.113943 -38.089032 
L 322.246318 -38.103517 
L 319.378694 -38.121249 
L 316.511069 -38.142633 
L 313.643445 -38.168059 
L 310.77582 -38.197901 
L 307.908196 -38.232512 
L 305.040571 -38.272229 
L 302.172947 -38.317365 
L 299.305323 -38.368218 
L 296.437698 -38.425065 
L 293.570074 -38.488168 
L 290.702449 -38.557775 
L 287.834825 -38.634119 
L 284.9672 -38.717424 
L 282.099576 -38.807903 
L 279.231951 -38.905757 
L 276.364327 -39.01118 
L 273.496702 -39.124352 
L 270.629078 -39.245435 
L 267.761453 -39.374575 
L 264.893829 -39.511887 
L 262.026204 -39.657452 
L 259.15858 -39.811305 
L 256.290955 -39.973427 
L 253.423331 -40.143725 
L 250.555706 -40.322027 
L 247.688082 -40.508061 
L 244.820457 -40.701445 
L 241.952833 -40.901672 
L 239.085208 -41.108099 
L 236.217584 -41.319933 
L 233.349959 -41.536226 
L 230.482335 -41.755869 
L 227.61471 -41.977588 
L 224.747086 -42.199951 
L 221.879461 -42.421372 
L 219.011837 -42.640123 
L 216.144212 -42.854349 
L 213.276588 -43.062092 
L 210.408963 -43.261315 
L 207.541339 -43.449931 
L 204.673714 -43.625838 
L 201.80609 -43.786954 
L 198.938466 -43.931254 
L 196.070841 -44.056809 
L 193.203217 -44.16183 
L 190.335592 -44.244697 
L 187.467968 -44.304003 
L 184.600343 -44.338581 
L 181.732719 -44.347533 
L 178.865094 -44.330257 
L 175.99747 -44.286458 
L 173.129845 -44.216163 
L 170.262221 -44.119723 
L 167.394596 -43.997813 
L 164.526972 -43.851417 
L 161.659347 -43.681814 
L 158.791723 -43.490555 
L 155.924098 -43.279435 
L 153.056474 -43.050458 
L 150.188849 -42.805801 
L 147.321225 -42.547773 
L 144.4536 -42.278773 
L 141.585976 -42.001249 
L 138.718351 -41.717654 
L 135.850727 -41.430407 
L 132.983102 -41.141855 
L 130.115478 -40.854237 
L 127.247853 -40.569655 
L 124.380229 -40.290046 
L 121.512604 -40.017165 
L 118.64498 -39.752564 
L 115.777355 -39.497584 
L 112.909731 -39.253352 
L 110.042106 -39.020774 
L 107.174482 -38.800547 
L 104.306857 -38.59316 
L 101.439233 -38.398907 
L 98.571608 -38.217906 
L 95.703984 -38.050109 
L 92.83636 -37.895324 
L 89.968735 -37.753231 
L 87.101111 -37.623406 
L 84.233486 -37.505334 
L 81.365862 -37.398435 
L 78.498237 -37.302073 
L 75.630613 -37.215582 
L 72.762988 -37.138273 
L 69.895364 -37.06945 
z
" style="stroke: #000000; stroke-width: 0.5"/>
    </defs>
    <g clip-path="url(#pe418b25dcb)">
     <use xlink:href="#m71f77cc4b7" x="0" y="569.2125" style="fill: #fe9200; fill-opacity: 0.75; stroke: #000000; stroke-width: 0.5"/>
    </g>
   </g>
   <g id="PolyCollection_2">
    <defs>
     <path id="m02ec7d94be" d="M 69.895364 -37.071831 
L 69.895364 -37.06945 
L 72.762988 -37.138273 
L 75.630613 -37.215582 
L 78.498237 -37.302073 
L 81.365862 -37.398435 
L 84.233486 -37.505334 
L 87.101111 -37.623406 
L 89.968735 -37.753231 
L 92.83636 -37.895324 
L 95.703984 -38.050109 
L 98.571608 -38.217906 
L 101.439233 -38.398907 
L 104.306857 -38.59316 
L 107.174482 -38.800547 
L 110.042106 -39.020774 
L 112.909731 -39.253352 
L 115.777355 -39.497584 
L 118.64498 -39.752564 
L 121.512604 -40.017165 
L 124.380229 -40.290046 
L 127.247853 -40.569655 
L 130.115478 -40.854237 
L 132.983102 -41.141855 
L 135.850727 -41.430407 
L 138.718351 -41.717654 
L 141.585976 -42.001249 
L 144.4536 -42.278773 
L 147.321225 -42.547773 
L 150.188849 -42.805801 
L 153.056474 -43.050458 
L 155.924098 -43.279435 
L 158.791723 -43.490555 
L 161.659347 -43.681814 
L 164.526972 -43.851417 
L 167.394596 -43.997813 
L 170.262221 -44.119723 
L 173.129845 -44.216163 
L 175.99747 -44.286458 
L 178.865094 -44.330257 
L 181.732719 -44.347533 
L 184.600343 -44.338581 
L 187.467968 -44.304003 
L 190.335592 -44.244697 
L 193.203217 -44.16183 
L 196.070841 -44.056809 
L 198.938466 -43.931254 
L 201.80609 -43.786954 
L 204.673714 -43.625838 
L 207.541339 -43.449931 
L 210.408963 -43.261315 
L 213.276588 -43.062092 
L 216.144212 -42.854349 
L 219.011837 -42.640123 
L 221.879461 -42.421372 
L 224.747086 -42.199951 
L 227.61471 -41.977588 
L 230.482335 -41.755869 
L 233.349959 -41.536226 
L 236.217584 -41.319933 
L 239.085208 -41.108099 
L 241.952833 -40.901672 
L 244.820457 -40.701445 
L 247.688082 -40.508061 
L 250.555706 -40.322027 
L 253.423331 -40.143725 
L 256.290955 -39.973427 
L 259.15858 -39.811305 
L 262.026204 -39.657452 
L 264.893829 -39.511887 
L 267.761453 -39.374575 
L 270.629078 -39.245435 
L 273.496702 -39.124352 
L 276.364327 -39.01118 
L 279.231951 -38.905757 
L 282.099576 -38.807903 
L 284.9672 -38.717424 
L 287.834825 -38.634119 
L 290.702449 -38.557775 
L 293.570074 -38.488168 
L 296.437698 -38.425065 
L 299.305323 -38.368218 
L 302.172947 -38.317365 
L 305.040571 -38.272229 
L 307.908196 -38.232512 
L 310.77582 -38.197901 
L 313.643445 -38.168059 
L 316.511069 -38.142633 
L 319.378694 -38.121249 
L 322.246318 -38.103517 
L 325.113943 -38.089032 
L 327.981567 -38.077378 
L 330.849192 -38.068129 
L 333.716816 -38.06086 
L 336.584441 -38.055142 
L 339.452065 -38.050556 
L 342.31969 -38.046694 
L 345.187314 -38.043164 
L 348.054939 -38.039597 
L 350.922563 -38.03565 
L 353.790188 -38.031013 
L 356.657812 -38.025411 
L 359.525437 -38.018608 
L 362.393061 -38.01041 
L 365.260686 -38.000667 
L 368.12831 -37.989272 
L 370.995935 -37.976164 
L 373.863559 -37.961326 
L 376.731184 -37.944782 
L 379.598808 -37.926599 
L 382.466433 -37.906877 
L 385.334057 -37.88575 
L 388.201682 -37.863383 
L 391.069306 -37.83996 
L 393.936931 -37.815687 
L 396.804555 -37.790781 
L 399.67218 -37.765464 
L 402.539804 -37.739963 
L 405.407429 -37.7145 
L 408.275053 -37.689287 
L 411.142677 -37.664524 
L 414.010302 -37.640392 
L 416.877926 -37.617052 
L 419.745551 -37.594642 
L 422.613175 -37.573272 
L 425.4808 -37.553027 
L 428.348424 -37.533962 
L 431.216049 -37.516106 
L 434.083673 -37.49946 
L 436.951298 -37.484 
L 439.818922 -37.469676 
L 442.686547 -37.45642 
L 445.554171 -37.444143 
L 448.421796 -37.432742 
L 451.28942 -37.4221 
L 454.157045 -37.412093 
L 457.024669 -37.402591 
L 459.892294 -37.39346 
L 462.759918 -37.38457 
L 465.627543 -37.375793 
L 468.495167 -37.367008 
L 471.362792 -37.358103 
L 474.230416 -37.348976 
L 477.098041 -37.339538 
L 479.965665 -37.329713 
L 482.83329 -37.31944 
L 485.700914 -37.308672 
L 488.568539 -37.297377 
L 491.436163 -37.285537 
L 494.303788 -37.273148 
L 497.171412 -37.26022 
L 500.039037 -37.246774 
L 502.906661 -37.232841 
L 505.774286 -37.218463 
L 508.64191 -37.203689 
L 511.509534 -37.188577 
L 514.377159 -37.173186 
L 517.244783 -37.157584 
L 520.112408 -37.141837 
L 522.980032 -37.126014 
L 525.847657 -37.110186 
L 528.715281 -37.094418 
L 531.582906 -37.078776 
L 534.45053 -37.063322 
L 537.318155 -37.048114 
L 540.185779 -37.033204 
L 543.053404 -37.018638 
L 545.921028 -37.004456 
L 548.788653 -36.990692 
L 551.656277 -36.977373 
L 554.523902 -36.964516 
L 557.391526 -36.952133 
L 560.259151 -36.940228 
L 563.126775 -36.928797 
L 565.9944 -36.917829 
L 568.862024 -36.907307 
L 571.729649 -36.897208 
L 574.597273 -36.887504 
L 577.464898 -36.878162 
L 580.332522 -36.869145 
L 583.200147 -36.860417 
L 586.067771 -36.851935 
L 588.935396 -36.843661 
L 591.80302 -36.835556 
L 594.670645 -36.827581 
L 597.538269 -36.819704 
L 600.405894 -36.811893 
L 603.273518 -36.804122 
L 606.141143 -36.796371 
L 609.008767 -36.788625 
L 611.876392 -36.780874 
L 614.744016 -36.773116 
L 617.61164 -36.765353 
L 620.479265 -36.757593 
L 623.346889 -36.74985 
L 626.214514 -36.742142 
L 629.082138 -36.73449 
L 631.949763 -36.72692 
L 634.817387 -36.719458 
L 637.685012 -36.712133 
L 640.552636 -36.704974 
L 640.552636 -36.704974 
L 640.552636 -36.704974 
L 637.685012 -36.712133 
L 634.817387 -36.719458 
L 631.949763 -36.72692 
L 629.082138 -36.73449 
L 626.214514 -36.742142 
L 623.346889 -36.74985 
L 620.479265 -36.757593 
L 617.61164 -36.765353 
L 614.744016 -36.773116 
L 611.876392 -36.780874 
L 609.008767 -36.788625 
L 606.141143 -36.796371 
L 603.273518 -36.804122 
L 600.405894 -36.811893 
L 597.538269 -36.819704 
L 594.670645 -36.827581 
L 591.80302 -36.835556 
L 588.935396 -36.843661 
L 586.067771 -36.851935 
L 583.200147 -36.860417 
L 580.332522 -36.869145 
L 577.464898 -36.878162 
L 574.597273 -36.887504 
L 571.729649 -36.897208 
L 568.862024 -36.907307 
L 565.9944 -36.917829 
L 563.126775 -36.928797 
L 560.259151 -36.940228 
L 557.391526 -36.952133 
L 554.523902 -36.964516 
L 551.656277 -36.977373 
L 548.788653 -36.990692 
L 545.921028 -37.004456 
L 543.053404 -37.018638 
L 540.185779 -37.033204 
L 537.318155 -37.048114 
L 534.45053 -37.063322 
L 531.582906 -37.078776 
L 528.715281 -37.094418 
L 525.847657 -37.110186 
L 522.980032 -37.126014 
L 520.112408 -37.141837 
L 517.244783 -37.157584 
L 514.377159 -37.173186 
L 511.509534 -37.188577 
L 508.64191 -37.203689 
L 505.774286 -37.218463 
L 502.906661 -37.232841 
L 500.039037 -37.246774 
L 497.171412 -37.26022 
L 494.303788 -37.273148 
L 491.436163 -37.285537 
L 488.568539 -37.297377 
L 485.700914 -37.308672 
L 482.83329 -37.31944 
L 479.965665 -37.329713 
L 477.098041 -37.339538 
L 474.230416 -37.348976 
L 471.362792 -37.358103 
L 468.495167 -37.367008 
L 465.627543 -37.375793 
L 462.759918 -37.38457 
L 459.892294 -37.39346 
L 457.024669 -37.402591 
L 454.157045 -37.412093 
L 451.28942 -37.4221 
L 448.421796 -37.432742 
L 445.554171 -37.444143 
L 442.686547 -37.45642 
L 439.818922 -37.469676 
L 436.951298 -37.484 
L 434.083673 -37.49946 
L 431.216049 -37.516106 
L 428.348424 -37.533962 
L 425.4808 -37.553027 
L 422.613175 -37.573272 
L 419.745551 -37.594642 
L 416.877926 -37.617052 
L 414.010302 -37.640392 
L 411.142677 -37.664524 
L 408.275053 -37.689287 
L 405.407429 -37.7145 
L 402.539804 -37.739963 
L 399.67218 -37.765464 
L 396.804555 -37.790781 
L 393.936931 -37.815687 
L 391.069306 -37.83996 
L 388.201682 -37.863383 
L 385.334057 -37.885752 
L 382.466433 -37.906883 
L 379.598808 -37.926626 
L 376.731184 -37.944895 
L 373.863559 -37.961744 
L 370.995935 -37.97756 
L 368.12831 -37.993452 
L 365.260686 -38.011889 
L 362.393061 -38.037426 
L 359.525437 -38.076931 
L 356.657812 -38.138322 
L 353.790188 -38.227032 
L 350.922563 -38.340813 
L 348.054939 -38.465623 
L 345.187314 -38.576512 
L 342.31969 -38.645458 
L 339.452065 -38.653353 
L 336.584441 -38.599339 
L 333.716816 -38.501427 
L 330.849192 -38.387973 
L 327.981567 -38.285603 
L 325.113943 -38.210595 
L 322.246318 -38.167158 
L 319.378694 -38.151127 
L 316.511069 -38.155211 
L 313.643445 -38.172808 
L 310.77582 -38.199509 
L 307.908196 -38.233001 
L 305.040571 -38.272362 
L 302.172947 -38.317398 
L 299.305323 -38.368225 
L 296.437698 -38.425066 
L 293.570074 -38.488168 
L 290.702449 -38.557775 
L 287.834825 -38.634119 
L 284.9672 -38.717424 
L 282.099576 -38.807903 
L 279.231951 -38.905758 
L 276.364327 -39.011181 
L 273.496702 -39.124354 
L 270.629078 -39.245448 
L 267.761453 -39.374643 
L 264.893829 -39.512222 
L 262.026204 -39.65892 
L 259.15858 -39.817074 
L 256.290955 -39.993746 
L 253.423331 -40.20791 
L 250.555706 -40.503845 
L 247.688082 -40.96992 
L 244.820457 -41.753538 
L 241.952833 -43.050849 
L 239.085208 -45.045142 
L 236.217584 -47.787898 
L 233.349959 -51.066892 
L 230.482335 -54.357111 
L 227.61471 -56.945728 
L 224.747086 -58.231232 
L 221.879461 -58.06885 
L 219.011837 -56.975371 
L 216.144212 -56.071973 
L 213.276588 -56.771884 
L 210.408963 -60.303147 
L 207.541339 -67.177529 
L 204.673714 -76.756307 
L 201.80609 -87.150478 
L 198.938466 -95.694507 
L 196.070841 -99.993778 
L 193.203217 -99.146634 
L 190.335592 -94.513864 
L 187.467968 -89.594917 
L 184.600343 -89.018739 
L 181.732719 -96.983876 
L 178.865094 -115.547829 
L 175.99747 -143.214671 
L 173.129845 -174.48057 
L 170.262221 -201.039443 
L 167.394596 -214.702707 
L 164.526972 -210.873375 
L 161.659347 -190.645063 
L 158.791723 -160.209122 
L 155.924098 -127.956197 
L 153.056474 -101.055277 
L 150.188849 -83.286561 
L 147.321225 -74.752026 
L 144.4536 -72.939831 
L 141.585976 -74.256809 
L 138.718351 -75.413913 
L 135.850727 -74.387282 
L 132.983102 -70.822949 
L 130.115478 -65.842891 
L 127.247853 -61.381662 
L 124.380229 -59.343243 
L 121.512604 -60.869007 
L 118.64498 -65.886042 
L 115.777355 -73.020684 
L 112.909731 -79.950959 
L 110.042106 -84.189854 
L 107.174482 -84.052472 
L 104.306857 -79.336653 
L 101.439233 -71.319501 
L 98.571608 -62.076949 
L 95.703984 -53.557681 
L 92.83636 -46.934245 
L 89.968735 -42.477817 
L 87.101111 -39.83794 
L 84.233486 -38.436168 
L 81.365862 -37.749293 
L 78.498237 -37.420667 
L 75.630613 -37.251529 
L 72.762988 -37.148043 
L 69.895364 -37.071831 
z
" style="stroke: #000000; stroke-width: 0.5"/>
    </defs>
    <g clip-path="url(#pe418b25dcb)">
     <use xlink:href="#m02ec7d94be" x="0" y="569.2125" style="fill: #ffa400; fill-opacity: 0.75; stroke: #000000; stroke-width: 0.5"/>
    </g>
   </g>
   <g id="PolyCollection_3">
    <defs>
     <path id="m5e215f936d" d="M 69.895364 -37.087271 
L 69.895364 -37.071831 
L 72.762988 -37.148043 
L 75.630613 -37.251529 
L 78.498237 -37.420667 
L 81.365862 -37.749293 
L 84.233486 -38.436168 
L 87.101111 -39.83794 
L 89.968735 -42.477817 
L 92.83636 -46.934245 
L 95.703984 -53.557681 
L 98.571608 -62.076949 
L 101.439233 -71.319501 
L 104.306857 -79.336653 
L 107.174482 -84.052472 
L 110.042106 -84.189854 
L 112.909731 -79.950959 
L 115.777355 -73.020684 
L 118.64498 -65.886042 
L 121.512604 -60.869007 
L 124.380229 -59.343243 
L 127.247853 -61.381662 
L 130.115478 -65.842891 
L 132.983102 -70.822949 
L 135.850727 -74.387282 
L 138.718351 -75.413913 
L 141.585976 -74.256809 
L 144.4536 -72.939831 
L 147.321225 -74.752026 
L 150.188849 -83.286561 
L 153.056474 -101.055277 
L 155.924098 -127.956197 
L 158.791723 -160.209122 
L 161.659347 -190.645063 
L 164.526972 -210.873375 
L 167.394596 -214.702707 
L 170.262221 -201.039443 
L 173.129845 -174.48057 
L 175.99747 -143.214671 
L 178.865094 -115.547829 
L 181.732719 -96.983876 
L 184.600343 -89.018739 
L 187.467968 -89.594917 
L 190.335592 -94.513864 
L 193.203217 -99.146634 
L 196.070841 -99.993778 
L 198.938466 -95.694507 
L 201.80609 -87.150478 
L 204.673714 -76.756307 
L 207.541339 -67.177529 
L 210.408963 -60.303147 
L 213.276588 -56.771884 
L 216.144212 -56.071973 
L 219.011837 -56.975371 
L 221.879461 -58.06885 
L 224.747086 -58.231232 
L 227.61471 -56.945728 
L 230.482335 -54.357111 
L 233.349959 -51.066892 
L 236.217584 -47.787898 
L 239.085208 -45.045142 
L 241.952833 -43.050849 
L 244.820457 -41.753538 
L 247.688082 -40.96992 
L 250.555706 -40.503845 
L 253.423331 -40.20791 
L 256.290955 -39.993746 
L 259.15858 -39.817074 
L 262.026204 -39.65892 
L 264.893829 -39.512222 
L 267.761453 -39.374643 
L 270.629078 -39.245448 
L 273.496702 -39.124354 
L 276.364327 -39.011181 
L 279.231951 -38.905758 
L 282.099576 -38.807903 
L 284.9672 -38.717424 
L 287.834825 -38.634119 
L 290.702449 -38.557775 
L 293.570074 -38.488168 
L 296.437698 -38.425066 
L 299.305323 -38.368225 
L 302.172947 -38.317398 
L 305.040571 -38.272362 
L 307.908196 -38.233001 
L 310.77582 -38.199509 
L 313.643445 -38.172808 
L 316.511069 -38.155211 
L 319.378694 -38.151127 
L 322.246318 -38.167158 
L 325.113943 -38.210595 
L 327.981567 -38.285603 
L 330.849192 -38.387973 
L 333.716816 -38.501427 
L 336.584441 -38.599339 
L 339.452065 -38.653353 
L 342.31969 -38.645458 
L 345.187314 -38.576512 
L 348.054939 -38.465623 
L 350.922563 -38.340813 
L 353.790188 -38.227032 
L 356.657812 -38.138322 
L 359.525437 -38.076931 
L 362.393061 -38.037426 
L 365.260686 -38.011889 
L 368.12831 -37.993452 
L 370.995935 -37.97756 
L 373.863559 -37.961744 
L 376.731184 -37.944895 
L 379.598808 -37.926626 
L 382.466433 -37.906883 
L 385.334057 -37.885752 
L 388.201682 -37.863383 
L 391.069306 -37.83996 
L 393.936931 -37.815687 
L 396.804555 -37.790781 
L 399.67218 -37.765464 
L 402.539804 -37.739963 
L 405.407429 -37.7145 
L 408.275053 -37.689287 
L 411.142677 -37.664524 
L 414.010302 -37.640392 
L 416.877926 -37.617052 
L 419.745551 -37.594642 
L 422.613175 -37.573272 
L 425.4808 -37.553027 
L 428.348424 -37.533962 
L 431.216049 -37.516106 
L 434.083673 -37.49946 
L 436.951298 -37.484 
L 439.818922 -37.469676 
L 442.686547 -37.45642 
L 445.554171 -37.444143 
L 448.421796 -37.432742 
L 451.28942 -37.4221 
L 454.157045 -37.412093 
L 457.024669 -37.402591 
L 459.892294 -37.39346 
L 462.759918 -37.38457 
L 465.627543 -37.375793 
L 468.495167 -37.367008 
L 471.362792 -37.358103 
L 474.230416 -37.348976 
L 477.098041 -37.339538 
L 479.965665 -37.329713 
L 482.83329 -37.31944 
L 485.700914 -37.308672 
L 488.568539 -37.297377 
L 491.436163 -37.285537 
L 494.303788 -37.273148 
L 497.171412 -37.26022 
L 500.039037 -37.246774 
L 502.906661 -37.232841 
L 505.774286 -37.218463 
L 508.64191 -37.203689 
L 511.509534 -37.188577 
L 514.377159 -37.173186 
L 517.244783 -37.157584 
L 520.112408 -37.141837 
L 522.980032 -37.126014 
L 525.847657 -37.110186 
L 528.715281 -37.094418 
L 531.582906 -37.078776 
L 534.45053 -37.063322 
L 537.318155 -37.048114 
L 540.185779 -37.033204 
L 543.053404 -37.018638 
L 545.921028 -37.004456 
L 548.788653 -36.990692 
L 551.656277 -36.977373 
L 554.523902 -36.964516 
L 557.391526 -36.952133 
L 560.259151 -36.940228 
L 563.126775 -36.928797 
L 565.9944 -36.917829 
L 568.862024 -36.907307 
L 571.729649 -36.897208 
L 574.597273 -36.887504 
L 577.464898 -36.878162 
L 580.332522 -36.869145 
L 583.200147 -36.860417 
L 586.067771 -36.851935 
L 588.935396 -36.843661 
L 591.80302 -36.835556 
L 594.670645 -36.827581 
L 597.538269 -36.819704 
L 600.405894 -36.811893 
L 603.273518 -36.804122 
L 606.141143 -36.796371 
L 609.008767 -36.788625 
L 611.876392 -36.780874 
L 614.744016 -36.773116 
L 617.61164 -36.765353 
L 620.479265 -36.757593 
L 623.346889 -36.74985 
L 626.214514 -36.742142 
L 629.082138 -36.73449 
L 631.949763 -36.72692 
L 634.817387 -36.719458 
L 637.685012 -36.712133 
L 640.552636 -36.704974 
L 640.552636 -36.704974 
L 640.552636 -36.704974 
L 637.685012 -36.712133 
L 634.817387 -36.719458 
L 631.949763 -36.72692 
L 629.082138 -36.73449 
L 626.214514 -36.742142 
L 623.346889 -36.74985 
L 620.479265 -36.757593 
L 617.61164 -36.765353 
L 614.744016 -36.773116 
L 611.876392 -36.780874 
L 609.008767 -36.788625 
L 606.141143 -36.796371 
L 603.273518 -36.804122 
L 600.405894 -36.811893 
L 597.538269 -36.819704 
L 594.670645 -36.827581 
L 591.80302 -36.835556 
L 588.935396 -36.843661 
L 586.067771 -36.851935 
L 583.200147 -36.860417 
L 580.332522 -36.869145 
L 577.464898 -36.878162 
L 574.597273 -36.887504 
L 571.729649 -36.897208 
L 568.862024 -36.907307 
L 565.9944 -36.917829 
L 563.126775 -36.928797 
L 560.259151 -36.940228 
L 557.391526 -36.952133 
L 554.523902 -36.964516 
L 551.656277 -36.977373 
L 548.788653 -36.990692 
L 545.921028 -37.004456 
L 543.053404 -37.018638 
L 540.185779 -37.033204 
L 537.318155 -37.048114 
L 534.45053 -37.063322 
L 531.582906 -37.078776 
L 528.715281 -37.094418 
L 525.847657 -37.110186 
L 522.980032 -37.126014 
L 520.112408 -37.141837 
L 517.244783 -37.157584 
L 514.377159 -37.173186 
L 511.509534 -37.188577 
L 508.64191 -37.203689 
L 505.774286 -37.218463 
L 502.906661 -37.232841 
L 500.039037 -37.246774 
L 497.171412 -37.26022 
L 494.303788 -37.273148 
L 491.436163 -37.285537 
L 488.568539 -37.297377 
L 485.700914 -37.308672 
L 482.83329 -37.31944 
L 479.965665 -37.329713 
L 477.098041 -37.339538 
L 474.230416 -37.348976 
L 471.362792 -37.358103 
L 468.495167 -37.367008 
L 465.627543 -37.375793 
L 462.759918 -37.38457 
L 459.892294 -37.39346 
L 457.024669 -37.402591 
L 454.157045 -37.412093 
L 451.28942 -37.4221 
L 448.421796 -37.432742 
L 445.554171 -37.444143 
L 442.686547 -37.45642 
L 439.818922 -37.469676 
L 436.951298 -37.484 
L 434.083673 -37.49946 
L 431.216049 -37.516106 
L 428.348424 -37.533962 
L 425.4808 -37.553027 
L 422.613175 -37.573272 
L 419.745551 -37.594642 
L 416.877926 -37.617052 
L 414.010302 -37.640392 
L 411.142677 -37.664524 
L 408.275053 -37.689287 
L 405.407429 -37.7145 
L 402.539804 -37.739963 
L 399.67218 -37.765464 
L 396.804555 -37.790781 
L 393.936931 -37.815687 
L 391.069306 -37.83996 
L 388.201682 -37.863383 
L 385.334057 -37.885752 
L 382.466433 -37.906883 
L 379.598808 -37.926626 
L 376.731184 -37.944895 
L 373.863559 -37.961744 
L 370.995935 -37.97756 
L 368.12831 -37.993452 
L 365.260686 -38.011889 
L 362.393061 -38.037426 
L 359.525437 -38.076931 
L 356.657812 -38.138322 
L 353.790188 -38.227032 
L 350.922563 -38.340813 
L 348.054939 -38.465623 
L 345.187314 -38.576512 
L 342.31969 -38.645458 
L 339.452065 -38.653353 
L 336.584441 -38.599339 
L 333.716816 -38.501427 
L 330.849192 -38.387973 
L 327.981567 -38.285603 
L 325.113943 -38.210595 
L 322.246318 -38.167158 
L 319.378694 -38.151127 
L 316.511069 -38.155211 
L 313.643445 -38.172808 
L 310.77582 -38.199509 
L 307.908196 -38.233001 
L 305.040571 -38.272362 
L 302.172947 -38.317398 
L 299.305323 -38.368226 
L 296.437698 -38.425072 
L 293.570074 -38.488194 
L 290.702449 -38.557878 
L 287.834825 -38.634494 
L 284.9672 -38.718649 
L 282.099576 -38.811507 
L 279.231951 -38.915323 
L 276.364327 -39.034075 
L 273.496702 -39.17376 
L 270.629078 -39.341587 
L 267.761453 -39.543346 
L 264.893829 -39.779238 
L 262.026204 -40.040358 
L 259.15858 -40.309741 
L 256.290955 -40.571984 
L 253.423331 -40.833138 
L 250.555706 -41.148704 
L 247.688082 -41.65237 
L 244.820457 -42.570072 
L 241.952833 -44.193467 
L 239.085208 -46.784842 
L 236.217584 -50.412271 
L 233.349959 -54.776956 
L 230.482335 -59.157513 
L 227.61471 -62.586429 
L 224.747086 -64.253571 
L 221.879461 -63.965663 
L 219.011837 -62.415216 
L 216.144212 -61.098991 
L 213.276588 -61.895527 
L 210.408963 -66.425334 
L 207.541339 -75.34966 
L 204.673714 -87.81296 
L 201.80609 -101.334842 
L 198.938466 -112.446725 
L 196.070841 -118.059282 
L 193.203217 -117.043783 
L 190.335592 -111.22618 
L 187.467968 -105.22655 
L 184.600343 -105.139675 
L 181.732719 -116.474344 
L 178.865094 -141.879287 
L 175.99747 -179.276059 
L 173.129845 -221.289812 
L 170.262221 -256.888359 
L 167.394596 -275.266424 
L 164.526972 -270.438623 
L 161.659347 -244.02627 
L 158.791723 -204.517605 
L 155.924098 -163.461918 
L 153.056474 -130.856613 
L 150.188849 -112.027206 
L 147.321225 -106.913848 
L 144.4536 -111.287233 
L 141.585976 -118.939841 
L 138.718351 -124.089777 
L 135.850727 -123.429074 
L 132.983102 -117.273909 
L 130.115478 -109.431852 
L 127.247853 -105.825503 
L 124.380229 -112.325408 
L 121.512604 -132.389503 
L 118.64498 -165.121189 
L 115.777355 -204.486202 
L 112.909731 -240.463666 
L 110.042106 -262.302369 
L 107.174482 -262.761824 
L 104.306857 -241.173569 
L 101.439233 -203.511971 
L 98.571608 -159.449542 
L 95.703984 -118.232211 
L 92.83636 -85.667529 
L 89.968735 -63.394152 
L 87.101111 -50.022345 
L 84.233486 -42.907469 
L 81.365862 -39.519322 
L 78.498237 -38.05246 
L 75.630613 -37.454866 
L 72.762988 -37.207051 
L 69.895364 -37.087271 
z
" style="stroke: #000000; stroke-width: 0.5"/>
    </defs>
    <g clip-path="url(#pe418b25dcb)">
     <use xlink:href="#m5e215f936d" x="0" y="569.2125" style="fill: #ffb500; fill-opacity: 0.75; stroke: #000000; stroke-width: 0.5"/>
    </g>
   </g>
   <g id="PolyCollection_4">
    <defs>
     <path id="m3401cb12f7" d="M 69.895364 -39.351336 
L 69.895364 -37.087271 
L 72.762988 -37.207051 
L 75.630613 -37.454866 
L 78.498237 -38.05246 
L 81.365862 -39.519322 
L 84.233486 -42.907469 
L 87.101111 -50.022345 
L 89.968735 -63.394152 
L 92.83636 -85.667529 
L 95.703984 -118.232211 
L 98.571608 -159.449542 
L 101.439233 -203.511971 
L 104.306857 -241.173569 
L 107.174482 -262.761824 
L 110.042106 -262.302369 
L 112.909731 -240.463666 
L 115.777355 -204.486202 
L 118.64498 -165.121189 
L 121.512604 -132.389503 
L 124.380229 -112.325408 
L 127.247853 -105.825503 
L 130.115478 -109.431852 
L 132.983102 -117.273909 
L 135.850727 -123.429074 
L 138.718351 -124.089777 
L 141.585976 -118.939841 
L 144.4536 -111.287233 
L 147.321225 -106.913848 
L 150.188849 -112.027206 
L 153.056474 -130.856613 
L 155.924098 -163.461918 
L 158.791723 -204.517605 
L 161.659347 -244.02627 
L 164.526972 -270.438623 
L 167.394596 -275.266424 
L 170.262221 -256.888359 
L 173.129845 -221.289812 
L 175.99747 -179.276059 
L 178.865094 -141.879287 
L 181.732719 -116.474344 
L 184.600343 -105.139675 
L 187.467968 -105.22655 
L 190.335592 -111.22618 
L 193.203217 -117.043783 
L 196.070841 -118.059282 
L 198.938466 -112.446725 
L 201.80609 -101.334842 
L 204.673714 -87.81296 
L 207.541339 -75.34966 
L 210.408963 -66.425334 
L 213.276588 -61.895527 
L 216.144212 -61.098991 
L 219.011837 -62.415216 
L 221.879461 -63.965663 
L 224.747086 -64.253571 
L 227.61471 -62.586429 
L 230.482335 -59.157513 
L 233.349959 -54.776956 
L 236.217584 -50.412271 
L 239.085208 -46.784842 
L 241.952833 -44.193467 
L 244.820457 -42.570072 
L 247.688082 -41.65237 
L 250.555706 -41.148704 
L 253.423331 -40.833138 
L 256.290955 -40.571984 
L 259.15858 -40.309741 
L 262.026204 -40.040358 
L 264.893829 -39.779238 
L 267.761453 -39.543346 
L 270.629078 -39.341587 
L 273.496702 -39.17376 
L 276.364327 -39.034075 
L 279.231951 -38.915323 
L 282.099576 -38.811507 
L 284.9672 -38.718649 
L 287.834825 -38.634494 
L 290.702449 -38.557878 
L 293.570074 -38.488194 
L 296.437698 -38.425072 
L 299.305323 -38.368226 
L 302.172947 -38.317398 
L 305.040571 -38.272362 
L 307.908196 -38.233001 
L 310.77582 -38.199509 
L 313.643445 -38.172808 
L 316.511069 -38.155211 
L 319.378694 -38.151127 
L 322.246318 -38.167158 
L 325.113943 -38.210595 
L 327.981567 -38.285603 
L 330.849192 -38.387973 
L 333.716816 -38.501427 
L 336.584441 -38.599339 
L 339.452065 -38.653353 
L 342.31969 -38.645458 
L 345.187314 -38.576512 
L 348.054939 -38.465623 
L 350.922563 -38.340813 
L 353.790188 -38.227032 
L 356.657812 -38.138322 
L 359.525437 -38.076931 
L 362.393061 -38.037426 
L 365.260686 -38.011889 
L 368.12831 -37.993452 
L 370.995935 -37.97756 
L 373.863559 -37.961744 
L 376.731184 -37.944895 
L 379.598808 -37.926626 
L 382.466433 -37.906883 
L 385.334057 -37.885752 
L 388.201682 -37.863383 
L 391.069306 -37.83996 
L 393.936931 -37.815687 
L 396.804555 -37.790781 
L 399.67218 -37.765464 
L 402.539804 -37.739963 
L 405.407429 -37.7145 
L 408.275053 -37.689287 
L 411.142677 -37.664524 
L 414.010302 -37.640392 
L 416.877926 -37.617052 
L 419.745551 -37.594642 
L 422.613175 -37.573272 
L 425.4808 -37.553027 
L 428.348424 -37.533962 
L 431.216049 -37.516106 
L 434.083673 -37.49946 
L 436.951298 -37.484 
L 439.818922 -37.469676 
L 442.686547 -37.45642 
L 445.554171 -37.444143 
L 448.421796 -37.432742 
L 451.28942 -37.4221 
L 454.157045 -37.412093 
L 457.024669 -37.402591 
L 459.892294 -37.39346 
L 462.759918 -37.38457 
L 465.627543 -37.375793 
L 468.495167 -37.367008 
L 471.362792 -37.358103 
L 474.230416 -37.348976 
L 477.098041 -37.339538 
L 479.965665 -37.329713 
L 482.83329 -37.31944 
L 485.700914 -37.308672 
L 488.568539 -37.297377 
L 491.436163 -37.285537 
L 494.303788 -37.273148 
L 497.171412 -37.26022 
L 500.039037 -37.246774 
L 502.906661 -37.232841 
L 505.774286 -37.218463 
L 508.64191 -37.203689 
L 511.509534 -37.188577 
L 514.377159 -37.173186 
L 517.244783 -37.157584 
L 520.112408 -37.141837 
L 522.980032 -37.126014 
L 525.847657 -37.110186 
L 528.715281 -37.094418 
L 531.582906 -37.078776 
L 534.45053 -37.063322 
L 537.318155 -37.048114 
L 540.185779 -37.033204 
L 543.053404 -37.018638 
L 545.921028 -37.004456 
L 548.788653 -36.990692 
L 551.656277 -36.977373 
L 554.523902 -36.964516 
L 557.391526 -36.952133 
L 560.259151 -36.940228 
L 563.126775 -36.928797 
L 565.9944 -36.917829 
L 568.862024 -36.907307 
L 571.729649 -36.897208 
L 574.597273 -36.887504 
L 577.464898 -36.878162 
L 580.332522 -36.869145 
L 583.200147 -36.860417 
L 586.067771 -36.851935 
L 588.935396 -36.843661 
L 591.80302 -36.835556 
L 594.670645 -36.827581 
L 597.538269 -36.819704 
L 600.405894 -36.811893 
L 603.273518 -36.804122 
L 606.141143 -36.796371 
L 609.008767 -36.788625 
L 611.876392 -36.780874 
L 614.744016 -36.773116 
L 617.61164 -36.765353 
L 620.479265 -36.757593 
L 623.346889 -36.74985 
L 626.214514 -36.742142 
L 629.082138 -36.73449 
L 631.949763 -36.72692 
L 634.817387 -36.719458 
L 637.685012 -36.712133 
L 640.552636 -36.704974 
L 640.552636 -36.772369 
L 640.552636 -36.772369 
L 637.685012 -36.790165 
L 634.817387 -36.80945 
L 631.949763 -36.830301 
L 629.082138 -36.852793 
L 626.214514 -36.877 
L 623.346889 -36.902994 
L 620.479265 -36.930844 
L 617.61164 -36.960615 
L 614.744016 -36.992369 
L 611.876392 -37.026157 
L 609.008767 -37.062026 
L 606.141143 -37.100012 
L 603.273518 -37.140142 
L 600.405894 -37.182427 
L 597.538269 -37.226869 
L 594.670645 -37.273451 
L 591.80302 -37.322143 
L 588.935396 -37.372897 
L 586.067771 -37.425646 
L 583.200147 -37.480308 
L 580.332522 -37.53678 
L 577.464898 -37.594943 
L 574.597273 -37.654662 
L 571.729649 -37.715784 
L 568.862024 -37.778143 
L 565.9944 -37.84156 
L 563.126775 -37.905845 
L 560.259151 -37.9708 
L 557.391526 -38.036221 
L 554.523902 -38.101902 
L 551.656277 -38.167634 
L 548.788653 -38.233211 
L 545.921028 -38.298433 
L 543.053404 -38.363104 
L 540.185779 -38.427041 
L 537.318155 -38.490068 
L 534.45053 -38.552024 
L 531.582906 -38.612763 
L 528.715281 -38.672153 
L 525.847657 -38.730078 
L 522.980032 -38.786439 
L 520.112408 -38.841154 
L 517.244783 -38.894156 
L 514.377159 -38.945396 
L 511.509534 -38.994838 
L 508.64191 -39.042463 
L 505.774286 -39.088264 
L 502.906661 -39.132247 
L 500.039037 -39.174428 
L 497.171412 -39.214835 
L 494.303788 -39.253502 
L 491.436163 -39.29047 
L 488.568539 -39.325787 
L 485.700914 -39.359504 
L 482.83329 -39.391674 
L 479.965665 -39.422353 
L 477.098041 -39.451595 
L 474.230416 -39.479455 
L 471.362792 -39.505983 
L 468.495167 -39.531228 
L 465.627543 -39.555233 
L 462.759918 -39.578039 
L 459.892294 -39.59968 
L 457.024669 -39.620183 
L 454.157045 -39.639572 
L 451.28942 -39.657862 
L 448.421796 -39.675064 
L 445.554171 -39.691183 
L 442.686547 -39.706218 
L 439.818922 -39.720161 
L 436.951298 -39.733001 
L 434.083673 -39.744722 
L 431.216049 -39.755305 
L 428.348424 -39.764727 
L 425.4808 -39.772961 
L 422.613175 -39.779981 
L 419.745551 -39.785759 
L 416.877926 -39.790268 
L 414.010302 -39.793483 
L 411.142677 -39.795382 
L 408.275053 -39.795947 
L 405.407429 -39.795168 
L 402.539804 -39.793041 
L 399.67218 -39.789576 
L 396.804555 -39.784793 
L 393.936931 -39.778728 
L 391.069306 -39.771434 
L 388.201682 -39.762987 
L 385.334057 -39.753481 
L 382.466433 -39.743039 
L 379.598808 -39.731823 
L 376.731184 -39.720054 
L 373.863559 -39.708095 
L 370.995935 -39.696634 
L 368.12831 -39.687076 
L 365.260686 -39.682177 
L 362.393061 -39.686767 
L 359.525437 -39.707982 
L 356.657812 -39.753993 
L 353.790188 -39.830482 
L 350.922563 -39.93544 
L 348.054939 -40.055059 
L 345.187314 -40.164619 
L 342.31969 -40.236332 
L 339.452065 -40.251327 
L 336.584441 -40.208995 
L 333.716816 -40.127609 
L 330.849192 -40.035806 
L 327.981567 -39.960518 
L 325.113943 -39.918354 
L 322.246318 -39.91389 
L 319.378694 -39.943358 
L 316.511069 -39.999901 
L 313.643445 -40.077385 
L 310.77582 -40.171903 
L 307.908196 -40.281676 
L 305.040571 -40.40634 
L 302.172947 -40.546279 
L 299.305323 -40.702199 
L 296.437698 -40.874912 
L 293.570074 -41.065256 
L 290.702449 -41.274071 
L 287.834825 -41.502243 
L 284.9672 -41.750846 
L 282.099576 -42.021447 
L 279.231951 -42.316625 
L 276.364327 -42.640589 
L 273.496702 -42.999468 
L 270.629078 -43.40049 
L 267.761453 -43.849344 
L 264.893829 -44.346006 
L 262.026204 -44.881216 
L 259.15858 -45.43753 
L 256.290955 -45.998937 
L 253.423331 -46.570759 
L 250.555706 -47.207656 
L 247.688082 -48.042371 
L 244.820457 -49.299797 
L 241.952833 -51.27047 
L 239.085208 -54.21548 
L 236.217584 -58.20165 
L 233.349959 -62.928883 
L 230.482335 -67.674458 
L 227.61471 -71.469498 
L 224.747086 -73.502484 
L 221.879461 -73.578741 
L 219.011837 -72.389363 
L 216.144212 -71.429686 
L 213.276588 -72.576802 
L 210.408963 -77.449761 
L 207.541339 -86.708323 
L 204.673714 -99.495425 
L 201.80609 -113.329124 
L 198.938466 -124.739244 
L 196.070841 -130.63482 
L 193.203217 -129.885438 
L 190.335592 -124.31532 
L 187.467968 -118.542774 
L 184.600343 -118.660786 
L 181.732719 -130.176331 
L 178.865094 -155.736327 
L 175.99747 -193.26055 
L 173.129845 -235.372421 
L 170.262221 -271.038111 
L 167.394596 -289.450826 
L 164.526972 -284.623819 
L 161.659347 -258.177242 
L 158.791723 -218.598403 
L 155.924098 -177.435936 
L 153.056474 -144.686892 
L 150.188849 -125.676766 
L 147.321225 -120.34605 
L 144.4536 -124.466149 
L 141.585976 -131.83064 
L 138.718351 -136.659108 
L 135.850727 -135.645443 
L 132.983102 -129.10804 
L 130.115478 -120.857017 
L 127.247853 -116.817827 
L 124.380229 -122.864125 
L 121.512604 -142.457169 
L 118.64498 -174.703842 
L 115.777355 -213.573461 
L 112.909731 -249.048783 
L 110.042106 -270.38221 
L 107.174482 -270.336799 
L 104.306857 -248.247509 
L 101.439233 -210.091949 
L 98.571608 -165.545652 
L 95.703984 -123.857312 
L 92.83636 -90.836946 
L 89.968735 -68.125368 
L 87.101111 -54.334665 
L 84.233486 -46.821681 
L 81.365862 -43.057354 
L 78.498237 -41.23705 
L 75.630613 -40.309239 
L 72.762988 -39.754613 
L 69.895364 -39.351336 
z
" style="stroke: #000000; stroke-width: 0.5"/>
    </defs>
    <g clip-path="url(#pe418b25dcb)">
     <use xlink:href="#m3401cb12f7" x="0" y="569.2125" style="fill: #ffc908; fill-opacity: 0.75; stroke: #000000; stroke-width: 0.5"/>
    </g>
   </g>
   <g id="PolyCollection_5">
    <defs>
     <path id="m0df0562bb1" d="M 69.895364 -39.351336 
L 69.895364 -39.351336 
L 72.762988 -39.754613 
L 75.630613 -40.309239 
L 78.498237 -41.23705 
L 81.365862 -43.057354 
L 84.233486 -46.821681 
L 87.101111 -54.334665 
L 89.968735 -68.125368 
L 92.83636 -90.836946 
L 95.703984 -123.857312 
L 98.571608 -165.545652 
L 101.439233 -210.091949 
L 104.306857 -248.247509 
L 107.174482 -270.336799 
L 110.042106 -270.38221 
L 112.909731 -249.048783 
L 115.777355 -213.573461 
L 118.64498 -174.703842 
L 121.512604 -142.457169 
L 124.380229 -122.864125 
L 127.247853 -116.817827 
L 130.115478 -120.857017 
L 132.983102 -129.10804 
L 135.850727 -135.645443 
L 138.718351 -136.659108 
L 141.585976 -131.83064 
L 144.4536 -124.466149 
L 147.321225 -120.34605 
L 150.188849 -125.676766 
L 153.056474 -144.686892 
L 155.924098 -177.435936 
L 158.791723 -218.598403 
L 161.659347 -258.177242 
L 164.526972 -284.623819 
L 167.394596 -289.450826 
L 170.262221 -271.038111 
L 173.129845 -235.372421 
L 175.99747 -193.26055 
L 178.865094 -155.736327 
L 181.732719 -130.176331 
L 184.600343 -118.660786 
L 187.467968 -118.542774 
L 190.335592 -124.31532 
L 193.203217 -129.885438 
L 196.070841 -130.63482 
L 198.938466 -124.739244 
L 201.80609 -113.329124 
L 204.673714 -99.495425 
L 207.541339 -86.708323 
L 210.408963 -77.449761 
L 213.276588 -72.576802 
L 216.144212 -71.429686 
L 219.011837 -72.389363 
L 221.879461 -73.578741 
L 224.747086 -73.502484 
L 227.61471 -71.469498 
L 230.482335 -67.674458 
L 233.349959 -62.928883 
L 236.217584 -58.20165 
L 239.085208 -54.21548 
L 241.952833 -51.27047 
L 244.820457 -49.299797 
L 247.688082 -48.042371 
L 250.555706 -47.207656 
L 253.423331 -46.570759 
L 256.290955 -45.998937 
L 259.15858 -45.43753 
L 262.026204 -44.881216 
L 264.893829 -44.346006 
L 267.761453 -43.849344 
L 270.629078 -43.40049 
L 273.496702 -42.999468 
L 276.364327 -42.640589 
L 279.231951 -42.316625 
L 282.099576 -42.021447 
L 284.9672 -41.750846 
L 287.834825 -41.502243 
L 290.702449 -41.274071 
L 293.570074 -41.065256 
L 296.437698 -40.874912 
L 299.305323 -40.702199 
L 302.172947 -40.546279 
L 305.040571 -40.40634 
L 307.908196 -40.281676 
L 310.77582 -40.171903 
L 313.643445 -40.077385 
L 316.511069 -39.999901 
L 319.378694 -39.943358 
L 322.246318 -39.91389 
L 325.113943 -39.918354 
L 327.981567 -39.960518 
L 330.849192 -40.035806 
L 333.716816 -40.127609 
L 336.584441 -40.208995 
L 339.452065 -40.251327 
L 342.31969 -40.236332 
L 345.187314 -40.164619 
L 348.054939 -40.055059 
L 350.922563 -39.93544 
L 353.790188 -39.830482 
L 356.657812 -39.753993 
L 359.525437 -39.707982 
L 362.393061 -39.686767 
L 365.260686 -39.682177 
L 368.12831 -39.687076 
L 370.995935 -39.696634 
L 373.863559 -39.708095 
L 376.731184 -39.720054 
L 379.598808 -39.731823 
L 382.466433 -39.743039 
L 385.334057 -39.753481 
L 388.201682 -39.762987 
L 391.069306 -39.771434 
L 393.936931 -39.778728 
L 396.804555 -39.784793 
L 399.67218 -39.789576 
L 402.539804 -39.793041 
L 405.407429 -39.795168 
L 408.275053 -39.795947 
L 411.142677 -39.795382 
L 414.010302 -39.793483 
L 416.877926 -39.790268 
L 419.745551 -39.785759 
L 422.613175 -39.779981 
L 425.4808 -39.772961 
L 428.348424 -39.764727 
L 431.216049 -39.755305 
L 434.083673 -39.744722 
L 436.951298 -39.733001 
L 439.818922 -39.720161 
L 442.686547 -39.706218 
L 445.554171 -39.691183 
L 448.421796 -39.675064 
L 451.28942 -39.657862 
L 454.157045 -39.639572 
L 457.024669 -39.620183 
L 459.892294 -39.59968 
L 462.759918 -39.578039 
L 465.627543 -39.555233 
L 468.495167 -39.531228 
L 471.362792 -39.505983 
L 474.230416 -39.479455 
L 477.098041 -39.451595 
L 479.965665 -39.422353 
L 482.83329 -39.391674 
L 485.700914 -39.359504 
L 488.568539 -39.325787 
L 491.436163 -39.29047 
L 494.303788 -39.253502 
L 497.171412 -39.214835 
L 500.039037 -39.174428 
L 502.906661 -39.132247 
L 505.774286 -39.088264 
L 508.64191 -39.042463 
L 511.509534 -38.994838 
L 514.377159 -38.945396 
L 517.244783 -38.894156 
L 520.112408 -38.841154 
L 522.980032 -38.786439 
L 525.847657 -38.730078 
L 528.715281 -38.672153 
L 531.582906 -38.612763 
L 534.45053 -38.552024 
L 537.318155 -38.490068 
L 540.185779 -38.427041 
L 543.053404 -38.363104 
L 545.921028 -38.298433 
L 548.788653 -38.233211 
L 551.656277 -38.167634 
L 554.523902 -38.101902 
L 557.391526 -38.036221 
L 560.259151 -37.9708 
L 563.126775 -37.905845 
L 565.9944 -37.84156 
L 568.862024 -37.778143 
L 571.729649 -37.715784 
L 574.597273 -37.654662 
L 577.464898 -37.594943 
L 580.332522 -37.53678 
L 583.200147 -37.480308 
L 586.067771 -37.425646 
L 588.935396 -37.372897 
L 591.80302 -37.322143 
L 594.670645 -37.273451 
L 597.538269 -37.226869 
L 600.405894 -37.182427 
L 603.273518 -37.140142 
L 606.141143 -37.100012 
L 609.008767 -37.062026 
L 611.876392 -37.026157 
L 614.744016 -36.992369 
L 617.61164 -36.960615 
L 620.479265 -36.930844 
L 623.346889 -36.902994 
L 626.214514 -36.877 
L 629.082138 -36.852793 
L 631.949763 -36.830301 
L 634.817387 -36.80945 
L 637.685012 -36.790165 
L 640.552636 -36.772369 
L 640.552636 -36.772369 
L 640.552636 -36.772369 
L 637.685012 -36.790165 
L 634.817387 -36.80945 
L 631.949763 -36.830301 
L 629.082138 -36.852793 
L 626.214514 -36.877 
L 623.346889 -36.902994 
L 620.479265 -36.930844 
L 617.61164 -36.960615 
L 614.744016 -36.992369 
L 611.876392 -37.026157 
L 609.008767 -37.062026 
L 606.141143 -37.100012 
L 603.273518 -37.140142 
L 600.405894 -37.182427 
L 597.538269 -37.226869 
L 594.670645 -37.273451 
L 591.80302 -37.322143 
L 588.935396 -37.372897 
L 586.067771 -37.425646 
L 583.200147 -37.480308 
L 580.332522 -37.53678 
L 577.464898 -37.594943 
L 574.597273 -37.654662 
L 571.729649 -37.715784 
L 568.862024 -37.778143 
L 565.9944 -37.84156 
L 563.126775 -37.905845 
L 560.259151 -37.9708 
L 557.391526 -38.036221 
L 554.523902 -38.101902 
L 551.656277 -38.167634 
L 548.788653 -38.233211 
L 545.921028 -38.298433 
L 543.053404 -38.363104 
L 540.185779 -38.427041 
L 537.318155 -38.490068 
L 534.45053 -38.552024 
L 531.582906 -38.612763 
L 528.715281 -38.672153 
L 525.847657 -38.730078 
L 522.980032 -38.786439 
L 520.112408 -38.841154 
L 517.244783 -38.894156 
L 514.377159 -38.945396 
L 511.509534 -38.994838 
L 508.64191 -39.042463 
L 505.774286 -39.088264 
L 502.906661 -39.132247 
L 500.039037 -39.174428 
L 497.171412 -39.214835 
L 494.303788 -39.253502 
L 491.436163 -39.29047 
L 488.568539 -39.325787 
L 485.700914 -39.359504 
L 482.83329 -39.391674 
L 479.965665 -39.422353 
L 477.098041 -39.451595 
L 474.230416 -39.479455 
L 471.362792 -39.505983 
L 468.495167 -39.531228 
L 465.627543 -39.555233 
L 462.759918 -39.578039 
L 459.892294 -39.59968 
L 457.024669 -39.620183 
L 454.157045 -39.639572 
L 451.28942 -39.657862 
L 448.421796 -39.675064 
L 445.554171 -39.691183 
L 442.686547 -39.706218 
L 439.818922 -39.720161 
L 436.951298 -39.733001 
L 434.083673 -39.744722 
L 431.216049 -39.755305 
L 428.348424 -39.764727 
L 425.4808 -39.772961 
L 422.613175 -39.779981 
L 419.745551 -39.785759 
L 416.877926 -39.790268 
L 414.010302 -39.793483 
L 411.142677 -39.795382 
L 408.275053 -39.795947 
L 405.407429 -39.795168 
L 402.539804 -39.793041 
L 399.67218 -39.789576 
L 396.804555 -39.784793 
L 393.936931 -39.778728 
L 391.069306 -39.771434 
L 388.201682 -39.762987 
L 385.334057 -39.753481 
L 382.466433 -39.743039 
L 379.598808 -39.731823 
L 376.731184 -39.720054 
L 373.863559 -39.708095 
L 370.995935 -39.696634 
L 368.12831 -39.687076 
L 365.260686 -39.682177 
L 362.393061 -39.686767 
L 359.525437 -39.707982 
L 356.657812 -39.753993 
L 353.790188 -39.830482 
L 350.922563 -39.93544 
L 348.054939 -40.055059 
L 345.187314 -40.164619 
L 342.31969 -40.236332 
L 339.452065 -40.251327 
L 336.584441 -40.208995 
L 333.716816 -40.127609 
L 330.849192 -40.035806 
L 327.981567 -39.960518 
L 325.113943 -39.918354 
L 322.246318 -39.91389 
L 319.378694 -39.943358 
L 316.511069 -39.999901 
L 313.643445 -40.077385 
L 310.77582 -40.171903 
L 307.908196 -40.281676 
L 305.040571 -40.40634 
L 302.172947 -40.546279 
L 299.305323 -40.702199 
L 296.437698 -40.874912 
L 293.570074 -41.065256 
L 290.702449 -41.274071 
L 287.834825 -41.502243 
L 284.9672 -41.750851 
L 282.099576 -42.021491 
L 279.231951 -42.316953 
L 276.364327 -42.642592 
L 273.496702 -43.009337 
L 270.629078 -43.439721 
L 267.761453 -43.975176 
L 264.893829 -44.671662 
L 262.026204 -45.561249 
L 259.15858 -46.58332 
L 256.290955 -47.556643 
L 253.423331 -48.279578 
L 250.555706 -48.721018 
L 247.688082 -49.12888 
L 244.820457 -49.954943 
L 241.952833 -51.693748 
L 239.085208 -54.765122 
L 236.217584 -59.406652 
L 233.349959 -65.450143 
L 230.482335 -72.024024 
L 227.61471 -77.539196 
L 224.747086 -80.339135 
L 221.879461 -79.79576 
L 219.011837 -76.973653 
L 216.144212 -74.274507 
L 213.276588 -74.49018 
L 210.408963 -80.064555 
L 207.541339 -92.644566 
L 204.673714 -112.263948 
L 201.80609 -135.950018 
L 198.938466 -157.1521 
L 196.070841 -168.120722 
L 193.203217 -164.882365 
L 190.335592 -150.782118 
L 187.467968 -135.245678 
L 184.600343 -129.534223 
L 181.732719 -143.803396 
L 178.865094 -186.214379 
L 175.99747 -260.174691 
L 173.129845 -357.009065 
L 170.262221 -449.981233 
L 167.394596 -501.931628 
L 164.526972 -488.218573 
L 161.659347 -415.652787 
L 158.791723 -317.264236 
L 155.924098 -229.021737 
L 153.056474 -172.504619 
L 150.188849 -154.550392 
L 147.321225 -173.841206 
L 144.4536 -221.767832 
L 141.585976 -278.368266 
L 138.718351 -315.25961 
L 135.850727 -311.34425 
L 132.983102 -268.57882 
L 130.115478 -210.203 
L 127.247853 -163.067071 
L 124.380229 -142.428139 
L 121.512604 -149.863383 
L 118.64498 -178.678012 
L 115.777355 -218.219936 
L 112.909731 -255.728759 
L 110.042106 -278.66959 
L 107.174482 -278.699578 
L 104.306857 -255.062836 
L 101.439233 -214.573944 
L 98.571608 -167.92394 
L 95.703984 -124.875577 
L 92.83636 -91.188718 
L 89.968735 -68.223422 
L 87.101111 -54.356718 
L 84.233486 -46.825683 
L 81.365862 -43.05794 
L 78.498237 -41.237119 
L 75.630613 -40.309245 
L 72.762988 -39.754614 
L 69.895364 -39.351336 
z
" style="stroke: #000000; stroke-width: 0.5"/>
    </defs>
    <g clip-path="url(#pe418b25dcb)">
     <use xlink:href="#m0df0562bb1" x="0" y="569.2125" style="fill: #ffe216; fill-opacity: 0.75; stroke: #000000; stroke-width: 0.5"/>
    </g>
   </g>
   <g id="PolyCollection_6">
    <defs>
     <path id="m1dcb6733e0" d="M 69.895364 -39.351512 
L 69.895364 -39.351336 
L 72.762988 -39.754614 
L 75.630613 -40.309245 
L 78.498237 -41.237119 
L 81.365862 -43.05794 
L 84.233486 -46.825683 
L 87.101111 -54.356718 
L 89.968735 -68.223422 
L 92.83636 -91.188718 
L 95.703984 -124.875577 
L 98.571608 -167.92394 
L 101.439233 -214.573944 
L 104.306857 -255.062836 
L 107.174482 -278.699578 
L 110.042106 -278.66959 
L 112.909731 -255.728759 
L 115.777355 -218.219936 
L 118.64498 -178.678012 
L 121.512604 -149.863383 
L 124.380229 -142.428139 
L 127.247853 -163.067071 
L 130.115478 -210.203 
L 132.983102 -268.57882 
L 135.850727 -311.34425 
L 138.718351 -315.25961 
L 141.585976 -278.368266 
L 144.4536 -221.767832 
L 147.321225 -173.841206 
L 150.188849 -154.550392 
L 153.056474 -172.504619 
L 155.924098 -229.021737 
L 158.791723 -317.264236 
L 161.659347 -415.652787 
L 164.526972 -488.218573 
L 167.394596 -501.931628 
L 170.262221 -449.981233 
L 173.129845 -357.009065 
L 175.99747 -260.174691 
L 178.865094 -186.214379 
L 181.732719 -143.803396 
L 184.600343 -129.534223 
L 187.467968 -135.245678 
L 190.335592 -150.782118 
L 193.203217 -164.882365 
L 196.070841 -168.120722 
L 198.938466 -157.1521 
L 201.80609 -135.950018 
L 204.673714 -112.263948 
L 207.541339 -92.644566 
L 210.408963 -80.064555 
L 213.276588 -74.49018 
L 216.144212 -74.274507 
L 219.011837 -76.973653 
L 221.879461 -79.79576 
L 224.747086 -80.339135 
L 227.61471 -77.539196 
L 230.482335 -72.024024 
L 233.349959 -65.450143 
L 236.217584 -59.406652 
L 239.085208 -54.765122 
L 241.952833 -51.693748 
L 244.820457 -49.954943 
L 247.688082 -49.12888 
L 250.555706 -48.721018 
L 253.423331 -48.279578 
L 256.290955 -47.556643 
L 259.15858 -46.58332 
L 262.026204 -45.561249 
L 264.893829 -44.671662 
L 267.761453 -43.975176 
L 270.629078 -43.439721 
L 273.496702 -43.009337 
L 276.364327 -42.642592 
L 279.231951 -42.316953 
L 282.099576 -42.021491 
L 284.9672 -41.750851 
L 287.834825 -41.502243 
L 290.702449 -41.274071 
L 293.570074 -41.065256 
L 296.437698 -40.874912 
L 299.305323 -40.702199 
L 302.172947 -40.546279 
L 305.040571 -40.40634 
L 307.908196 -40.281676 
L 310.77582 -40.171903 
L 313.643445 -40.077385 
L 316.511069 -39.999901 
L 319.378694 -39.943358 
L 322.246318 -39.91389 
L 325.113943 -39.918354 
L 327.981567 -39.960518 
L 330.849192 -40.035806 
L 333.716816 -40.127609 
L 336.584441 -40.208995 
L 339.452065 -40.251327 
L 342.31969 -40.236332 
L 345.187314 -40.164619 
L 348.054939 -40.055059 
L 350.922563 -39.93544 
L 353.790188 -39.830482 
L 356.657812 -39.753993 
L 359.525437 -39.707982 
L 362.393061 -39.686767 
L 365.260686 -39.682177 
L 368.12831 -39.687076 
L 370.995935 -39.696634 
L 373.863559 -39.708095 
L 376.731184 -39.720054 
L 379.598808 -39.731823 
L 382.466433 -39.743039 
L 385.334057 -39.753481 
L 388.201682 -39.762987 
L 391.069306 -39.771434 
L 393.936931 -39.778728 
L 396.804555 -39.784793 
L 399.67218 -39.789576 
L 402.539804 -39.793041 
L 405.407429 -39.795168 
L 408.275053 -39.795947 
L 411.142677 -39.795382 
L 414.010302 -39.793483 
L 416.877926 -39.790268 
L 419.745551 -39.785759 
L 422.613175 -39.779981 
L 425.4808 -39.772961 
L 428.348424 -39.764727 
L 431.216049 -39.755305 
L 434.083673 -39.744722 
L 436.951298 -39.733001 
L 439.818922 -39.720161 
L 442.686547 -39.706218 
L 445.554171 -39.691183 
L 448.421796 -39.675064 
L 451.28942 -39.657862 
L 454.157045 -39.639572 
L 457.024669 -39.620183 
L 459.892294 -39.59968 
L 462.759918 -39.578039 
L 465.627543 -39.555233 
L 468.495167 -39.531228 
L 471.362792 -39.505983 
L 474.230416 -39.479455 
L 477.098041 -39.451595 
L 479.965665 -39.422353 
L 482.83329 -39.391674 
L 485.700914 -39.359504 
L 488.568539 -39.325787 
L 491.436163 -39.29047 
L 494.303788 -39.253502 
L 497.171412 -39.214835 
L 500.039037 -39.174428 
L 502.906661 -39.132247 
L 505.774286 -39.088264 
L 508.64191 -39.042463 
L 511.509534 -38.994838 
L 514.377159 -38.945396 
L 517.244783 -38.894156 
L 520.112408 -38.841154 
L 522.980032 -38.786439 
L 525.847657 -38.730078 
L 528.715281 -38.672153 
L 531.582906 -38.612763 
L 534.45053 -38.552024 
L 537.318155 -38.490068 
L 540.185779 -38.427041 
L 543.053404 -38.363104 
L 545.921028 -38.298433 
L 548.788653 -38.233211 
L 551.656277 -38.167634 
L 554.523902 -38.101902 
L 557.391526 -38.036221 
L 560.259151 -37.9708 
L 563.126775 -37.905845 
L 565.9944 -37.84156 
L 568.862024 -37.778143 
L 571.729649 -37.715784 
L 574.597273 -37.654662 
L 577.464898 -37.594943 
L 580.332522 -37.53678 
L 583.200147 -37.480308 
L 586.067771 -37.425646 
L 588.935396 -37.372897 
L 591.80302 -37.322143 
L 594.670645 -37.273451 
L 597.538269 -37.226869 
L 600.405894 -37.182427 
L 603.273518 -37.140142 
L 606.141143 -37.100012 
L 609.008767 -37.062026 
L 611.876392 -37.026157 
L 614.744016 -36.992369 
L 617.61164 -36.960615 
L 620.479265 -36.930844 
L 623.346889 -36.902994 
L 626.214514 -36.877 
L 629.082138 -36.852793 
L 631.949763 -36.830301 
L 634.817387 -36.80945 
L 637.685012 -36.790165 
L 640.552636 -36.772369 
L 640.552636 -36.772369 
L 640.552636 -36.772369 
L 637.685012 -36.790165 
L 634.817387 -36.80945 
L 631.949763 -36.830301 
L 629.082138 -36.852793 
L 626.214514 -36.877 
L 623.346889 -36.902994 
L 620.479265 -36.930844 
L 617.61164 -36.960615 
L 614.744016 -36.992369 
L 611.876392 -37.026157 
L 609.008767 -37.062026 
L 606.141143 -37.100012 
L 603.273518 -37.140142 
L 600.405894 -37.182427 
L 597.538269 -37.226869 
L 594.670645 -37.273451 
L 591.80302 -37.322143 
L 588.935396 -37.372897 
L 586.067771 -37.425646 
L 583.200147 -37.480308 
L 580.332522 -37.53678 
L 577.464898 -37.594943 
L 574.597273 -37.654662 
L 571.729649 -37.715784 
L 568.862024 -37.778143 
L 565.9944 -37.84156 
L 563.126775 -37.905845 
L 560.259151 -37.9708 
L 557.391526 -38.036221 
L 554.523902 -38.101902 
L 551.656277 -38.167634 
L 548.788653 -38.233211 
L 545.921028 -38.298433 
L 543.053404 -38.363104 
L 540.185779 -38.427041 
L 537.318155 -38.490068 
L 534.45053 -38.552024 
L 531.582906 -38.612763 
L 528.715281 -38.672153 
L 525.847657 -38.730078 
L 522.980032 -38.786439 
L 520.112408 -38.841154 
L 517.244783 -38.894156 
L 514.377159 -38.945396 
L 511.509534 -38.994838 
L 508.64191 -39.042463 
L 505.774286 -39.088264 
L 502.906661 -39.132247 
L 500.039037 -39.174428 
L 497.171412 -39.214835 
L 494.303788 -39.253502 
L 491.436163 -39.29047 
L 488.568539 -39.325787 
L 485.700914 -39.359504 
L 482.83329 -39.391674 
L 479.965665 -39.422353 
L 477.098041 -39.451595 
L 474.230416 -39.479455 
L 471.362792 -39.505983 
L 468.495167 -39.531228 
L 465.627543 -39.555233 
L 462.759918 -39.578039 
L 459.892294 -39.59968 
L 457.024669 -39.620183 
L 454.157045 -39.639572 
L 451.28942 -39.657862 
L 448.421796 -39.675064 
L 445.554171 -39.691183 
L 442.686547 -39.706218 
L 439.818922 -39.720161 
L 436.951298 -39.733001 
L 434.083673 -39.744722 
L 431.216049 -39.755305 
L 428.348424 -39.764727 
L 425.4808 -39.772961 
L 422.613175 -39.779981 
L 419.745551 -39.785759 
L 416.877926 -39.790268 
L 414.010302 -39.793483 
L 411.142677 -39.795382 
L 408.275053 -39.795947 
L 405.407429 -39.795168 
L 402.539804 -39.793041 
L 399.67218 -39.789576 
L 396.804555 -39.784793 
L 393.936931 -39.778728 
L 391.069306 -39.771434 
L 388.201682 -39.762987 
L 385.334057 -39.753481 
L 382.466433 -39.743039 
L 379.598808 -39.731823 
L 376.731184 -39.720054 
L 373.863559 -39.708095 
L 370.995935 -39.696634 
L 368.12831 -39.687076 
L 365.260686 -39.682177 
L 362.393061 -39.686767 
L 359.525437 -39.707982 
L 356.657812 -39.753993 
L 353.790188 -39.830482 
L 350.922563 -39.93544 
L 348.054939 -40.055059 
L 345.187314 -40.164619 
L 342.31969 -40.236332 
L 339.452065 -40.251327 
L 336.584441 -40.208995 
L 333.716816 -40.127609 
L 330.849192 -40.035806 
L 327.981567 -39.960518 
L 325.113943 -39.918354 
L 322.246318 -39.91389 
L 319.378694 -39.943358 
L 316.511069 -39.999901 
L 313.643445 -40.077385 
L 310.77582 -40.171903 
L 307.908196 -40.281676 
L 305.040571 -40.40634 
L 302.172947 -40.54628 
L 299.305323 -40.702204 
L 296.437698 -40.874935 
L 293.570074 -41.065349 
L 290.702449 -41.274413 
L 287.834825 -41.503387 
L 284.9672 -41.754321 
L 282.099576 -42.031049 
L 279.231951 -42.340846 
L 276.364327 -42.696786 
L 273.496702 -43.12088 
L 270.629078 -43.648053 
L 267.761453 -44.328269 
L 264.893829 -45.214739 
L 262.026204 -46.319325 
L 259.15858 -47.543944 
L 256.290955 -48.662443 
L 253.423331 -49.43798 
L 250.555706 -49.830576 
L 247.688082 -50.112429 
L 244.820457 -50.785511 
L 241.952833 -52.402401 
L 239.085208 -55.428117 
L 236.217584 -60.117273 
L 233.349959 -66.285468 
L 230.482335 -73.018736 
L 227.61471 -78.678082 
L 224.747086 -81.576421 
L 221.879461 -81.102055 
L 219.011837 -78.400917 
L 216.144212 -76.018725 
L 213.276588 -76.922729 
L 210.408963 -83.700518 
L 207.541339 -98.027151 
L 204.673714 -119.776805 
L 201.80609 -145.618948 
L 198.938466 -168.537163 
L 196.070841 -180.391394 
L 193.203217 -177.097721 
L 190.335592 -162.296112 
L 187.467968 -146.083151 
L 184.600343 -140.575435 
L 181.732719 -156.66863 
L 178.865094 -202.828686 
L 175.99747 -282.101366 
L 173.129845 -384.758051 
L 170.262221 -482.578292 
L 167.394596 -536.993452 
L 164.526972 -522.57825 
L 161.659347 -446.302946 
L 158.791723 -342.209805 
L 155.924098 -247.690052 
L 153.056474 -185.609285 
L 150.188849 -163.571837 
L 147.321225 -180.411216 
L 144.4536 -227.197973 
L 141.585976 -283.428098 
L 138.718351 -320.189221 
L 135.850727 -316.020189 
L 132.983102 -272.735238 
L 130.115478 -213.622309 
L 127.247853 -165.6865 
L 124.380229 -144.35104 
L 121.512604 -151.301153 
L 118.64498 -179.865521 
L 115.777355 -219.342488 
L 112.909731 -256.881973 
L 110.042106 -279.856702 
L 107.174482 -279.858471 
L 104.306857 -256.107792 
L 101.439233 -215.434784 
L 98.571608 -168.569115 
L 95.703984 -125.314782 
L 92.83636 -91.460128 
L 89.968735 -68.375637 
L 87.101111 -54.434187 
L 84.233486 -46.861461 
L 81.365862 -43.072934 
L 78.498237 -41.242822 
L 75.630613 -40.311213 
L 72.762988 -39.75523 
L 69.895364 -39.351512 
z
" style="stroke: #000000; stroke-width: 0.5"/>
    </defs>
    <g clip-path="url(#pe418b25dcb)">
     <use xlink:href="#m1dcb6733e0" x="0" y="569.2125" style="fill: #f3f244; fill-opacity: 0.75; stroke: #000000; stroke-width: 0.5"/>
    </g>
   </g>
   <g id="matplotlib.axis_1">
    <g id="xtick_1">
     <g id="line2d_1">
      <defs>
       <path id="m167b048fa2" d="M 0 0 
L 0 3.5 
" style="stroke: #000000; stroke-width: 0.8"/>
      </defs>
      <g>
       <use xlink:href="#m167b048fa2" x="108.473391" y="532.6" style="stroke: #000000; stroke-width: 0.8"/>
      </g>
     </g>
     <g id="text_1">
      <text style="font: 10px 'sans-serif'; text-anchor: middle" x="108.473391" y="546.757812" transform="rotate(-0, 108.473391, 546.757812)">0</text>
     </g>
    </g>
    <g id="xtick_2">
     <g id="line2d_2">
      <g>
       <use xlink:href="#m167b048fa2" x="137.502874" y="532.6" style="stroke: #000000; stroke-width: 0.8"/>
      </g>
     </g>
     <g id="text_2">
      <text style="font: 10px 'sans-serif'; text-anchor: middle" x="137.502874" y="546.757812" transform="rotate(-0, 137.502874, 546.757812)">1</text>
     </g>
    </g>
    <g id="xtick_3">
     <g id="line2d_3">
      <g>
       <use xlink:href="#m167b048fa2" x="166.532358" y="532.6" style="stroke: #000000; stroke-width: 0.8"/>
      </g>
     </g>
     <g id="text_3">
      <text style="font: 10px 'sans-serif'; text-anchor: middle" x="166.532358" y="546.757812" transform="rotate(-0, 166.532358, 546.757812)">2</text>
     </g>
    </g>
    <g id="xtick_4">
     <g id="line2d_4">
      <g>
       <use xlink:href="#m167b048fa2" x="195.561841" y="532.6" style="stroke: #000000; stroke-width: 0.8"/>
      </g>
     </g>
     <g id="text_4">
      <text style="font: 10px 'sans-serif'; text-anchor: middle" x="195.561841" y="546.757812" transform="rotate(-0, 195.561841, 546.757812)">3</text>
     </g>
    </g>
    <g id="xtick_5">
     <g id="line2d_5">
      <g>
       <use xlink:href="#m167b048fa2" x="224.591324" y="532.6" style="stroke: #000000; stroke-width: 0.8"/>
      </g>
     </g>
     <g id="text_5">
      <text style="font: 10px 'sans-serif'; text-anchor: middle" x="224.591324" y="546.757812" transform="rotate(-0, 224.591324, 546.757812)">4</text>
     </g>
    </g>
    <g id="xtick_6">
     <g id="line2d_6">
      <g>
       <use xlink:href="#m167b048fa2" x="253.620808" y="532.6" style="stroke: #000000; stroke-width: 0.8"/>
      </g>
     </g>
     <g id="text_6">
      <text style="font: 10px 'sans-serif'; text-anchor: middle" x="253.620808" y="546.757812" transform="rotate(-0, 253.620808, 546.757812)">5</text>
     </g>
    </g>
    <g id="xtick_7">
     <g id="line2d_7">
      <g>
       <use xlink:href="#m167b048fa2" x="282.650291" y="532.6" style="stroke: #000000; stroke-width: 0.8"/>
      </g>
     </g>
     <g id="text_7">
      <text style="font: 10px 'sans-serif'; text-anchor: middle" x="282.650291" y="546.757812" transform="rotate(-0, 282.650291, 546.757812)">6</text>
     </g>
    </g>
    <g id="xtick_8">
     <g id="line2d_8">
      <g>
       <use xlink:href="#m167b048fa2" x="311.679775" y="532.6" style="stroke: #000000; stroke-width: 0.8"/>
      </g>
     </g>
     <g id="text_8">
      <text style="font: 10px 'sans-serif'; text-anchor: middle" x="311.679775" y="546.757812" transform="rotate(-0, 311.679775, 546.757812)">7</text>
     </g>
    </g>
    <g id="xtick_9">
     <g id="line2d_9">
      <g>
       <use xlink:href="#m167b048fa2" x="340.709258" y="532.6" style="stroke: #000000; stroke-width: 0.8"/>
      </g>
     </g>
     <g id="text_9">
      <text style="font: 10px 'sans-serif'; text-anchor: middle" x="340.709258" y="546.757812" transform="rotate(-0, 340.709258, 546.757812)">8</text>
     </g>
    </g>
    <g id="xtick_10">
     <g id="line2d_10">
      <g>
       <use xlink:href="#m167b048fa2" x="369.738742" y="532.6" style="stroke: #000000; stroke-width: 0.8"/>
      </g>
     </g>
     <g id="text_10">
      <text style="font: 10px 'sans-serif'; text-anchor: middle" x="369.738742" y="546.757812" transform="rotate(-0, 369.738742, 546.757812)">9</text>
     </g>
    </g>
    <g id="xtick_11">
     <g id="line2d_11">
      <g>
       <use xlink:href="#m167b048fa2" x="398.768225" y="532.6" style="stroke: #000000; stroke-width: 0.8"/>
      </g>
     </g>
     <g id="text_11">
      <text style="font: 10px 'sans-serif'; text-anchor: middle" x="398.768225" y="546.757812" transform="rotate(-0, 398.768225, 546.757812)">10</text>
     </g>
    </g>
    <g id="xtick_12">
     <g id="line2d_12">
      <g>
       <use xlink:href="#m167b048fa2" x="427.797709" y="532.6" style="stroke: #000000; stroke-width: 0.8"/>
      </g>
     </g>
     <g id="text_12">
      <text style="font: 10px 'sans-serif'; text-anchor: middle" x="427.797709" y="546.757812" transform="rotate(-0, 427.797709, 546.757812)">11</text>
     </g>
    </g>
    <g id="xtick_13">
     <g id="line2d_13">
      <g>
       <use xlink:href="#m167b048fa2" x="456.827192" y="532.6" style="stroke: #000000; stroke-width: 0.8"/>
      </g>
     </g>
     <g id="text_13">
      <text style="font: 10px 'sans-serif'; text-anchor: middle" x="456.827192" y="546.757812" transform="rotate(-0, 456.827192, 546.757812)">12</text>
     </g>
    </g>
    <g id="xtick_14">
     <g id="line2d_14">
      <g>
       <use xlink:href="#m167b048fa2" x="485.856676" y="532.6" style="stroke: #000000; stroke-width: 0.8"/>
      </g>
     </g>
     <g id="text_14">
      <text style="font: 10px 'sans-serif'; text-anchor: middle" x="485.856676" y="546.757812" transform="rotate(-0, 485.856676, 546.757812)">13</text>
     </g>
    </g>
    <g id="xtick_15">
     <g id="line2d_15">
      <g>
       <use xlink:href="#m167b048fa2" x="514.886159" y="532.6" style="stroke: #000000; stroke-width: 0.8"/>
      </g>
     </g>
     <g id="text_15">
      <text style="font: 10px 'sans-serif'; text-anchor: middle" x="514.886159" y="546.757812" transform="rotate(-0, 514.886159, 546.757812)">14</text>
     </g>
    </g>
    <g id="xtick_16">
     <g id="line2d_16">
      <g>
       <use xlink:href="#m167b048fa2" x="543.915642" y="532.6" style="stroke: #000000; stroke-width: 0.8"/>
      </g>
     </g>
     <g id="text_16">
      <text style="font: 10px 'sans-serif'; text-anchor: middle" x="543.915642" y="546.757812" transform="rotate(-0, 543.915642, 546.757812)">15</text>
     </g>
    </g>
    <g id="xtick_17">
     <g id="line2d_17">
      <g>
       <use xlink:href="#m167b048fa2" x="572.945126" y="532.6" style="stroke: #000000; stroke-width: 0.8"/>
      </g>
     </g>
     <g id="text_17">
      <text style="font: 10px 'sans-serif'; text-anchor: middle" x="572.945126" y="546.757812" transform="rotate(-0, 572.945126, 546.757812)">16</text>
     </g>
    </g>
    <g id="xtick_18">
     <g id="line2d_18">
      <g>
       <use xlink:href="#m167b048fa2" x="601.974609" y="532.6" style="stroke: #000000; stroke-width: 0.8"/>
      </g>
     </g>
     <g id="text_18">
      <text style="font: 10px 'sans-serif'; text-anchor: middle" x="601.974609" y="546.757812" transform="rotate(-0, 601.974609, 546.757812)">17</text>
     </g>
    </g>
    <g id="xtick_19">
     <g id="line2d_19">
      <g>
       <use xlink:href="#m167b048fa2" x="631.004093" y="532.6" style="stroke: #000000; stroke-width: 0.8"/>
      </g>
     </g>
     <g id="text_19">
      <text style="font: 10px 'sans-serif'; text-anchor: middle" x="631.004093" y="546.757812" transform="rotate(-0, 631.004093, 546.757812)">18</text>
     </g>
    </g>
    <g id="text_20">
     <text style="font: 10px 'sans-serif'; text-anchor: middle" x="355.224" y="560.025" transform="rotate(-0, 355.224, 560.025)">number_of_plasmids</text>
    </g>
   </g>
   <g id="matplotlib.axis_2">
    <g id="ytick_1">
     <g id="line2d_20">
      <defs>
       <path id="m5bf6ec3ca6" d="M 0 0 
L -3.5 0 
" style="stroke: #000000; stroke-width: 0.8"/>
      </defs>
      <g>
       <use xlink:href="#m5bf6ec3ca6" x="41.3625" y="532.6" style="stroke: #000000; stroke-width: 0.8"/>
      </g>
     </g>
     <g id="text_21">
      <text style="font: 10px 'sans-serif'; text-anchor: end" x="34.3625" y="536.178906" transform="rotate(-0, 34.3625, 536.178906)">0.0</text>
     </g>
    </g>
    <g id="ytick_2">
     <g id="line2d_21">
      <g>
       <use xlink:href="#m5bf6ec3ca6" x="41.3625" y="442.637134" style="stroke: #000000; stroke-width: 0.8"/>
      </g>
     </g>
     <g id="text_22">
      <text style="font: 10px 'sans-serif'; text-anchor: end" x="34.3625" y="446.21604" transform="rotate(-0, 34.3625, 446.21604)">0.1</text>
     </g>
    </g>
    <g id="ytick_3">
     <g id="line2d_22">
      <g>
       <use xlink:href="#m5bf6ec3ca6" x="41.3625" y="352.674268" style="stroke: #000000; stroke-width: 0.8"/>
      </g>
     </g>
     <g id="text_23">
      <text style="font: 10px 'sans-serif'; text-anchor: end" x="34.3625" y="356.253174" transform="rotate(-0, 34.3625, 356.253174)">0.2</text>
     </g>
    </g>
    <g id="ytick_4">
     <g id="line2d_23">
      <g>
       <use xlink:href="#m5bf6ec3ca6" x="41.3625" y="262.711401" style="stroke: #000000; stroke-width: 0.8"/>
      </g>
     </g>
     <g id="text_24">
      <text style="font: 10px 'sans-serif'; text-anchor: end" x="34.3625" y="266.290308" transform="rotate(-0, 34.3625, 266.290308)">0.3</text>
     </g>
    </g>
    <g id="ytick_5">
     <g id="line2d_24">
      <g>
       <use xlink:href="#m5bf6ec3ca6" x="41.3625" y="172.748535" style="stroke: #000000; stroke-width: 0.8"/>
      </g>
     </g>
     <g id="text_25">
      <text style="font: 10px 'sans-serif'; text-anchor: end" x="34.3625" y="176.327441" transform="rotate(-0, 34.3625, 176.327441)">0.4</text>
     </g>
    </g>
    <g id="ytick_6">
     <g id="line2d_25">
      <g>
       <use xlink:href="#m5bf6ec3ca6" x="41.3625" y="82.785669" style="stroke: #000000; stroke-width: 0.8"/>
      </g>
     </g>
     <g id="text_26">
      <text style="font: 10px 'sans-serif'; text-anchor: end" x="34.3625" y="86.364575" transform="rotate(-0, 34.3625, 86.364575)">0.5</text>
     </g>
    </g>
    <g id="text_27">
     <text style="font: 10px 'sans-serif'; text-anchor: middle" x="14.357813" y="269.9" transform="rotate(-90, 14.357813, 269.9)">Density</text>
    </g>
   </g>
   <g id="patch_3">
    <path d="M 41.3625 532.6 
L 41.3625 7.2 
" style="fill: none; stroke: #000000; stroke-width: 0.8; stroke-linejoin: miter; stroke-linecap: square"/>
   </g>
   <g id="patch_4">
    <path d="M 41.3625 532.6 
L 669.0855 532.6 
" style="fill: none; stroke: #000000; stroke-width: 0.8; stroke-linejoin: miter; stroke-linecap: square"/>
   </g>
  </g>
  <g id="legend_1">
   <g id="text_28">
    <text style="font: 10px 'sans-serif'; text-anchor: start" x="689.640625" y="244.623437" transform="rotate(-0, 689.640625, 244.623437)">collection_timepoint</text>
   </g>
   <g id="patch_5">
    <path d="M 700.095312 258.798437 
L 720.095312 258.798437 
L 720.095312 251.798437 
L 700.095312 251.798437 
z
" style="fill: #f3f244; fill-opacity: 0.75; stroke: #000000; stroke-width: 0.5; stroke-linejoin: miter"/>
   </g>
   <g id="text_29">
    <text style="font: 10px 'sans-serif'; text-anchor: start" x="728.095312" y="258.798437" transform="rotate(-0, 728.095312, 258.798437)">Day3</text>
   </g>
   <g id="patch_6">
    <path d="M 700.095312 273.060937 
L 720.095312 273.060937 
L 720.095312 266.060937 
L 700.095312 266.060937 
z
" style="fill: #ffe216; fill-opacity: 0.75; stroke: #000000; stroke-width: 0.5; stroke-linejoin: miter"/>
   </g>
   <g id="text_30">
    <text style="font: 10px 'sans-serif'; text-anchor: start" x="728.095312" y="273.060937" transform="rotate(-0, 728.095312, 273.060937)">Day7</text>
   </g>
   <g id="patch_7">
    <path d="M 700.095312 287.323437 
L 720.095312 287.323437 
L 720.095312 280.323437 
L 700.095312 280.323437 
z
" style="fill: #ffc908; fill-opacity: 0.75; stroke: #000000; stroke-width: 0.5; stroke-linejoin: miter"/>
   </g>
   <g id="text_31">
    <text style="font: 10px 'sans-serif'; text-anchor: start" x="728.095312" y="287.323437" transform="rotate(-0, 728.095312, 287.323437)">Month1</text>
   </g>
   <g id="patch_8">
    <path d="M 700.095312 301.46875 
L 720.095312 301.46875 
L 720.095312 294.46875 
L 700.095312 294.46875 
z
" style="fill: #ffb500; fill-opacity: 0.75; stroke: #000000; stroke-width: 0.5; stroke-linejoin: miter"/>
   </g>
   <g id="text_32">
    <text style="font: 10px 'sans-serif'; text-anchor: start" x="728.095312" y="301.46875" transform="rotate(-0, 728.095312, 301.46875)">Month3</text>
   </g>
   <g id="patch_9">
    <path d="M 700.095312 315.614062 
L 720.095312 315.614062 
L 720.095312 308.614062 
L 700.095312 308.614062 
z
" style="fill: #ffa400; fill-opacity: 0.75; stroke: #000000; stroke-width: 0.5; stroke-linejoin: miter"/>
   </g>
   <g id="text_33">
    <text style="font: 10px 'sans-serif'; text-anchor: start" x="728.095312" y="315.614062" transform="rotate(-0, 728.095312, 315.614062)">Month6</text>
   </g>
   <g id="patch_10">
    <path d="M 700.095312 329.759375 
L 720.095312 329.759375 
L 720.095312 322.759375 
L 700.095312 322.759375 
z
" style="fill: #fe9200; fill-opacity: 0.75; stroke: #000000; stroke-width: 0.5; stroke-linejoin: miter"/>
   </g>
   <g id="text_34">
    <text style="font: 10px 'sans-serif'; text-anchor: start" x="728.095312" y="329.759375" transform="rotate(-0, 728.095312, 329.759375)">Month10</text>
   </g>
  </g>
 </g>
 <defs>
  <clipPath id="pe418b25dcb">
   <rect x="41.3625" y="7.2" width="627.723" height="525.4"/>
  </clipPath>
 </defs>
</svg>
