<?xml version="1.0" encoding="utf-8" standalone="no"?>
<!DOCTYPE svg PUBLIC "-//W3C//DTD SVG 1.1//EN"
  "http://www.w3.org/Graphics/SVG/1.1/DTD/svg11.dtd">
<svg xmlns:xlink="http://www.w3.org/1999/xlink" width="1225.003906pt" height="636.443438pt" viewBox="0 0 1225.003906 636.443438" xmlns="http://www.w3.org/2000/svg" version="1.1">
 <metadata>
  <rdf:RDF xmlns:dc="http://purl.org/dc/elements/1.1/" xmlns:cc="http://creativecommons.org/ns#" xmlns:rdf="http://www.w3.org/1999/02/22-rdf-syntax-ns#">
   <cc:Work>
    <dc:type rdf:resource="http://purl.org/dc/dcmitype/StillImage"/>
    <dc:date>2022-06-17T15:30:10.792716</dc:date>
    <dc:format>image/svg+xml</dc:format>
    <dc:creator>
     <cc:Agent>
      <dc:title>Matplotlib v3.5.1, https://matplotlib.org/</dc:title>
     </cc:Agent>
    </dc:creator>
   </cc:Work>
  </rdf:RDF>
 </metadata>
 <defs>
  <style type="text/css">*{stroke-linejoin: round; stroke-linecap: butt}</style>
 </defs>
 <g id="figure_1">
  <g id="patch_1">
   <path d="M 0 636.443438 
L 1225.003906 636.443438 
L 1225.003906 0 
L 0 0 
z
" style="fill: #ffffff"/>
  </g>
  <g id="axes_1">
   <g id="patch_2">
    <path d="M 91.744063 550.8 
L 1207.744062 550.8 
L 1207.744062 7.2 
L 91.744063 7.2 
z
" style="fill: #ffffff"/>
   </g>
   <g id="matplotlib.axis_1">
    <g id="xtick_1">
     <g id="text_1">
      <text style="fill: #262626; font: 22px 'sans-serif'" transform="translate(97.431406 578.534063)rotate(-90)">0</text>
     </g>
    </g>
    <g id="xtick_2">
     <g id="text_2">
      <text style="fill: #262626; font: 22px 'sans-serif'" transform="translate(283.431406 590.768125)rotate(-90)">50</text>
     </g>
    </g>
    <g id="xtick_3">
     <g id="text_3">
      <text style="fill: #262626; font: 22px 'sans-serif'" transform="translate(469.431406 603.002188)rotate(-90)">100</text>
     </g>
    </g>
    <g id="xtick_4">
     <g id="text_4">
      <text style="fill: #262626; font: 22px 'sans-serif'" transform="translate(655.431406 603.002188)rotate(-90)">150</text>
     </g>
    </g>
    <g id="xtick_5">
     <g id="text_5">
      <text style="fill: #262626; font: 22px 'sans-serif'" transform="translate(841.431406 603.002188)rotate(-90)">200</text>
     </g>
    </g>
    <g id="xtick_6">
     <g id="text_6">
      <text style="fill: #262626; font: 22px 'sans-serif'" transform="translate(1027.431406 603.002188)rotate(-90)">250</text>
     </g>
    </g>
    <g id="xtick_7">
     <g id="text_7">
      <text style="fill: #262626; font: 22px 'sans-serif'" transform="translate(1213.431406 603.002188)rotate(-90)">300</text>
     </g>
    </g>
    <g id="text_8">
     <text style="fill: #262626; font: 24px 'sans-serif'; text-anchor: middle" x="649.744063" y="624.473438" transform="rotate(-0, 649.744063, 624.473438)">observed_features</text>
    </g>
   </g>
   <g id="matplotlib.axis_2">
    <g id="ytick_1">
     <g id="text_9">
      <text style="fill: #262626; font: 22px 'sans-serif'; text-anchor: end" x="76.244063" y="558.673594" transform="rotate(-0, 76.244063, 558.673594)">0.00</text>
     </g>
    </g>
    <g id="ytick_2">
     <g id="text_10">
      <text style="fill: #262626; font: 22px 'sans-serif'; text-anchor: end" x="76.244063" y="453.311278" transform="rotate(-0, 76.244063, 453.311278)">0.01</text>
     </g>
    </g>
    <g id="ytick_3">
     <g id="text_11">
      <text style="fill: #262626; font: 22px 'sans-serif'; text-anchor: end" x="76.244063" y="347.948962" transform="rotate(-0, 76.244063, 347.948962)">0.02</text>
     </g>
    </g>
    <g id="ytick_4">
     <g id="text_12">
      <text style="fill: #262626; font: 22px 'sans-serif'; text-anchor: end" x="76.244063" y="242.586646" transform="rotate(-0, 76.244063, 242.586646)">0.03</text>
     </g>
    </g>
    <g id="ytick_5">
     <g id="text_13">
      <text style="fill: #262626; font: 22px 'sans-serif'; text-anchor: end" x="76.244063" y="137.22433" transform="rotate(-0, 76.244063, 137.22433)">0.04</text>
     </g>
    </g>
    <g id="ytick_6">
     <g id="text_14">
      <text style="fill: #262626; font: 22px 'sans-serif'; text-anchor: end" x="76.244063" y="31.862014" transform="rotate(-0, 76.244063, 31.862014)">0.05</text>
     </g>
    </g>
    <g id="text_15">
     <text style="fill: #262626; font: 24px 'sans-serif'; text-anchor: middle" x="24.37875" y="279" transform="rotate(-90, 24.37875, 279)">Density</text>
    </g>
   </g>
   <g id="PolyCollection_1">
    <path d="M 63.076908 550.686067 
L 63.076908 550.8 
L 70.281603 550.8 
L 77.486299 550.8 
L 84.690994 550.8 
L 91.895689 550.8 
L 99.100384 550.8 
L 106.305079 550.8 
L 113.509774 550.8 
L 120.714469 550.8 
L 127.919164 550.8 
L 135.123859 550.8 
L 142.328554 550.8 
L 149.533249 550.8 
L 156.737944 550.8 
L 163.942639 550.8 
L 171.147334 550.8 
L 178.352029 550.8 
L 185.556724 550.8 
L 192.761419 550.8 
L 199.966114 550.8 
L 207.170809 550.8 
L 214.375504 550.8 
L 221.580199 550.8 
L 228.784894 550.8 
L 235.989589 550.8 
L 243.194284 550.8 
L 250.398979 550.8 
L 257.603674 550.8 
L 264.808369 550.8 
L 272.013064 550.8 
L 279.217759 550.8 
L 286.422454 550.8 
L 293.627149 550.8 
L 300.831844 550.8 
L 308.036539 550.8 
L 315.241234 550.8 
L 322.445929 550.8 
L 329.650624 550.8 
L 336.855319 550.8 
L 344.060014 550.8 
L 351.264709 550.8 
L 358.469404 550.8 
L 365.674099 550.8 
L 372.878794 550.8 
L 380.083489 550.8 
L 387.288184 550.8 
L 394.492879 550.8 
L 401.697574 550.8 
L 408.902269 550.8 
L 416.106964 550.8 
L 423.311659 550.8 
L 430.516354 550.8 
L 437.721049 550.8 
L 444.925744 550.8 
L 452.130439 550.8 
L 459.335134 550.8 
L 466.539829 550.8 
L 473.744524 550.8 
L 480.949219 550.8 
L 488.153914 550.8 
L 495.358609 550.8 
L 502.563304 550.8 
L 509.767999 550.8 
L 516.972694 550.8 
L 524.177389 550.8 
L 531.382084 550.8 
L 538.586779 550.8 
L 545.791475 550.8 
L 552.99617 550.8 
L 560.200865 550.8 
L 567.40556 550.8 
L 574.610255 550.8 
L 581.81495 550.8 
L 589.019645 550.8 
L 596.22434 550.8 
L 603.429035 550.8 
L 610.63373 550.8 
L 617.838425 550.8 
L 625.04312 550.8 
L 632.247815 550.8 
L 639.45251 550.8 
L 646.657205 550.8 
L 653.8619 550.8 
L 661.066595 550.8 
L 668.27129 550.8 
L 675.475985 550.8 
L 682.68068 550.8 
L 689.885375 550.8 
L 697.09007 550.8 
L 704.294765 550.8 
L 711.49946 550.8 
L 718.704155 550.8 
L 725.90885 550.8 
L 733.113545 550.8 
L 740.31824 550.8 
L 747.522935 550.8 
L 754.72763 550.8 
L 761.932325 550.8 
L 769.13702 550.8 
L 776.341715 550.8 
L 783.54641 550.8 
L 790.751105 550.8 
L 797.9558 550.8 
L 805.160495 550.8 
L 812.36519 550.8 
L 819.569885 550.8 
L 826.77458 550.8 
L 833.979275 550.8 
L 841.18397 550.8 
L 848.388665 550.8 
L 855.59336 550.8 
L 862.798055 550.8 
L 870.00275 550.8 
L 877.207445 550.8 
L 884.41214 550.8 
L 891.616835 550.8 
L 898.82153 550.8 
L 906.026225 550.8 
L 913.23092 550.8 
L 920.435615 550.8 
L 927.64031 550.8 
L 934.845005 550.8 
L 942.0497 550.8 
L 949.254395 550.8 
L 956.45909 550.8 
L 963.663785 550.8 
L 970.86848 550.8 
L 978.073175 550.8 
L 985.27787 550.8 
L 992.482565 550.8 
L 999.68726 550.8 
L 1006.891955 550.8 
L 1014.09665 550.8 
L 1021.301346 550.8 
L 1028.506041 550.8 
L 1035.710736 550.8 
L 1042.915431 550.8 
L 1050.120126 550.8 
L 1057.324821 550.8 
L 1064.529516 550.8 
L 1071.734211 550.8 
L 1078.938906 550.8 
L 1086.143601 550.8 
L 1093.348296 550.8 
L 1100.552991 550.8 
L 1107.757686 550.8 
L 1114.962381 550.8 
L 1122.167076 550.8 
L 1129.371771 550.8 
L 1136.576466 550.8 
L 1143.781161 550.8 
L 1150.985856 550.8 
L 1158.190551 550.8 
L 1165.395246 550.8 
L 1172.599941 550.8 
L 1179.804636 550.8 
L 1187.009331 550.8 
L 1194.214026 550.8 
L 1201.418721 550.8 
L 1208.623416 550.8 
L 1215.828111 550.8 
L 1223.032806 550.8 
L 1230.237501 550.8 
L 1237.442196 550.8 
L 1244.646891 550.8 
L 1251.851586 550.8 
L 1259.056281 550.8 
L 1266.260976 550.8 
L 1273.465671 550.8 
L 1280.670366 550.8 
L 1287.875061 550.8 
L 1295.079756 550.8 
L 1302.284451 550.8 
L 1309.489146 550.8 
L 1316.693841 550.8 
L 1323.898536 550.8 
L 1331.103231 550.8 
L 1338.307926 550.8 
L 1345.512621 550.8 
L 1352.717316 550.8 
L 1359.922011 550.8 
L 1367.126706 550.8 
L 1374.331401 550.8 
L 1381.536096 550.8 
L 1388.740791 550.8 
L 1395.945486 550.8 
L 1403.150181 550.8 
L 1410.354876 550.8 
L 1417.559571 550.8 
L 1424.764266 550.8 
L 1431.968961 550.8 
L 1439.173656 550.8 
L 1446.378351 550.8 
L 1453.583046 550.8 
L 1460.787741 550.8 
L 1467.992436 550.8 
L 1475.197131 550.8 
L 1482.401826 550.8 
L 1489.606522 550.8 
L 1496.811217 550.8 
L 1496.811217 550.792741 
L 1496.811217 550.792741 
L 1489.606522 550.77633 
L 1482.401826 550.735504 
L 1475.197131 550.653116 
L 1467.992436 550.520236 
L 1460.787741 550.35359 
L 1453.583046 550.200429 
L 1446.378351 550.113644 
L 1439.173656 550.109123 
L 1431.968961 550.147212 
L 1424.764266 550.165542 
L 1417.559571 550.13632 
L 1410.354876 550.089491 
L 1403.150181 550.076184 
L 1395.945486 550.111022 
L 1388.740791 550.155783 
L 1381.536096 550.162217 
L 1374.331401 550.12744 
L 1367.126706 550.102384 
L 1359.922011 550.145288 
L 1352.717316 550.269612 
L 1345.512621 550.436548 
L 1338.307926 550.590964 
L 1331.103231 550.699384 
L 1323.898536 550.759512 
L 1316.693841 550.786385 
L 1309.489146 550.796174 
L 1302.284451 550.799102 
L 1295.079756 550.799824 
L 1287.875061 550.799971 
L 1280.670366 550.799996 
L 1273.465671 550.8 
L 1266.260976 550.8 
L 1259.056281 550.8 
L 1251.851586 550.8 
L 1244.646891 550.8 
L 1237.442196 550.8 
L 1230.237501 550.8 
L 1223.032806 550.8 
L 1215.828111 550.8 
L 1208.623416 550.8 
L 1201.418721 550.8 
L 1194.214026 550.8 
L 1187.009331 550.8 
L 1179.804636 550.8 
L 1172.599941 550.8 
L 1165.395246 550.8 
L 1158.190551 550.8 
L 1150.985856 550.8 
L 1143.781161 550.8 
L 1136.576466 550.8 
L 1129.371771 550.8 
L 1122.167076 550.8 
L 1114.962381 550.8 
L 1107.757686 550.8 
L 1100.552991 550.8 
L 1093.348296 550.8 
L 1086.143601 550.8 
L 1078.938906 550.8 
L 1071.734211 550.8 
L 1064.529516 550.8 
L 1057.324821 550.8 
L 1050.120126 550.8 
L 1042.915431 550.8 
L 1035.710736 550.8 
L 1028.506041 550.8 
L 1021.301346 550.8 
L 1014.09665 550.8 
L 1006.891955 550.8 
L 999.68726 550.799998 
L 992.482565 550.799985 
L 985.27787 550.799904 
L 978.073175 550.79948 
L 970.86848 550.797643 
L 963.663785 550.79107 
L 956.45909 550.771734 
L 949.254395 550.725244 
L 942.0497 550.634811 
L 934.845005 550.495018 
L 927.64031 550.329538 
L 920.435615 550.193639 
L 913.23092 550.147028 
L 906.026225 550.212491 
L 898.82153 550.358337 
L 891.616835 550.522587 
L 884.41214 550.6544 
L 877.207445 550.736064 
L 870.00275 550.776071 
L 862.798055 550.790394 
L 855.59336 550.788942 
L 848.388665 550.77054 
L 841.18397 550.723415 
L 833.979275 550.631713 
L 826.77458 550.490788 
L 819.569885 550.325275 
L 812.36519 550.191044 
L 805.160495 550.147341 
L 797.9558 550.215555 
L 790.751105 550.362716 
L 783.54641 550.526598 
L 776.341715 550.656954 
L 769.13702 550.736374 
L 761.932325 550.771913 
L 754.72763 550.774824 
L 747.522935 550.746379 
L 740.31824 550.676532 
L 733.113545 550.555815 
L 725.90885 550.395485 
L 718.704155 550.239979 
L 711.49946 550.152202 
L 704.294765 550.173916 
L 697.09007 550.294429 
L 689.885375 550.458895 
L 682.68068 550.607713 
L 675.475985 550.709433 
L 668.27129 550.764359 
L 661.066595 550.788281 
L 653.8619 550.796781 
L 646.657205 550.799261 
L 639.45251 550.799858 
L 632.247815 550.799977 
L 625.04312 550.799997 
L 617.838425 550.8 
L 610.63373 550.8 
L 603.429035 550.8 
L 596.22434 550.799999 
L 589.019645 550.799992 
L 581.81495 550.799942 
L 574.610255 550.79967 
L 567.40556 550.798428 
L 560.200865 550.793737 
L 552.99617 550.779148 
L 545.791475 550.74198 
L 538.586779 550.665025 
L 531.382084 550.537197 
L 524.177389 550.370628 
L 516.972694 550.207559 
L 509.767999 550.099073 
L 502.563304 550.06495 
L 495.358609 550.075248 
L 488.153914 550.081286 
L 480.949219 550.068266 
L 473.744524 550.071233 
L 466.539829 550.135358 
L 459.335134 550.264273 
L 452.130439 550.408713 
L 444.925744 550.498518 
L 437.721049 550.481968 
L 430.516354 550.346079 
L 423.311659 550.117379 
L 416.106964 549.849013 
L 408.902269 549.598337 
L 401.697574 549.40642 
L 394.492879 549.291391 
L 387.288184 549.250981 
L 380.083489 549.260714 
L 372.878794 549.268659 
L 365.674099 549.200419 
L 358.469404 548.979181 
L 351.264709 548.55398 
L 344.060014 547.929892 
L 336.855319 547.187087 
L 329.650624 546.45786 
L 322.445929 545.846345 
L 315.241234 545.342543 
L 308.036539 544.82358 
L 300.831844 544.165649 
L 293.627149 543.363439 
L 286.422454 542.529752 
L 279.217759 541.774935 
L 272.013064 541.09746 
L 264.808369 540.399849 
L 257.603674 539.598153 
L 250.398979 538.670127 
L 243.194284 537.517286 
L 235.989589 535.664613 
L 228.784894 531.853434 
L 221.580199 523.361787 
L 214.375504 504.879368 
L 207.170809 467.852759 
L 199.966114 403.034787 
L 192.761419 308.309856 
L 185.556724 197.664905 
L 178.352029 100.306327 
L 171.147334 43.771962 
L 163.942639 33.085714 
L 156.737944 48.339679 
L 149.533249 66.331332 
L 142.328554 84.069184 
L 135.123859 118.673243 
L 127.919164 185.282158 
L 120.714469 278.493227 
L 113.509774 375.601532 
L 106.305079 454.253711 
L 99.100384 505.309915 
L 91.895689 532.436892 
L 84.690994 544.422403 
L 77.486299 548.884271 
L 70.281603 550.299775 
L 63.076908 550.686067 
z
" clip-path="url(#pcf3eaf30f3)" style="fill: #0000ff; fill-opacity: 0.25; stroke: #0000ff; stroke-width: 2"/>
   </g>
   <g id="PolyCollection_2">
    <path d="M -295.914634 550.790883 
L -295.914634 550.8 
L -261.454748 550.8 
L -226.994861 550.8 
L -192.534975 550.8 
L -158.075089 550.8 
L -123.615202 550.8 
L -89.155316 550.8 
L -54.695429 550.8 
L -20.235543 550.8 
L 14.224343 550.8 
L 48.68423 550.8 
L 83.144116 550.8 
L 117.604003 550.8 
L 152.063889 550.8 
L 186.523775 550.8 
L 220.983662 550.8 
L 255.443548 550.8 
L 289.903435 550.8 
L 324.363321 550.8 
L 358.823207 550.8 
L 393.283094 550.8 
L 427.74298 550.8 
L 462.202867 550.8 
L 496.662753 550.8 
L 531.122639 550.8 
L 565.582526 550.8 
L 600.042412 550.8 
L 634.502299 550.8 
L 668.962185 550.8 
L 703.422071 550.8 
L 737.881958 550.8 
L 772.341844 550.8 
L 806.801731 550.8 
L 841.261617 550.8 
L 875.721503 550.8 
L 910.18139 550.8 
L 944.641276 550.8 
L 979.101163 550.8 
L 1013.561049 550.8 
L 1048.020935 550.8 
L 1082.480822 550.8 
L 1116.940708 550.8 
L 1151.400595 550.8 
L 1185.860481 550.8 
L 1220.320367 550.8 
L 1254.780254 550.8 
L 1289.24014 550.8 
L 1323.700027 550.8 
L 1358.159913 550.8 
L 1392.619799 550.8 
L 1427.079686 550.8 
L 1461.539572 550.8 
L 1495.999459 550.8 
L 1530.459345 550.8 
L 1564.919231 550.8 
L 1599.379118 550.8 
L 1633.839004 550.8 
L 1668.298891 550.8 
L 1702.758777 550.8 
L 1737.218663 550.8 
L 1771.67855 550.8 
L 1806.138436 550.8 
L 1840.598323 550.8 
L 1875.058209 550.8 
L 1909.518095 550.8 
L 1943.977982 550.8 
L 1978.437868 550.8 
L 2012.897755 550.8 
L 2047.357641 550.8 
L 2081.817527 550.8 
L 2116.277414 550.8 
L 2150.7373 550.8 
L 2185.197187 550.8 
L 2219.657073 550.8 
L 2254.116959 550.8 
L 2288.576846 550.8 
L 2323.036732 550.8 
L 2357.496619 550.8 
L 2391.956505 550.8 
L 2426.416391 550.8 
L 2460.876278 550.8 
L 2495.336164 550.8 
L 2529.796051 550.8 
L 2564.255937 550.8 
L 2598.715823 550.8 
L 2633.17571 550.8 
L 2667.635596 550.8 
L 2702.095483 550.8 
L 2736.555369 550.8 
L 2771.015255 550.8 
L 2805.475142 550.8 
L 2839.935028 550.8 
L 2874.394915 550.8 
L 2908.854801 550.8 
L 2943.314687 550.8 
L 2977.774574 550.8 
L 3012.23446 550.8 
L 3046.694347 550.8 
L 3081.154233 550.8 
L 3115.614119 550.8 
L 3150.074006 550.8 
L 3184.533892 550.8 
L 3218.993778 550.8 
L 3253.453665 550.8 
L 3287.913551 550.8 
L 3322.373438 550.8 
L 3356.833324 550.8 
L 3391.29321 550.8 
L 3425.753097 550.8 
L 3460.212983 550.8 
L 3494.67287 550.8 
L 3529.132756 550.8 
L 3563.592642 550.8 
L 3598.052529 550.8 
L 3632.512415 550.8 
L 3666.972302 550.8 
L 3701.432188 550.8 
L 3735.892074 550.8 
L 3770.351961 550.8 
L 3804.811847 550.8 
L 3839.271734 550.8 
L 3873.73162 550.8 
L 3908.191506 550.8 
L 3942.651393 550.8 
L 3977.111279 550.8 
L 4011.571166 550.8 
L 4046.031052 550.8 
L 4080.490938 550.8 
L 4114.950825 550.8 
L 4149.410711 550.8 
L 4183.870598 550.8 
L 4218.330484 550.8 
L 4252.79037 550.8 
L 4287.250257 550.8 
L 4321.710143 550.8 
L 4356.17003 550.8 
L 4390.629916 550.8 
L 4425.089802 550.8 
L 4459.549689 550.8 
L 4494.009575 550.8 
L 4528.469462 550.8 
L 4562.929348 550.8 
L 4597.389234 550.8 
L 4631.849121 550.8 
L 4666.309007 550.8 
L 4700.768894 550.8 
L 4735.22878 550.8 
L 4769.688666 550.8 
L 4804.148553 550.8 
L 4838.608439 550.8 
L 4873.068326 550.8 
L 4907.528212 550.8 
L 4941.988098 550.8 
L 4976.447985 550.8 
L 5010.907871 550.8 
L 5045.367758 550.8 
L 5079.827644 550.8 
L 5114.28753 550.8 
L 5148.747417 550.8 
L 5183.207303 550.8 
L 5217.66719 550.8 
L 5252.127076 550.8 
L 5286.586962 550.8 
L 5321.046849 550.8 
L 5355.506735 550.8 
L 5389.966622 550.8 
L 5424.426508 550.8 
L 5458.886394 550.8 
L 5493.346281 550.8 
L 5527.806167 550.8 
L 5562.266054 550.8 
L 5596.72594 550.8 
L 5631.185826 550.8 
L 5665.645713 550.8 
L 5700.105599 550.8 
L 5734.565486 550.8 
L 5769.025372 550.8 
L 5803.485258 550.8 
L 5837.945145 550.8 
L 5872.405031 550.8 
L 5906.864918 550.8 
L 5941.324804 550.8 
L 5975.78469 550.8 
L 6010.244577 550.8 
L 6044.704463 550.8 
L 6079.16435 550.8 
L 6113.624236 550.8 
L 6148.084122 550.8 
L 6182.544009 550.8 
L 6217.003895 550.8 
L 6251.463782 550.8 
L 6285.923668 550.8 
L 6320.383554 550.8 
L 6354.843441 550.8 
L 6389.303327 550.8 
L 6423.763214 550.8 
L 6458.2231 550.8 
L 6492.682986 550.8 
L 6527.142873 550.8 
L 6561.602759 550.8 
L 6561.602759 550.799167 
L 6561.602759 550.799167 
L 6527.142873 550.798377 
L 6492.682986 550.797003 
L 6458.2231 550.794754 
L 6423.763214 550.791295 
L 6389.303327 550.786306 
L 6354.843441 550.77958 
L 6320.383554 550.771134 
L 6285.923668 550.761318 
L 6251.463782 550.750861 
L 6217.003895 550.740827 
L 6182.544009 550.732452 
L 6148.084122 550.726905 
L 6113.624236 550.725018 
L 6079.16435 550.727086 
L 6044.704463 550.732787 
L 6010.244577 550.741266 
L 5975.78469 550.751347 
L 5941.324804 550.761795 
L 5906.864918 550.77156 
L 5872.405031 550.779931 
L 5837.945145 550.786576 
L 5803.485258 550.791487 
L 5769.025372 550.794883 
L 5734.565486 550.797084 
L 5700.105599 550.798425 
L 5665.645713 550.799193 
L 5631.185826 550.799608 
L 5596.72594 550.79982 
L 5562.266054 550.799921 
L 5527.806167 550.799968 
L 5493.346281 550.799987 
L 5458.886394 550.799995 
L 5424.426508 550.799998 
L 5389.966622 550.799999 
L 5355.506735 550.8 
L 5321.046849 550.8 
L 5286.586962 550.8 
L 5252.127076 550.8 
L 5217.66719 550.8 
L 5183.207303 550.8 
L 5148.747417 550.799999 
L 5114.28753 550.799997 
L 5079.827644 550.799991 
L 5045.367758 550.799977 
L 5010.907871 550.799942 
L 4976.447985 550.79986 
L 4941.988098 550.799679 
L 4907.528212 550.799296 
L 4873.068326 550.798529 
L 4838.608439 550.797064 
L 4804.148553 550.794399 
L 4769.688666 550.789766 
L 4735.22878 550.782063 
L 4700.768894 550.76979 
L 4666.309007 550.751024 
L 4631.849121 550.723453 
L 4597.389234 550.684503 
L 4562.929348 550.631608 
L 4528.469462 550.562638 
L 4494.009575 550.476498 
L 4459.549689 550.37382 
L 4425.089802 550.25759 
L 4390.629916 550.133477 
L 4356.17003 550.009596 
L 4321.710143 549.895551 
L 4287.250257 549.800827 
L 4252.79037 549.732854 
L 4218.330484 549.695294 
L 4183.870598 549.687133 
L 4149.410711 549.702942 
L 4114.950825 549.734325 
L 4080.490938 549.772097 
L 4046.031052 549.808523 
L 4011.571166 549.838879 
L 3977.111279 549.861918 
L 3942.651393 549.879198 
L 3908.191506 549.89371 
L 3873.73162 549.908408 
L 3839.271734 549.925245 
L 3804.811847 549.944973 
L 3770.351961 549.967602 
L 3735.892074 549.993097 
L 3701.432188 550.021839 
L 3666.972302 550.054566 
L 3632.512415 550.091854 
L 3598.052529 550.13344 
L 3563.592642 550.177815 
L 3529.132756 550.222335 
L 3494.67287 550.263836 
L 3460.212983 550.299515 
L 3425.753097 550.3277 
L 3391.29321 550.348252 
L 3356.833324 550.36247 
L 3322.373438 550.372619 
L 3287.913551 550.381289 
L 3253.453665 550.39081 
L 3218.993778 550.402881 
L 3184.533892 550.418455 
L 3150.074006 550.437791 
L 3115.614119 550.460571 
L 3081.154233 550.485968 
L 3046.694347 550.512641 
L 3012.23446 550.538705 
L 2977.774574 550.561771 
L 2943.314687 550.579122 
L 2908.854801 550.58806 
L 2874.394915 550.586344 
L 2839.935028 550.57261 
L 2805.475142 550.546655 
L 2771.015255 550.509503 
L 2736.555369 550.463265 
L 2702.095483 550.410868 
L 2667.635596 550.355735 
L 2633.17571 550.301506 
L 2598.715823 550.251814 
L 2564.255937 550.210091 
L 2529.796051 550.179384 
L 2495.336164 550.162143 
L 2460.876278 550.160022 
L 2426.416391 550.173709 
L 2391.956505 550.202823 
L 2357.496619 550.245897 
L 2323.036732 550.300454 
L 2288.576846 550.363186 
L 2254.116959 550.430241 
L 2219.657073 550.497605 
L 2185.197187 550.561546 
L 2150.7373 550.619024 
L 2116.277414 550.667987 
L 2081.817527 550.707479 
L 2047.357641 550.737532 
L 2012.897755 550.75889 
L 1978.437868 550.772639 
L 1943.977982 550.779835 
L 1909.518095 550.781219 
L 1875.058209 550.77707 
L 1840.598323 550.767212 
L 1806.138436 550.7512 
L 1771.67855 550.728632 
L 1737.218663 550.699542 
L 1702.758777 550.664763 
L 1668.298891 550.626146 
L 1633.839004 550.586514 
L 1599.379118 550.549291 
L 1564.919231 550.517846 
L 1530.459345 550.494701 
L 1495.999459 550.480839 
L 1461.539572 550.475326 
L 1427.079686 550.475377 
L 1392.619799 550.476831 
L 1358.159913 550.474806 
L 1323.700027 550.464233 
L 1289.24014 550.440004 
L 1254.780254 550.396627 
L 1220.320367 550.327551 
L 1185.860481 550.224558 
L 1151.400595 550.077684 
L 1116.940708 549.876029 
L 1082.480822 549.609385 
L 1048.020935 549.270158 
L 1013.561049 548.854549 
L 979.101163 548.36181 
L 944.641276 547.790639 
L 910.18139 547.132304 
L 875.721503 546.360805 
L 841.261617 545.420853 
L 806.801731 544.214806 
L 772.341844 542.59042 
L 737.881958 540.332927 
L 703.422071 537.167861 
L 668.962185 532.783958 
L 634.502299 526.885767 
L 600.042412 519.27987 
L 565.582526 509.985333 
L 531.122639 499.340975 
L 496.662753 488.067152 
L 462.202867 477.238573 
L 427.74298 468.144327 
L 393.283094 462.049398 
L 358.823207 459.91467 
L 324.363321 462.159601 
L 289.903435 468.547166 
L 255.443548 478.232601 
L 220.983662 489.960794 
L 186.523775 502.346869 
L 152.063889 514.152003 
L 117.604003 524.479128 
L 83.144116 532.85124 
L 48.68423 539.179028 
L 14.224343 543.65602 
L -20.235543 546.629667 
L -54.695429 548.487895 
L -89.155316 549.582245 
L -123.615202 550.190491 
L -158.075089 550.50995 
L -192.534975 550.668686 
L -226.994861 550.743397 
L -261.454748 550.776746 
L -295.914634 550.790883 
z
" clip-path="url(#pcf3eaf30f3)" style="fill: #ffa500; fill-opacity: 0.25; stroke: #ffa500; stroke-width: 2"/>
   </g>
   <g id="patch_3">
    <path d="M 91.744063 550.8 
L 91.744063 7.2 
" style="fill: none; stroke: #262626; stroke-width: 2.5; stroke-linejoin: miter; stroke-linecap: square"/>
   </g>
   <g id="patch_4">
    <path d="M 1207.744062 550.8 
L 1207.744062 7.2 
" style="fill: none; stroke: #262626; stroke-width: 2.5; stroke-linejoin: miter; stroke-linecap: square"/>
   </g>
   <g id="patch_5">
    <path d="M 91.744063 550.8 
L 1207.744062 550.8 
" style="fill: none; stroke: #262626; stroke-width: 2.5; stroke-linejoin: miter; stroke-linecap: square"/>
   </g>
   <g id="patch_6">
    <path d="M 91.744063 7.2 
L 1207.744062 7.2 
" style="fill: none; stroke: #262626; stroke-width: 2.5; stroke-linejoin: miter; stroke-linecap: square"/>
   </g>
  </g>
 </g>
 <defs>
  <clipPath id="pcf3eaf30f3">
   <rect x="91.744063" y="7.2" width="1116" height="543.6"/>
  </clipPath>
 </defs>
</svg>
