<?xml version="1.0" encoding="utf-8" standalone="no"?>
<!DOCTYPE svg PUBLIC "-//W3C//DTD SVG 1.1//EN"
  "http://www.w3.org/Graphics/SVG/1.1/DTD/svg11.dtd">
<svg xmlns:xlink="http://www.w3.org/1999/xlink" width="918.8204pt" height="558pt" viewBox="0 0 918.8204 558" xmlns="http://www.w3.org/2000/svg" version="1.1">
 <metadata>
  <rdf:RDF xmlns:dc="http://purl.org/dc/elements/1.1/" xmlns:cc="http://creativecommons.org/ns#" xmlns:rdf="http://www.w3.org/1999/02/22-rdf-syntax-ns#">
   <cc:Work>
    <dc:type rdf:resource="http://purl.org/dc/dcmitype/StillImage"/>
    <dc:date>2022-06-20T13:31:05.022842</dc:date>
    <dc:format>image/svg+xml</dc:format>
    <dc:creator>
     <cc:Agent>
      <dc:title>Matplotlib v3.5.1, https://matplotlib.org/</dc:title>
     </cc:Agent>
    </dc:creator>
   </cc:Work>
  </rdf:RDF>
 </metadata>
 <defs>
  <style type="text/css">*{stroke-linejoin: round; stroke-linecap: butt}</style>
 </defs>
 <g id="figure_1">
  <g id="patch_1">
   <path d="M 0 558 
L 918.8204 558 
L 918.8204 0 
L 0 0 
L 0 558 
z
" style="fill: none"/>
  </g>
  <g id="axes_1">
   <g id="patch_2">
    <path d="M 39.619505 550.8 
L 170.42737 550.8 
L 170.42737 470.817395 
L 39.619505 470.817395 
z
" clip-path="url(#p2b8db4ba35)" style="fill: #ff2800; opacity: 0.8"/>
   </g>
   <g id="patch_3">
    <path d="M 39.619505 470.817395 
L 170.42737 470.817395 
L 170.42737 294.563669 
L 39.619505 294.563669 
z
" clip-path="url(#p2b8db4ba35)" style="fill: #ffe000; opacity: 0.8"/>
   </g>
   <g id="patch_4">
    <path d="M 39.619505 294.563669 
L 170.42737 294.563669 
L 170.42737 86.362653 
L 39.619505 86.362653 
z
" clip-path="url(#p2b8db4ba35)" style="fill: #ff1800; opacity: 0.8"/>
   </g>
   <g id="patch_5">
    <path d="M 39.619505 86.362653 
L 170.42737 86.362653 
L 170.42737 55.201901 
L 39.619505 55.201901 
z
" clip-path="url(#p2b8db4ba35)" style="fill: #fff800; opacity: 0.8"/>
   </g>
   <g id="patch_6">
    <path d="M 39.619505 55.201901 
L 170.42737 55.201901 
L 170.42737 7.2 
L 39.619505 7.2 
z
" clip-path="url(#p2b8db4ba35)" style="fill: #ff1000; opacity: 0.8"/>
   </g>
   <g id="patch_7">
    <path d="M 170.42737 550.8 
L 321.139565 550.8 
L 321.139565 450.8545 
L 170.42737 450.8545 
z
" clip-path="url(#p2b8db4ba35)" style="fill: #ff4000; opacity: 0.8"/>
   </g>
   <g id="patch_8">
    <path d="M 321.139565 550.8 
L 455.746195 550.8 
L 455.746195 450.8545 
L 321.139565 450.8545 
z
" clip-path="url(#p2b8db4ba35)" style="fill: #ffc800; opacity: 0.8"/>
   </g>
   <g id="patch_9">
    <path d="M 455.746195 550.8 
L 686.143069 550.8 
L 686.143069 450.8545 
L 455.746195 450.8545 
z
" clip-path="url(#p2b8db4ba35)" style="fill: #ffe800; opacity: 0.8"/>
   </g>
   <g id="patch_10">
    <path d="M 686.143069 550.8 
L 876.619505 550.8 
L 876.619505 450.8545 
L 686.143069 450.8545 
z
" clip-path="url(#p2b8db4ba35)" style="fill: #ff7000; opacity: 0.8"/>
   </g>
   <g id="patch_11">
    <path d="M 170.42737 450.8545 
L 279.01449 450.8545 
L 279.01449 322.464912 
L 170.42737 322.464912 
z
" clip-path="url(#p2b8db4ba35)" style="fill: #ffb800; opacity: 0.8"/>
   </g>
   <g id="patch_12">
    <path d="M 170.42737 322.464912 
L 279.01449 322.464912 
L 279.01449 244.732117 
L 170.42737 244.732117 
z
" clip-path="url(#p2b8db4ba35)" style="fill: #ffd800; opacity: 0.8"/>
   </g>
   <g id="patch_13">
    <path d="M 170.42737 244.732117 
L 279.01449 244.732117 
L 279.01449 199.949264 
L 170.42737 199.949264 
z
" clip-path="url(#p2b8db4ba35)" style="fill: #ff0000; opacity: 0.8"/>
   </g>
   <g id="patch_14">
    <path d="M 170.42737 199.949264 
L 279.01449 199.949264 
L 279.01449 60.612447 
L 170.42737 60.612447 
z
" clip-path="url(#p2b8db4ba35)" style="fill: #ffc000; opacity: 0.8"/>
   </g>
   <g id="patch_15">
    <path d="M 170.42737 60.612447 
L 279.01449 60.612447 
L 279.01449 7.2 
L 170.42737 7.2 
z
" clip-path="url(#p2b8db4ba35)" style="fill: #fff000; opacity: 0.8"/>
   </g>
   <g id="patch_16">
    <path d="M 279.01449 450.8545 
L 489.447741 450.8545 
L 489.447741 348.137937 
L 279.01449 348.137937 
z
" clip-path="url(#p2b8db4ba35)" style="fill: #ff2000; opacity: 0.8"/>
   </g>
   <g id="patch_17">
    <path d="M 489.447741 450.8545 
L 595.82804 450.8545 
L 595.82804 348.137937 
L 489.447741 348.137937 
z
" clip-path="url(#p2b8db4ba35)" style="fill: #ffd000; opacity: 0.8"/>
   </g>
   <g id="patch_18">
    <path d="M 595.82804 450.8545 
L 785.356429 450.8545 
L 785.356429 348.137937 
L 595.82804 348.137937 
z
" clip-path="url(#p2b8db4ba35)" style="fill: #ffff00; opacity: 0.8"/>
   </g>
   <g id="patch_19">
    <path d="M 785.356429 450.8545 
L 876.619505 450.8545 
L 876.619505 348.137937 
L 785.356429 348.137937 
z
" clip-path="url(#p2b8db4ba35)" style="fill: #ff3800; opacity: 0.8"/>
   </g>
   <g id="patch_20">
    <path d="M 279.01449 348.137937 
L 413.37836 348.137937 
L 413.37836 319.986427 
L 279.01449 319.986427 
z
" clip-path="url(#p2b8db4ba35)" style="fill: #ff4800; opacity: 0.8"/>
   </g>
   <g id="patch_21">
    <path d="M 279.01449 319.986427 
L 413.37836 319.986427 
L 413.37836 260.557963 
L 279.01449 260.557963 
z
" clip-path="url(#p2b8db4ba35)" style="fill: #ff9800; opacity: 0.8"/>
   </g>
   <g id="patch_22">
    <path d="M 279.01449 260.557963 
L 413.37836 260.557963 
L 413.37836 157.337635 
L 279.01449 157.337635 
z
" clip-path="url(#p2b8db4ba35)" style="fill: #ff7800; opacity: 0.8"/>
   </g>
   <g id="patch_23">
    <path d="M 279.01449 157.337635 
L 413.37836 157.337635 
L 413.37836 7.2 
L 279.01449 7.2 
z
" clip-path="url(#p2b8db4ba35)" style="fill: #ff6800; opacity: 0.8"/>
   </g>
   <g id="patch_24">
    <path d="M 413.37836 348.137937 
L 790.287544 348.137937 
L 790.287544 300.748748 
L 413.37836 300.748748 
z
" clip-path="url(#p2b8db4ba35)" style="fill: #ff8800; opacity: 0.8"/>
   </g>
   <g id="patch_25">
    <path d="M 790.287544 348.137937 
L 862.12442 348.137937 
L 862.12442 300.748748 
L 790.287544 300.748748 
z
" clip-path="url(#p2b8db4ba35)" style="fill: #ff3000; opacity: 0.8"/>
   </g>
   <g id="patch_26">
    <path d="M 862.12442 348.137937 
L 876.619505 348.137937 
L 876.619505 300.748748 
L 862.12442 300.748748 
z
" clip-path="url(#p2b8db4ba35)" style="fill: #ff6000; opacity: 0.8"/>
   </g>
   <g id="patch_27">
    <path d="M 413.37836 300.748748 
L 605.093457 300.748748 
L 605.093457 195.516624 
L 413.37836 195.516624 
z
" clip-path="url(#p2b8db4ba35)" style="fill: #ffa800; opacity: 0.8"/>
   </g>
   <g id="patch_28">
    <path d="M 413.37836 195.516624 
L 605.093457 195.516624 
L 605.093457 120.979176 
L 413.37836 120.979176 
z
" clip-path="url(#p2b8db4ba35)" style="fill: #ffb000; opacity: 0.8"/>
   </g>
   <g id="patch_29">
    <path d="M 413.37836 120.979176 
L 605.093457 120.979176 
L 605.093457 7.2 
L 413.37836 7.2 
z
" clip-path="url(#p2b8db4ba35)" style="fill: #ff0800; opacity: 0.8"/>
   </g>
   <g id="patch_30">
    <path d="M 605.093457 300.748748 
L 738.373264 300.748748 
L 738.373264 154.821957 
L 605.093457 154.821957 
z
" clip-path="url(#p2b8db4ba35)" style="fill: #ff9000; opacity: 0.8"/>
   </g>
   <g id="patch_31">
    <path d="M 738.373264 300.748748 
L 876.619505 300.748748 
L 876.619505 154.821957 
L 738.373264 154.821957 
z
" clip-path="url(#p2b8db4ba35)" style="fill: #ffa000; opacity: 0.8"/>
   </g>
   <g id="patch_32">
    <path d="M 605.093457 154.821957 
L 741.757319 154.821957 
L 741.757319 7.2 
L 605.093457 7.2 
z
" clip-path="url(#p2b8db4ba35)" style="fill: #ff8000; opacity: 0.8"/>
   </g>
   <g id="patch_33">
    <path d="M 741.757319 154.821957 
L 876.619505 154.821957 
L 876.619505 45.686767 
L 741.757319 45.686767 
z
" clip-path="url(#p2b8db4ba35)" style="fill: #ff5000; opacity: 0.8"/>
   </g>
   <g id="patch_34">
    <path d="M 741.757319 45.686767 
L 876.619505 45.686767 
L 876.619505 7.2 
L 741.757319 7.2 
z
" clip-path="url(#p2b8db4ba35)" style="fill: #ff5800; opacity: 0.8"/>
   </g>
   <g id="text_1">
    <text style="font: 10px 'sans-serif'; text-anchor: middle" x="105.023438" y="513.33526" transform="rotate(-0, 105.023438, 513.33526)">ATP synthesis</text>
   </g>
   <g id="text_2">
    <text style="font: 10px 'sans-serif'; text-anchor: middle" x="105.023438" y="385.217094" transform="rotate(-0, 105.023438, 385.217094)">Arginine and proline metabolism</text>
   </g>
   <g id="text_3">
    <text style="font: 10px 'sans-serif'; text-anchor: middle" x="105.023438" y="193.048317" transform="rotate(-0, 105.023438, 193.048317)">Aromatic amino acid metabolism</text>
   </g>
   <g id="text_4">
    <text style="font: 10px 'sans-serif'; text-anchor: middle" x="105.023438" y="73.308839" transform="rotate(-0, 105.023438, 73.308839)">Aromatics degradation</text>
   </g>
   <g id="text_5">
    <text style="font: 10px 'sans-serif'; text-anchor: middle" x="105.023438" y="33.78845" transform="rotate(-0, 105.023438, 33.78845)">Biosynthesis of other secondary metabolites</text>
   </g>
   <g id="text_6">
    <text style="font: 10px 'sans-serif'; text-anchor: middle" x="245.783467" y="503.412406" transform="rotate(-0, 245.783467, 503.412406)">Branched-chain amino acid metabolism</text>
   </g>
   <g id="text_7">
    <text style="font: 10px 'sans-serif'; text-anchor: middle" x="388.44288" y="503.412406" transform="rotate(-0, 388.44288, 503.412406)">Carbon fixation</text>
   </g>
   <g id="text_8">
    <text style="font: 10px 'sans-serif'; text-anchor: middle" x="570.944632" y="503.41475" transform="rotate(-0, 570.944632, 503.41475)">Central carbohydrate metabolism</text>
   </g>
   <g id="text_9">
    <text style="font: 10px 'sans-serif'; text-anchor: middle" x="781.381287" y="503.412406" transform="rotate(-0, 781.381287, 503.412406)">Cofactor and vitamin metabolism</text>
   </g>
   <g id="text_10">
    <text style="font: 10px 'sans-serif'; text-anchor: middle" x="224.72093" y="389.247206" transform="rotate(-0, 224.72093, 389.247206)">Cysteine and methionine metabolism</text>
   </g>
   <g id="text_11">
    <text style="font: 10px 'sans-serif'; text-anchor: middle" x="224.72093" y="286.125077" transform="rotate(-0, 224.72093, 286.125077)">Drug resistance</text>
   </g>
   <g id="text_12">
    <text style="font: 10px 'sans-serif'; text-anchor: middle" x="224.72093" y="224.867253" transform="rotate(-0, 224.72093, 224.867253)">Enediyne biosynthesis</text>
   </g>
   <g id="text_13">
    <text style="font: 10px 'sans-serif'; text-anchor: middle" x="224.72093" y="132.807418" transform="rotate(-0, 224.72093, 132.807418)">Fatty acid metabolism</text>
   </g>
   <g id="text_14">
    <text style="font: 10px 'sans-serif'; text-anchor: middle" x="224.72093" y="36.493723" transform="rotate(-0, 224.72093, 36.493723)">Glycosaminoglycan metabolism</text>
   </g>
   <g id="text_15">
    <text style="font: 10px 'sans-serif'; text-anchor: middle" x="384.231115" y="402.081375" transform="rotate(-0, 384.231115, 402.081375)">Histidine metabolism</text>
   </g>
   <g id="text_16">
    <text style="font: 10px 'sans-serif'; text-anchor: middle" x="542.637891" y="402.081375" transform="rotate(-0, 542.637891, 402.081375)">Lipid metabolism</text>
   </g>
   <g id="text_17">
    <text style="font: 10px 'sans-serif'; text-anchor: middle" x="690.592234" y="402.022781" transform="rotate(-0, 690.592234, 402.022781)">Lipopolysaccharide metabolism</text>
   </g>
   <g id="text_18">
    <text style="font: 10px 'sans-serif'; text-anchor: middle" x="830.987967" y="402.022781" transform="rotate(-0, 830.987967, 402.022781)">Lysine metabolism</text>
   </g>
   <g id="text_19">
    <text style="font: 10px 'sans-serif'; text-anchor: middle" x="346.196425" y="336.588745" transform="rotate(-0, 346.196425, 336.588745)">Macrolide biosynthesis</text>
   </g>
   <g id="text_20">
    <text style="font: 10px 'sans-serif'; text-anchor: middle" x="346.196425" y="292.857351" transform="rotate(-0, 346.196425, 292.857351)">Methane metabolism</text>
   </g>
   <g id="text_21">
    <text style="font: 10px 'sans-serif'; text-anchor: middle" x="346.196425" y="211.474362" transform="rotate(-0, 346.196425, 211.474362)">Nitrogen metabolism</text>
   </g>
   <g id="text_22">
    <text style="font: 10px 'sans-serif'; text-anchor: middle" x="346.196425" y="84.853974" transform="rotate(-0, 346.196425, 84.853974)">Other amino acid metabolism</text>
   </g>
   <g id="text_23">
    <text style="font: 10px 'sans-serif'; text-anchor: middle" x="601.832952" y="327.033968" transform="rotate(-0, 601.832952, 327.033968)">Other carbohydrate metabolism</text>
   </g>
   <g id="text_24">
    <text style="font: 10px 'sans-serif'; text-anchor: middle" x="826.205982" y="326.969905" transform="rotate(-0, 826.205982, 326.969905)">Pathogenicity</text>
   </g>
   <g id="text_25">
    <text style="font: 10px 'sans-serif'; text-anchor: middle" x="869.371962" y="326.969905" transform="rotate(-0, 869.371962, 326.969905)">Plant pathogenicity</text>
   </g>
   <g id="text_26">
    <text style="font: 10px 'sans-serif'; text-anchor: middle" x="509.235909" y="250.659249" transform="rotate(-0, 509.235909, 250.659249)">Polyamine biosynthesis</text>
   </g>
   <g id="text_27">
    <text style="font: 10px 'sans-serif'; text-anchor: middle" x="509.235909" y="160.774463" transform="rotate(-0, 509.235909, 160.774463)">Polyketide sugar unit biosynthesis</text>
   </g>
   <g id="text_28">
    <text style="font: 10px 'sans-serif'; text-anchor: middle" x="509.235909" y="66.674744" transform="rotate(-0, 509.235909, 66.674744)">Purine metabolism</text>
   </g>
   <g id="text_29">
    <text style="font: 10px 'sans-serif'; text-anchor: middle" x="671.73336" y="230.311915" transform="rotate(-0, 671.73336, 230.311915)">Pyrimidine metabolism</text>
   </g>
   <g id="text_30">
    <text style="font: 10px 'sans-serif'; text-anchor: middle" x="807.496384" y="230.370509" transform="rotate(-0, 807.496384, 230.370509)">Serine and threonine metabolism</text>
   </g>
   <g id="text_31">
    <text style="font: 10px 'sans-serif'; text-anchor: middle" x="673.425388" y="83.596135" transform="rotate(-0, 673.425388, 83.596135)">Sulfur metabolism</text>
   </g>
   <g id="text_32">
    <text style="font: 10px 'sans-serif'; text-anchor: middle" x="809.188412" y="102.780924" transform="rotate(-0, 809.188412, 102.780924)">Terpenoid backbone biosynthesis</text>
   </g>
   <g id="text_33">
    <text style="font: 10px 'sans-serif'; text-anchor: middle" x="809.188412" y="28.969946" transform="rotate(-0, 809.188412, 28.969946)">Type II polyketide biosynthesis</text>
   </g>
  </g>
 </g>
 <defs>
  <clipPath id="p2b8db4ba35">
   <rect x="39.619505" y="7.2" width="837" height="543.6"/>
  </clipPath>
 </defs>
</svg>
