<?xml version="1.0" encoding="utf-8" standalone="no"?>
<!DOCTYPE svg PUBLIC "-//W3C//DTD SVG 1.1//EN"
  "http://www.w3.org/Graphics/SVG/1.1/DTD/svg11.dtd">
<svg xmlns:xlink="http://www.w3.org/1999/xlink" width="231.84pt" height="246.429375pt" viewBox="0 0 231.84 246.429375" xmlns="http://www.w3.org/2000/svg" version="1.1">
 <metadata>
  <rdf:RDF xmlns:dc="http://purl.org/dc/elements/1.1/" xmlns:cc="http://creativecommons.org/ns#" xmlns:rdf="http://www.w3.org/1999/02/22-rdf-syntax-ns#">
   <cc:Work>
    <dc:type rdf:resource="http://purl.org/dc/dcmitype/StillImage"/>
    <dc:date>2022-06-20T13:48:35.543428</dc:date>
    <dc:format>image/svg+xml</dc:format>
    <dc:creator>
     <cc:Agent>
      <dc:title>Matplotlib v3.5.1, https://matplotlib.org/</dc:title>
     </cc:Agent>
    </dc:creator>
   </cc:Work>
  </rdf:RDF>
 </metadata>
 <defs>
  <style type="text/css">*{stroke-linejoin: round; stroke-linecap: butt}</style>
 </defs>
 <g id="figure_1">
  <g id="patch_1">
   <path d="M 0 246.429375 
L 231.84 246.429375 
L 231.84 0 
L 0 0 
L 0 246.429375 
z
" style="fill: none"/>
  </g>
  <g id="axes_1">
   <g id="patch_2">
    <path d="M 202.896 130.509375 
C 202.896 128.414781 202.820336 126.320871 202.669155 124.23174 
C 202.517974 122.14261 202.291376 120.059622 201.989803 117.986852 
L 115.92 130.509375 
L 202.896 130.509375 
z
" style="fill: #ceecc8"/>
   </g>
   <g id="patch_3">
    <path d="M 201.989803 117.986852 
C 201.324963 113.417276 200.29727 108.907895 198.916472 104.501488 
C 197.535674 100.095081 195.806153 95.805625 193.744314 91.673816 
L 115.92 130.509375 
L 201.989803 117.986852 
z
" style="fill: #bde5b6"/>
   </g>
   <g id="patch_4">
    <path d="M 193.744314 91.673816 
C 191.308245 86.792068 188.41824 82.150345 185.112527 77.810051 
C 181.806815 73.469757 178.100038 69.450114 174.041231 65.804297 
L 115.92 130.509375 
L 193.744314 91.673816 
z
" style="fill: #2a924a"/>
   </g>
   <g id="patch_5">
    <path d="M 174.041231 65.804297 
C 173.4342 65.259033 172.819526 64.722337 172.197391 64.19437 
C 171.575256 63.666403 170.945722 63.147217 170.308977 62.636967 
L 115.92 130.509375 
L 174.041231 65.804297 
z
" style="fill: #e5f5e0"/>
   </g>
   <g id="patch_6">
    <path d="M 170.308977 62.636967 
C 169.328073 61.850928 168.330245 61.086246 167.316195 60.34346 
C 166.302146 59.600673 165.272113 58.879957 164.226823 58.181818 
L 115.92 130.509375 
L 170.308977 62.636967 
z
" style="fill: #eef8ea"/>
   </g>
   <g id="patch_7">
    <path d="M 164.226823 58.181818 
C 161.718768 56.506715 159.12528 54.963199 156.456872 53.557529 
C 153.788464 52.151859 151.048746 50.885936 148.248823 49.764891 
L 115.92 130.509375 
L 164.226823 58.181818 
z
" style="fill: #66bd6f"/>
   </g>
   <g id="patch_8">
    <path d="M 148.248823 49.764891 
C 145.748222 48.763689 143.202461 47.879191 140.619772 47.114256 
C 138.037083 46.349321 135.420253 45.704775 132.777746 45.182703 
L 115.92 130.509375 
L 148.248823 49.764891 
z
" style="fill: #a0d99b"/>
   </g>
   <g id="patch_9">
    <path d="M 132.777746 45.182703 
C 128.25318 44.288797 123.664673 43.756188 119.055647 43.589916 
C 114.446622 43.423644 109.831664 43.624235 105.254448 44.189791 
L 115.92 130.509375 
L 132.777746 45.182703 
z
" style="fill: #00441b"/>
   </g>
   <g id="patch_10">
    <path d="M 105.254448 44.189791 
C 101.470948 44.657276 97.722273 45.37301 94.032683 46.332359 
C 90.343094 47.291709 86.720568 48.492601 83.188548 49.927264 
L 115.92 130.509375 
L 105.254448 44.189791 
z
" style="fill: #f2faf0"/>
   </g>
   <g id="patch_11">
    <path d="M 83.188548 49.927264 
C 80.602394 50.977727 78.068309 52.15208 75.595091 53.446243 
C 73.121874 54.740406 70.71239 56.152881 68.375009 57.678761 
L 115.92 130.509375 
L 83.188548 49.927264 
z
" style="fill: #f7fcf5"/>
   </g>
   <g id="patch_12">
    <path d="M 68.375009 57.678761 
C 66.960026 58.602484 65.572264 59.567247 64.213489 60.571822 
C 62.854714 61.576397 61.525504 62.620357 60.22755 63.702372 
L 115.92 130.509375 
L 68.375009 57.678761 
z
" style="fill: #c7e9c0"/>
   </g>
   <g id="patch_13">
    <path d="M 60.22755 63.702372 
C 59.479818 64.325705 58.742604 64.961548 58.016219 65.609632 
C 57.289833 66.257715 56.57438 66.917948 55.87016 67.590051 
L 115.92 130.509375 
L 60.22755 63.702372 
z
" style="fill: #d6efd0"/>
   </g>
   <g id="patch_14">
    <path d="M 55.87016 67.590051 
C 53.678614 69.68165 51.597842 71.886323 49.636354 74.195053 
C 47.674867 76.503782 45.835342 78.913417 44.125301 81.414102 
L 115.92 130.509375 
L 55.87016 67.590051 
z
" style="fill: #4db163"/>
   </g>
   <g id="patch_15">
    <path d="M 44.125301 81.414102 
C 43.469913 82.372512 42.833782 83.34395 42.21729 84.32783 
C 41.600798 85.311711 41.004069 86.307838 40.427461 87.315612 
L 115.92 130.509375 
L 44.125301 81.414102 
z
" style="fill: #39a257"/>
   </g>
   <g id="patch_16">
    <path d="M 40.427461 87.315612 
C 38.277647 91.072982 36.411343 94.985614 34.844116 99.020875 
C 33.276889 103.056137 32.013107 107.202778 31.063311 111.426215 
L 115.92 130.509375 
L 40.427461 87.315612 
z
" style="fill: #319a50"/>
   </g>
   <g id="patch_17">
    <path d="M 31.063311 111.426215 
C 30.583327 113.560552 30.184038 115.712239 29.866298 117.876683 
C 29.548557 120.041128 29.31259 122.21679 29.158901 124.399027 
L 115.92 130.509375 
L 31.063311 111.426215 
z
" style="fill: #7fc97f"/>
   </g>
   <g id="patch_18">
    <path d="M 29.158901 124.399027 
C 28.885017 128.287929 28.872911 132.190848 29.122665 136.081374 
C 29.372419 139.971899 29.883469 143.841235 30.652356 147.663195 
L 115.92 130.509375 
L 29.158901 124.399027 
z
" style="fill: #b4e1ad"/>
   </g>
   <g id="patch_19">
    <path d="M 30.652356 147.663195 
C 31.02249 149.503041 31.452074 151.330425 31.940436 153.142478 
C 32.428797 154.954531 32.975679 156.750302 33.580224 158.526973 
L 115.92 130.509375 
L 30.652356 147.663195 
z
" style="fill: #aadda4"/>
   </g>
   <g id="patch_20">
    <path d="M 33.580224 158.526973 
C 33.824142 159.243815 34.077412 159.957442 34.339967 160.667671 
C 34.602522 161.377899 34.874341 162.084668 35.155354 162.787798 
L 115.92 130.509375 
L 33.580224 158.526973 
z
" style="fill: #73c476"/>
   </g>
   <g id="patch_21">
    <path d="M 35.155354 162.787798 
C 35.748608 164.272193 36.382672 165.739951 37.056824 167.189398 
C 37.730976 168.638846 38.44496 170.069432 39.197962 171.479527 
L 115.92 130.509375 
L 35.155354 162.787798 
z
" style="fill: #004d1f"/>
   </g>
   <g id="patch_22">
    <path d="M 39.197962 171.479527 
C 40.506005 173.929011 41.930603 176.314448 43.466862 178.62764 
C 45.003121 180.940832 46.649278 183.179125 48.399675 185.334828 
L 115.92 130.509375 
L 39.197962 171.479527 
z
" style="fill: #006c2c"/>
   </g>
   <g id="patch_23">
    <path d="M 48.399675 185.334828 
C 50.946233 188.471043 53.708207 191.426025 56.66553 194.178303 
C 59.622853 196.930581 62.768345 199.473474 66.07915 201.788504 
L 115.92 130.509375 
L 48.399675 185.334828 
z
" style="fill: #19833e"/>
   </g>
   <g id="patch_24">
    <path d="M 66.07915 201.788504 
C 69.010311 203.838074 72.065108 205.70489 75.226135 207.378315 
C 78.387162 209.05174 81.648404 210.52859 84.991279 211.80045 
L 115.92 130.509375 
L 66.07915 201.788504 
z
" style="fill: #8ace88"/>
   </g>
   <g id="patch_25">
    <path d="M 84.991279 211.80045 
C 85.628219 212.042785 86.267985 212.277627 86.910444 212.504925 
C 87.552904 212.732224 88.198013 212.951964 88.845637 213.164099 
L 115.92 130.509375 
L 84.991279 211.80045 
z
" style="fill: #5ab769"/>
   </g>
   <g id="patch_26">
    <path d="M 88.845637 213.164099 
C 88.976312 213.206903 89.107088 213.249397 89.237964 213.29158 
C 89.36884 213.333764 89.499816 213.375637 89.630891 213.417199 
L 115.92 130.509375 
L 88.845637 213.164099 
z
" style="fill: #117b38"/>
   </g>
   <g id="patch_27">
    <path d="M 89.630891 213.417199 
C 93.48212 214.638379 97.413763 215.589731 101.397248 216.264341 
C 105.380732 216.938951 109.406385 217.335181 113.444953 217.450152 
L 115.92 130.509375 
L 89.630891 213.417199 
z
" style="fill: #e9f7e5"/>
   </g>
   <g id="patch_28">
    <path d="M 113.444953 217.450152 
C 116.304954 217.531571 119.16723 217.471817 122.021341 217.271107 
C 124.875452 217.070398 127.717921 216.728978 130.538379 216.248092 
L 115.92 130.509375 
L 113.444953 217.450152 
z
" style="fill: #95d391"/>
   </g>
   <g id="patch_29">
    <path d="M 130.538379 216.248092 
C 134.844883 215.513837 139.089953 214.456161 143.237534 213.08405 
C 147.385114 211.711938 151.423428 210.029286 155.318176 208.050386 
L 115.92 130.509375 
L 130.538379 216.248092 
z
" style="fill: #ddf2d8"/>
   </g>
   <g id="patch_30">
    <path d="M 155.318176 208.050386 
C 158.790479 206.286127 162.140359 204.290623 165.345188 202.077352 
C 168.550018 199.864082 171.602565 197.438039 174.482212 194.81561 
L 115.92 130.509375 
L 155.318176 208.050386 
z
" style="fill: #228a44"/>
   </g>
   <g id="patch_31">
    <path d="M 174.482212 194.81561 
C 177.46925 192.095384 180.263128 189.170337 182.843545 186.061725 
C 185.423963 182.953114 187.784655 179.668484 189.908466 176.231705 
L 115.92 130.509375 
L 174.482212 194.81561 
z
" style="fill: #087432"/>
   </g>
   <g id="patch_32">
    <path d="M 189.908466 176.231705 
C 192.032357 172.794798 193.914192 169.214075 195.540297 165.515557 
C 197.166402 161.81704 198.532828 158.00971 199.629645 154.121235 
L 115.92 130.509375 
L 189.908466 176.231705 
z
" style="fill: #005723"/>
   </g>
   <g id="patch_33">
    <path d="M 199.629645 154.121235 
C 200.429668 151.284964 201.085025 148.409865 201.59318 145.507066 
C 202.101336 142.604266 202.461633 139.677515 202.672678 136.73814 
L 115.92 130.509375 
L 199.629645 154.121235 
z
" style="fill: #006227"/>
   </g>
   <g id="patch_34">
    <path d="M 202.672678 136.73814 
C 202.747089 135.701758 202.802923 134.664126 202.840152 133.625743 
C 202.877381 132.58736 202.896 131.548394 202.896 130.509344 
L 115.92 130.509375 
L 202.672678 136.73814 
z
" style="fill: #40aa5d"/>
   </g>
   <g id="patch_35">
    <path d="M 115.92 191.392575 
C 132.066413 191.392575 147.553685 184.977537 158.970924 173.560299 
C 170.388162 162.14306 176.8032 146.655788 176.8032 130.509375 
C 176.8032 114.362962 170.388162 98.87569 158.970924 87.458451 
C 147.553685 76.041213 132.066413 69.626175 115.92 69.626175 
C 99.773587 69.626175 84.286315 76.041213 72.869076 87.458451 
C 61.451838 98.87569 55.0368 114.362962 55.0368 130.509375 
C 55.0368 146.655788 61.451838 162.14306 72.869076 173.560299 
C 84.286315 184.977537 99.773587 191.392575 115.92 191.392575 
z
" clip-path="url(#pee89fd363c)" style="fill: #ffffff; stroke: #ffffff; stroke-linejoin: miter"/>
   </g>
   <g id="matplotlib.axis_1"/>
   <g id="matplotlib.axis_2"/>
   <g id="text_1">
    <text style="font: 12px 'sans-serif'; text-anchor: middle" x="115.92" y="15.789375" transform="rotate(-0, 115.92, 15.789375)">AZ51</text>
   </g>
  </g>
 </g>
 <defs>
  <clipPath id="pee89fd363c">
   <rect x="7.2" y="21.789375" width="217.44" height="217.44"/>
  </clipPath>
 </defs>
</svg>
