<?xml version="1.0" encoding="utf-8" standalone="no"?>
<!DOCTYPE svg PUBLIC "-//W3C//DTD SVG 1.1//EN"
  "http://www.w3.org/Graphics/SVG/1.1/DTD/svg11.dtd">
<svg xmlns:xlink="http://www.w3.org/1999/xlink" width="924.234076pt" height="558pt" viewBox="0 0 924.234076 558" xmlns="http://www.w3.org/2000/svg" version="1.1">
 <metadata>
  <rdf:RDF xmlns:dc="http://purl.org/dc/elements/1.1/" xmlns:cc="http://creativecommons.org/ns#" xmlns:rdf="http://www.w3.org/1999/02/22-rdf-syntax-ns#">
   <cc:Work>
    <dc:type rdf:resource="http://purl.org/dc/dcmitype/StillImage"/>
    <dc:date>2022-06-20T14:21:10.728254</dc:date>
    <dc:format>image/svg+xml</dc:format>
    <dc:creator>
     <cc:Agent>
      <dc:title>Matplotlib v3.5.1, https://matplotlib.org/</dc:title>
     </cc:Agent>
    </dc:creator>
   </cc:Work>
  </rdf:RDF>
 </metadata>
 <defs>
  <style type="text/css">*{stroke-linejoin: round; stroke-linecap: butt}</style>
 </defs>
 <g id="figure_1">
  <g id="patch_1">
   <path d="M 0 558 
L 924.234076 558 
L 924.234076 0 
L 0 0 
L 0 558 
z
" style="fill: none"/>
  </g>
  <g id="axes_1">
   <g id="patch_2">
    <path d="M 80.034076 550.8 
L 286.733111 550.8 
L 286.733111 395.503462 
L 80.034076 395.503462 
z
" clip-path="url(#pf5c195c0b1)" style="fill: #d0e1f2; opacity: 0.8"/>
   </g>
   <g id="patch_3">
    <path d="M 80.034076 395.503462 
L 286.733111 395.503462 
L 286.733111 291.951731 
L 80.034076 291.951731 
z
" clip-path="url(#pf5c195c0b1)" style="fill: #94c4df; opacity: 0.8"/>
   </g>
   <g id="patch_4">
    <path d="M 80.034076 291.951731 
L 286.733111 291.951731 
L 286.733111 84.848269 
L 80.034076 84.848269 
z
" clip-path="url(#pf5c195c0b1)" style="fill: #f7fbff; opacity: 0.8"/>
   </g>
   <g id="patch_5">
    <path d="M 80.034076 84.848269 
L 286.733111 84.848269 
L 286.733111 7.2 
L 80.034076 7.2 
z
" clip-path="url(#pf5c195c0b1)" style="fill: #1764ab; opacity: 0.8"/>
   </g>
   <g id="patch_6">
    <path d="M 286.733111 550.8 
L 509.116073 550.8 
L 509.116073 461.595413 
L 286.733111 461.595413 
z
" clip-path="url(#pf5c195c0b1)" style="fill: #4a98c9; opacity: 0.8"/>
   </g>
   <g id="patch_7">
    <path d="M 509.116073 550.8 
L 629.159692 550.8 
L 629.159692 461.595413 
L 509.116073 461.595413 
z
" clip-path="url(#pf5c195c0b1)" style="fill: #08306b; opacity: 0.8"/>
   </g>
   <g id="patch_8">
    <path d="M 629.159692 550.8 
L 917.034076 550.8 
L 917.034076 461.595413 
L 629.159692 461.595413 
z
" clip-path="url(#pf5c195c0b1)" style="fill: #fe9100; opacity: 0.8"/>
   </g>
   <g id="patch_9">
    <path d="M 286.733111 461.595413 
L 307.911823 461.595413 
L 307.911823 393.087757 
L 286.733111 393.087757 
z
" clip-path="url(#pf5c195c0b1)" style="fill: #faed2d; opacity: 0.8"/>
   </g>
   <g id="patch_10">
    <path d="M 307.911823 461.595413 
L 542.189613 461.595413 
L 542.189613 393.087757 
L 307.911823 393.087757 
z
" clip-path="url(#pf5c195c0b1)" style="fill: #ffda11; opacity: 0.8"/>
   </g>
   <g id="patch_11">
    <path d="M 542.189613 461.595413 
L 917.034076 461.595413 
L 917.034076 393.087757 
L 542.189613 393.087757 
z
" clip-path="url(#pf5c195c0b1)" style="fill: #e4ff7a; opacity: 0.8"/>
   </g>
   <g id="patch_12">
    <path d="M 286.733111 393.087757 
L 453.10089 393.087757 
L 453.10089 264.432779 
L 286.733111 264.432779 
z
" clip-path="url(#pf5c195c0b1)" style="fill: #f2f347; opacity: 0.8"/>
   </g>
   <g id="patch_13">
    <path d="M 286.733111 264.432779 
L 453.10089 264.432779 
L 453.10089 178.688519 
L 286.733111 178.688519 
z
" clip-path="url(#pf5c195c0b1)" style="fill: #ffa200; opacity: 0.8"/>
   </g>
   <g id="patch_14">
    <path d="M 286.733111 178.688519 
L 453.10089 178.688519 
L 453.10089 92.94426 
L 286.733111 92.94426 
z
" clip-path="url(#pf5c195c0b1)" style="fill: #ffaa00; opacity: 0.8"/>
   </g>
   <g id="patch_15">
    <path d="M 286.733111 92.94426 
L 453.10089 92.94426 
L 453.10089 7.2 
L 286.733111 7.2 
z
" clip-path="url(#pf5c195c0b1)" style="fill: #fe9900; opacity: 0.8"/>
   </g>
   <g id="patch_16">
    <path d="M 453.10089 393.087757 
L 556.277321 393.087757 
L 556.277321 304.10912 
L 453.10089 304.10912 
z
" clip-path="url(#pf5c195c0b1)" style="fill: #ffce0a; opacity: 0.8"/>
   </g>
   <g id="patch_17">
    <path d="M 556.277321 393.087757 
L 917.034076 393.087757 
L 917.034076 304.10912 
L 556.277321 304.10912 
z
" clip-path="url(#pf5c195c0b1)" style="fill: #fc7f00; opacity: 0.8"/>
   </g>
   <g id="patch_18">
    <path d="M 453.10089 304.10912 
L 578.252143 304.10912 
L 578.252143 291.28478 
L 453.10089 291.28478 
z
" clip-path="url(#pf5c195c0b1)" style="fill: #ffb900; opacity: 0.8"/>
   </g>
   <g id="patch_19">
    <path d="M 453.10089 291.28478 
L 578.252143 291.28478 
L 578.252143 212.38944 
L 453.10089 212.38944 
z
" clip-path="url(#pf5c195c0b1)" style="fill: #ebf960; opacity: 0.8"/>
   </g>
   <g id="patch_20">
    <path d="M 453.10089 212.38944 
L 578.252143 212.38944 
L 578.252143 7.2 
L 453.10089 7.2 
z
" clip-path="url(#pf5c195c0b1)" style="fill: #ffe518; opacity: 0.8"/>
   </g>
   <g id="patch_21">
    <path d="M 578.252143 304.10912 
L 705.279489 304.10912 
L 705.279489 101.950166 
L 578.252143 101.950166 
z
" clip-path="url(#pf5c195c0b1)" style="fill: #ffc303; opacity: 0.8"/>
   </g>
   <g id="patch_22">
    <path d="M 705.279489 304.10912 
L 917.034076 304.10912 
L 917.034076 101.950166 
L 705.279489 101.950166 
z
" clip-path="url(#pf5c195c0b1)" style="fill: #fd8800; opacity: 0.8"/>
   </g>
   <g id="patch_23">
    <path d="M 578.252143 101.950166 
L 917.034076 101.950166 
L 917.034076 7.2 
L 578.252143 7.2 
z
" clip-path="url(#pf5c195c0b1)" style="fill: #ffb100; opacity: 0.8"/>
   </g>
   <g id="text_1">
    <text style="font: 10px 'sans-serif'; text-anchor: middle" x="183.383594" y="475.739231" transform="rotate(-0, 183.383594, 475.739231)">C10-C20 isoprenoid biosynthesis, plants</text>
   </g>
   <g id="text_2">
    <text style="font: 10px 'sans-serif'; text-anchor: middle" x="183.383594" y="346.315097" transform="rotate(-0, 183.383594, 346.315097)">Pimeloyl-ACP biosynthesis, BioC-BioH pathway, malonyl-ACP =&gt; pimeloyl-ACP</text>
   </g>
   <g id="text_3">
    <text style="font: 10px 'sans-serif'; text-anchor: middle" x="183.383594" y="190.9875" transform="rotate(-0, 183.383594, 190.9875)">GABA (gamma-Aminobutyrate) shunt</text>
   </g>
   <g id="text_4">
    <text style="font: 10px 'sans-serif'; text-anchor: middle" x="183.383594" y="48.609291" transform="rotate(-0, 183.383594, 48.609291)">Photorespiration</text>
   </g>
   <g id="text_5">
    <text style="font: 10px 'sans-serif'; text-anchor: middle" x="397.924592" y="508.724269" transform="rotate(-0, 397.924592, 508.724269)">Methionine salvage pathway</text>
   </g>
   <g id="text_6">
    <text style="font: 10px 'sans-serif'; text-anchor: middle" x="569.137882" y="508.785207" transform="rotate(-0, 569.137882, 508.785207)">Leucine degradation, leucine =&gt; acetoacetate + acetyl-CoA</text>
   </g>
   <g id="text_7">
    <text style="font: 10px 'sans-serif'; text-anchor: middle" x="773.096884" y="508.724269" transform="rotate(-0, 773.096884, 508.724269)">ADP-L-glycero-D-manno-heptose biosynthesis</text>
   </g>
   <g id="text_8">
    <text style="font: 10px 'sans-serif'; text-anchor: middle" x="297.322467" y="429.929085" transform="rotate(-0, 297.322467, 429.929085)">Xanthomonas spp. pathogenicity signature, T3SS and effectors</text>
   </g>
   <g id="text_9">
    <text style="font: 10px 'sans-serif'; text-anchor: middle" x="425.050718" y="429.929085" transform="rotate(-0, 425.050718, 429.929085)">Tylosin biosynthesis, methylmalonyl-CoA + malonyl-CoA =&gt; tylactone =&gt; tylosin</text>
   </g>
   <g id="text_10">
    <text style="font: 10px 'sans-serif'; text-anchor: middle" x="729.611845" y="429.929085" transform="rotate(-0, 729.611845, 429.929085)">Semi-phosphorylative Entner-Doudoroff pathway, gluconate =&gt; glycerate-3P</text>
   </g>
   <g id="text_11">
    <text style="font: 10px 'sans-serif'; text-anchor: middle" x="369.917" y="331.347768" transform="rotate(-0, 369.917, 331.347768)">Riboflavin biosynthesis, GTP =&gt; riboflavin--FMN--FAD</text>
   </g>
   <g id="text_12">
    <text style="font: 10px 'sans-serif'; text-anchor: middle" x="369.917" y="224.087212" transform="rotate(-0, 369.917, 224.087212)">Lysine biosynthesis, acetyl-DAP pathway, aspartate =&gt; lysine</text>
   </g>
   <g id="text_13">
    <text style="font: 10px 'sans-serif'; text-anchor: middle" x="369.917" y="138.407014" transform="rotate(-0, 369.917, 138.407014)">KDO2-lipid A biosynthesis, Raetz pathway, non-LpxL-LpxM type</text>
   </g>
   <g id="text_14">
    <text style="font: 10px 'sans-serif'; text-anchor: middle" x="369.917" y="52.662755" transform="rotate(-0, 369.917, 52.662755)">KDO2-lipid A biosynthesis, Raetz pathway, LpxL-LpxM type</text>
   </g>
   <g id="text_15">
    <text style="font: 10px 'sans-serif'; text-anchor: middle" x="504.689106" y="351.125001" transform="rotate(-0, 504.689106, 351.125001)">Hydroxypropionate-hydroxybutylate cycle</text>
   </g>
   <g id="text_16">
    <text style="font: 10px 'sans-serif'; text-anchor: middle" x="736.655699" y="351.185939" transform="rotate(-0, 736.655699, 351.185939)">Entner-Doudoroff pathway, glucose-6P =&gt; glyceraldehyde-3P + pyruvate</text>
   </g>
   <g id="text_17">
    <text style="font: 10px 'sans-serif'; text-anchor: middle" x="515.676516" y="300.28445" transform="rotate(-0, 515.676516, 300.28445)">EHEC--EPEC pathogenicity signature, T3SS and effectors</text>
   </g>
   <g id="text_18">
    <text style="font: 10px 'sans-serif'; text-anchor: middle" x="515.676516" y="254.363673" transform="rotate(-0, 515.676516, 254.363673)">Dicarboxylate-hydroxybutyrate cycle</text>
   </g>
   <g id="text_19">
    <text style="font: 10px 'sans-serif'; text-anchor: middle" x="515.676516" y="112.38222" transform="rotate(-0, 515.676516, 112.38222)">D-Glucuronate degradation, D-glucuronate =&gt; pyruvate + D-glyceraldehyde 3P</text>
   </g>
   <g id="text_20">
    <text style="font: 10px 'sans-serif'; text-anchor: middle" x="641.765816" y="205.617143" transform="rotate(-0, 641.765816, 205.617143)">D-Galacturonate degradation (bacteria), D-galacturonate =&gt; pyruvate + D-glyceraldehyde 3P</text>
   </g>
   <g id="text_21">
    <text style="font: 10px 'sans-serif'; text-anchor: middle" x="811.156783" y="205.614799" transform="rotate(-0, 811.156783, 205.614799)">beta-Oxidation</text>
   </g>
   <g id="text_22">
    <text style="font: 10px 'sans-serif'; text-anchor: middle" x="747.643109" y="57.101645" transform="rotate(-0, 747.643109, 57.101645)">dTDP-L-olivose biosynthesis</text>
   </g>
  </g>
 </g>
 <defs>
  <clipPath id="pf5c195c0b1">
   <rect x="80.034076" y="7.2" width="837" height="543.6"/>
  </clipPath>
 </defs>
</svg>
